{"glyphs":{"0":{"ha":960,"x_min":39,"x_max":921,"o":"m 921 439 l 916 423 l 910 407 q 909 392 909 396 q 909 384 909 388 q 901 357 905 366 q 896 340 897 343 q 895 335 895 338 q 888 311 895 323 q 880 300 882 302 q 879 294 879 297 q 875 279 878 288 q 863 258 865 263 q 859 250 860 252 q 849 229 849 229 q 834 208 836 210 q 833 202 831 203 q 821 191 826 197 l 810 180 q 796 172 802 175 q 790 163 792 165 q 787 159 788 161 q 780 151 784 155 q 769 141 776 146 q 748 128 751 130 q 742 123 745 126 q 731 112 734 114 q 727 109 728 110 q 706 96 712 100 q 692 85 700 92 q 679 81 682 83 q 673 79 675 80 q 661 75 666 76 q 654 72 656 73 q 635 65 639 66 q 628 62 631 64 q 618 56 621 57 q 609 52 614 54 q 598 49 601 50 q 593 46 595 47 q 580 43 582 43 q 576 43 578 43 q 568 38 572 39 l 560 35 l 551 37 q 536 34 538 34 q 530 34 533 34 q 518 30 522 30 l 514 30 l 509 27 q 503 25 506 26 q 499 27 500 24 q 482 31 488 30 q 472 31 476 31 q 465 28 467 30 l 454 31 q 450 32 452 31 q 446 33 449 33 q 442 34 444 33 q 429 33 431 34 q 423 33 426 33 q 415 34 419 33 q 408 37 411 35 q 388 43 392 42 q 381 45 384 45 q 370 47 376 46 q 358 52 365 47 q 347 55 351 54 q 338 58 342 56 q 328 66 330 65 q 324 68 326 66 q 309 71 312 71 q 304 72 305 72 q 292 75 296 75 q 285 79 289 76 q 277 84 282 81 q 266 87 271 87 q 251 96 262 91 q 241 100 245 99 q 235 106 239 103 q 229 111 232 109 q 225 114 227 113 q 219 120 221 117 q 214 126 217 123 q 201 134 203 133 q 198 138 199 136 q 183 146 187 144 q 176 153 179 149 q 160 169 164 164 q 153 176 156 174 q 145 184 148 183 q 136 187 142 186 l 122 214 q 112 225 117 218 q 107 241 107 232 q 99 255 100 250 q 81 285 84 271 q 79 295 80 292 q 79 301 79 298 q 68 319 72 312 q 65 335 64 327 q 56 376 56 358 q 53 389 53 382 q 50 403 53 396 q 49 410 50 406 q 46 420 47 414 q 43 435 45 426 q 42 446 43 441 q 39 471 39 460 q 43 491 39 480 q 40 518 41 502 q 42 545 39 534 q 49 570 41 559 q 47 581 46 576 q 47 589 47 586 q 51 600 50 597 q 52 610 52 604 q 62 634 58 627 q 68 647 65 642 q 72 654 71 652 q 75 663 73 656 q 83 684 81 678 q 88 697 85 690 q 95 706 94 704 q 98 711 96 708 q 100 722 99 718 q 107 734 102 727 q 117 747 115 742 q 118 762 118 751 q 127 768 125 766 q 130 773 129 770 q 133 782 132 777 q 137 793 134 787 q 152 806 144 800 q 163 822 157 817 q 170 831 168 829 q 174 836 172 834 q 192 857 187 852 q 199 865 197 863 q 202 869 201 867 q 210 882 203 871 q 219 885 217 883 q 224 890 221 887 l 239 901 q 244 902 241 901 q 251 905 250 905 q 264 917 256 909 q 302 938 288 929 q 324 954 316 947 q 338 955 335 955 q 345 955 342 955 q 355 958 351 958 q 361 960 358 959 q 384 964 374 964 q 410 971 403 970 q 423 972 418 972 q 460 981 441 978 q 496 982 479 985 q 514 977 503 979 q 532 972 525 974 q 549 972 547 974 q 566 967 562 970 q 576 964 572 964 q 597 966 581 963 q 614 958 605 958 q 627 962 624 959 q 648 945 642 949 q 658 939 654 941 q 672 928 667 930 q 688 926 677 926 q 701 911 699 914 q 705 907 704 909 q 727 905 711 905 q 732 893 730 897 q 742 886 735 890 q 752 875 750 878 q 755 871 754 872 q 768 854 766 860 q 787 834 777 848 q 793 828 791 831 q 798 822 795 825 q 808 807 807 810 q 811 804 810 804 q 823 792 818 799 q 827 781 826 785 q 830 773 827 777 q 838 757 834 761 q 844 751 842 753 q 848 747 846 749 q 850 736 850 745 q 857 725 856 730 q 861 713 859 720 q 871 696 868 703 q 882 675 875 690 q 884 659 882 665 q 888 650 886 652 q 896 640 892 644 q 905 624 899 635 q 905 614 905 617 q 909 605 906 610 q 911 595 910 598 q 911 589 911 591 l 917 571 q 916 559 916 562 q 917 553 917 556 l 921 526 q 920 510 921 517 q 918 498 918 503 q 917 492 917 494 q 917 476 918 486 q 918 452 917 458 q 921 439 920 446 m 803 464 q 803 477 804 465 q 802 494 802 490 q 801 500 800 496 q 802 507 802 505 l 802 513 l 802 519 q 801 525 802 522 q 802 530 800 528 q 800 552 802 547 q 794 574 795 567 q 792 586 793 581 q 787 602 787 597 q 777 622 780 616 q 773 635 774 628 q 762 656 765 650 q 755 666 758 662 q 751 681 753 678 q 747 686 750 684 q 742 693 745 689 q 736 704 739 697 q 726 720 731 712 q 719 734 722 727 q 710 745 712 743 q 703 753 708 747 q 701 762 701 760 q 699 768 700 765 q 688 781 690 777 q 684 787 685 784 q 670 796 671 796 q 657 806 659 804 q 654 808 655 808 q 646 814 648 811 q 642 821 644 818 l 637 825 q 629 829 633 826 q 623 833 627 831 q 618 836 620 834 q 597 848 604 846 q 589 852 591 850 q 574 855 578 854 q 567 857 570 856 l 552 860 q 537 867 538 865 q 521 868 530 868 q 505 865 510 865 q 496 865 500 865 q 486 867 488 867 q 481 868 483 868 q 469 866 473 867 q 461 865 465 865 q 450 867 454 865 q 439 868 446 868 q 423 864 429 865 q 411 860 418 863 q 402 858 406 859 q 395 857 399 857 q 378 854 381 854 q 372 852 374 853 q 359 846 365 849 q 346 841 353 842 q 336 830 339 834 q 326 819 332 826 q 313 814 316 817 q 307 810 309 812 q 289 796 294 798 q 278 787 281 791 q 273 781 275 784 q 260 768 267 772 q 258 758 258 761 q 258 749 258 754 q 245 739 248 742 q 240 732 243 735 q 227 711 236 723 l 220 697 q 210 685 214 689 q 205 676 206 678 q 203 671 203 674 q 198 654 201 661 q 192 644 194 647 q 189 639 190 640 q 186 625 186 628 q 186 617 186 623 q 172 600 175 604 q 170 591 170 597 q 167 575 167 581 q 164 559 167 570 q 158 543 159 548 q 156 533 157 537 q 160 509 160 521 q 159 496 159 503 l 159 494 q 159 477 160 481 q 157 469 159 472 q 162 450 161 454 q 164 442 163 445 q 167 434 164 442 q 168 427 168 430 l 168 420 q 169 415 168 418 q 170 411 170 412 q 172 387 170 395 q 178 369 174 378 q 180 359 179 362 q 180 354 180 357 q 186 343 186 343 l 187 340 q 197 322 195 327 q 201 315 199 317 q 213 289 210 296 q 224 274 222 275 q 241 254 239 263 q 258 243 254 247 q 266 237 263 240 q 284 220 278 227 q 296 205 290 214 q 310 197 307 198 q 315 194 313 195 q 329 187 326 189 q 335 183 332 186 q 360 170 349 174 q 374 167 372 165 q 395 159 389 163 q 407 153 401 156 q 425 151 419 153 q 456 142 439 142 q 483 144 473 141 q 511 142 499 140 q 523 144 521 144 q 526 145 525 145 q 538 151 530 148 q 555 153 545 155 q 577 163 570 161 q 589 165 585 165 q 604 171 601 170 q 610 174 608 172 q 632 186 621 182 q 641 191 637 189 q 647 195 644 193 q 662 205 651 199 q 684 222 669 217 q 696 238 690 233 q 709 247 701 243 q 724 262 719 258 q 731 270 728 267 q 760 319 751 292 q 769 335 766 331 q 774 342 772 339 q 779 355 779 353 q 781 358 780 357 q 787 384 784 372 q 791 401 791 396 q 792 415 789 412 q 795 420 795 418 q 795 426 792 420 l 798 431 q 799 438 798 434 q 802 445 799 445 q 804 458 804 454 q 803 464 803 461 z "},"1":{"ha":460,"x_min":73,"x_max":363,"o":"m 355 141 q 353 102 363 119 q 353 93 353 98 q 350 80 353 88 q 328 64 335 69 q 309 56 320 58 q 292 57 296 57 q 285 57 288 57 q 263 60 274 54 q 248 57 256 57 q 233 57 240 57 q 229 55 231 56 q 225 54 228 54 q 221 53 222 53 q 214 52 218 53 q 206 50 206 49 q 195 46 198 47 q 189 42 193 45 l 160 42 q 145 53 148 52 q 140 54 141 54 l 121 88 l 127 130 q 134 140 130 134 q 142 152 138 148 q 159 161 146 156 q 170 167 167 164 q 178 176 174 170 q 178 183 179 179 q 178 193 178 187 q 180 217 174 206 q 178 230 179 225 q 178 239 178 235 q 179 250 178 245 q 182 258 180 255 q 182 288 178 277 l 182 309 q 180 319 180 317 q 175 328 179 321 q 180 343 180 339 q 176 357 180 347 q 179 370 179 361 q 179 388 179 378 q 178 412 179 399 q 180 441 179 427 q 183 462 182 452 q 184 477 184 472 q 184 500 183 491 q 182 510 183 507 q 182 515 182 513 q 184 530 184 525 q 184 540 184 536 q 184 547 184 544 q 183 556 183 551 q 182 575 182 570 q 182 583 182 581 q 184 596 183 591 q 186 604 186 601 l 186 608 l 186 628 q 186 644 186 642 q 187 648 186 647 q 186 665 186 659 q 189 675 187 671 q 191 689 191 686 q 190 693 190 692 q 189 700 190 696 q 190 709 189 704 q 191 724 191 722 q 191 730 191 727 q 184 722 187 724 q 179 716 182 719 q 171 703 172 705 q 168 700 170 701 q 149 690 153 692 q 140 686 144 688 q 128 686 134 686 q 113 689 122 686 q 96 701 99 697 q 90 708 92 705 q 79 720 81 715 q 76 728 77 726 q 75 731 75 730 l 75 735 q 73 742 73 738 q 75 747 73 745 q 77 754 75 751 q 83 772 81 768 q 88 779 85 776 q 98 789 95 787 q 102 793 100 791 q 121 808 113 803 q 133 827 129 814 q 142 837 141 834 q 142 845 144 840 q 156 856 152 850 q 161 863 160 861 q 176 878 171 873 q 186 887 180 883 q 194 898 189 890 l 199 906 q 206 910 202 907 q 214 916 214 916 q 243 926 229 926 q 264 920 258 925 q 273 915 270 917 q 278 911 275 913 q 282 909 281 909 q 286 903 283 906 q 289 899 288 901 q 290 895 290 897 q 296 871 296 880 q 299 852 298 859 q 298 841 300 846 l 298 821 q 297 810 297 814 q 297 803 297 806 q 298 768 301 783 l 298 751 q 301 736 301 741 q 298 727 301 731 q 300 708 297 716 q 302 703 301 704 q 300 693 301 699 q 297 681 297 682 q 298 669 298 674 q 298 661 298 665 q 296 635 297 637 q 297 607 297 617 q 294 587 297 597 q 292 567 294 581 l 292 547 q 290 534 289 537 q 293 526 290 530 q 294 509 294 514 q 293 499 293 503 q 292 479 293 483 q 290 471 290 475 q 293 446 294 452 l 290 431 q 292 421 292 425 q 292 415 292 418 q 289 380 298 397 q 293 357 290 373 q 294 347 293 351 q 294 338 294 342 q 293 315 293 319 q 294 309 293 311 q 296 295 296 298 q 294 289 296 292 q 293 277 293 279 q 294 274 293 275 q 294 245 296 251 q 292 235 293 240 l 292 220 q 292 212 292 216 q 293 203 293 208 q 295 195 294 198 q 296 186 296 191 q 309 176 304 179 q 317 172 313 174 q 328 167 323 170 q 345 159 334 164 q 351 148 349 152 q 355 141 353 144 z "},"2":{"ha":773,"x_min":58,"x_max":715,"o":"m 715 146 q 710 132 711 136 q 709 125 709 127 q 712 95 715 104 q 705 81 709 87 q 696 69 701 76 q 679 57 685 60 q 667 53 673 54 q 646 50 654 50 l 631 42 q 624 41 628 41 q 614 41 614 41 q 587 43 594 42 q 578 47 581 45 q 564 48 567 49 q 559 47 562 47 q 543 44 547 45 q 536 43 538 43 q 521 47 529 43 q 509 47 514 46 q 502 49 505 49 q 493 51 496 52 q 487 50 490 50 q 475 48 481 49 q 463 50 469 47 q 448 48 456 49 q 434 50 441 47 q 420 41 430 46 q 408 43 411 43 q 401 43 404 43 q 384 40 389 41 q 374 39 378 39 q 338 43 350 42 q 320 46 327 43 q 308 47 313 47 q 297 47 302 47 q 285 45 290 46 q 273 47 279 45 q 248 46 256 43 q 221 41 227 41 l 202 41 q 193 38 201 41 l 184 35 l 164 35 q 140 34 145 35 q 129 33 136 33 q 119 31 122 31 q 114 31 117 31 l 111 31 l 94 37 q 81 50 84 43 q 69 62 71 60 q 68 66 68 65 q 63 75 65 71 q 60 84 61 79 q 61 103 58 94 q 62 111 61 109 l 65 117 q 69 123 68 119 q 73 132 71 129 q 81 146 80 142 q 84 151 83 149 l 91 161 q 95 168 94 165 q 99 175 98 174 q 107 195 106 190 q 111 203 109 199 q 116 211 114 206 q 122 220 118 216 q 127 232 123 227 q 134 243 130 237 q 142 260 141 256 q 146 267 144 264 l 157 285 q 161 292 159 289 q 165 298 163 296 q 176 308 174 307 q 180 312 178 309 q 186 318 183 315 q 193 324 189 321 q 197 330 195 328 q 199 335 198 332 q 202 339 201 338 q 209 345 205 342 q 214 348 212 347 q 217 350 216 349 q 231 361 225 358 q 273 397 251 376 q 288 404 283 400 q 296 416 292 407 q 326 435 319 418 q 340 439 336 438 q 345 442 343 441 q 352 449 350 446 q 361 458 354 452 q 370 463 368 461 q 376 467 373 465 q 384 474 380 471 q 391 480 388 477 l 397 487 q 407 492 401 490 q 419 503 414 496 q 427 509 425 507 q 433 514 430 511 q 444 526 439 524 q 449 530 448 529 q 465 545 458 543 q 480 566 477 562 q 484 572 483 570 q 495 591 488 578 q 500 603 498 597 q 506 613 503 609 q 513 623 510 618 q 519 635 515 629 q 524 644 522 640 q 526 651 526 648 q 535 675 532 666 q 541 692 538 684 q 545 706 544 699 q 545 728 547 713 q 547 742 547 736 q 548 753 547 747 q 543 780 545 774 q 538 788 541 785 q 538 801 538 799 q 536 806 537 803 l 525 817 q 509 826 514 822 q 490 838 498 834 q 477 844 483 841 q 465 848 471 846 q 453 853 460 850 q 433 854 446 853 q 407 859 419 856 l 385 853 q 369 849 378 853 q 343 846 351 846 q 328 844 335 845 l 308 837 q 298 829 302 833 q 288 823 293 826 q 283 818 285 821 q 278 812 281 815 q 271 804 274 808 l 260 799 q 254 795 255 796 l 251 792 q 221 760 233 768 q 212 740 216 749 q 202 724 209 731 q 200 715 201 720 q 198 704 199 709 q 195 693 197 699 l 182 673 q 165 659 174 662 q 151 655 155 656 q 145 654 148 654 q 128 653 132 652 q 123 654 125 654 q 104 659 109 655 q 92 674 94 670 q 88 681 90 678 q 83 698 84 694 q 83 703 83 701 q 77 722 77 712 l 85 739 q 90 756 87 746 q 98 773 92 766 q 100 788 98 783 q 103 791 102 791 q 104 798 103 793 q 109 804 107 804 q 119 819 114 811 q 126 838 123 826 q 136 845 134 844 q 138 848 138 846 q 148 861 145 859 q 152 864 151 863 q 157 869 155 867 q 164 873 160 871 q 175 880 174 879 q 176 883 176 882 q 205 905 195 898 q 224 921 214 913 q 233 928 231 925 q 241 935 236 930 q 256 939 250 937 q 273 949 263 941 q 288 951 282 949 q 308 962 294 954 q 323 961 317 959 q 336 960 330 963 q 354 963 346 964 q 368 967 363 966 q 377 970 373 968 q 389 970 384 971 q 399 968 395 970 q 420 970 414 970 q 431 970 426 970 q 443 968 438 970 q 452 966 448 967 l 472 962 q 486 960 479 963 q 499 955 494 958 q 510 953 506 954 q 518 951 514 952 q 536 941 526 947 q 557 930 547 936 q 578 918 568 924 q 593 910 587 913 q 603 895 594 903 q 614 884 612 886 q 623 875 621 878 q 627 871 625 872 q 637 855 635 860 q 640 848 639 850 q 644 837 643 840 q 651 830 644 834 q 654 814 651 819 q 658 811 655 811 l 658 796 q 657 785 658 789 q 658 780 656 781 q 663 764 662 768 q 666 755 665 760 q 665 725 666 746 q 662 694 665 704 q 655 670 661 680 q 652 654 652 659 q 651 646 652 650 l 647 627 l 635 606 q 631 595 633 601 q 623 582 625 585 q 614 566 617 571 q 608 551 610 560 q 597 538 598 541 q 597 528 597 534 q 585 514 589 518 q 579 507 582 510 q 559 481 574 490 q 541 460 544 465 q 534 453 537 456 q 522 441 525 444 q 517 438 519 439 q 512 433 514 435 q 509 427 510 430 q 506 420 506 423 q 496 415 502 418 q 483 404 486 410 q 468 395 472 397 q 461 391 464 393 q 456 385 458 388 q 450 380 453 382 q 437 372 445 374 l 423 365 q 422 360 423 362 q 419 355 420 358 l 415 351 q 410 347 412 349 q 405 344 407 345 q 401 340 403 343 q 391 334 395 338 q 381 323 388 331 q 369 317 373 319 q 362 315 365 316 q 338 304 343 307 q 330 298 332 301 q 310 283 316 288 q 297 274 304 278 q 281 250 290 259 q 275 241 277 244 q 269 228 273 239 q 253 213 255 217 q 248 198 251 209 q 237 190 240 194 q 229 171 235 186 q 222 161 222 167 q 224 156 222 159 q 233 155 228 155 q 247 153 239 153 q 262 156 258 156 q 269 155 266 156 q 288 153 278 157 q 303 154 298 153 q 312 155 308 155 l 328 155 q 347 156 339 156 q 362 156 355 156 q 376 156 369 156 q 385 155 382 156 q 406 160 401 159 q 426 164 423 164 q 437 163 435 163 q 441 161 439 163 q 460 166 449 167 q 477 163 471 165 q 488 164 483 164 q 495 164 492 164 q 513 165 509 164 q 521 165 518 165 q 537 163 529 165 q 547 161 544 161 q 553 161 551 161 q 564 163 556 160 q 571 164 568 164 q 578 163 575 163 l 585 163 q 587 181 587 171 q 586 201 587 191 q 578 236 581 222 q 575 260 576 250 q 571 278 571 273 q 574 296 571 288 q 575 302 575 300 q 579 308 576 305 l 586 315 l 602 327 q 622 332 613 332 q 642 330 631 332 q 653 326 650 327 q 659 323 656 324 q 671 305 667 317 l 684 293 q 692 277 690 283 q 690 259 693 269 q 696 231 694 240 q 697 217 697 222 q 701 194 700 201 q 703 183 703 187 q 705 176 704 179 q 708 168 705 174 l 715 146 z "},"3":{"ha":776,"x_min":58,"x_max":732,"o":"m 730 389 q 726 370 730 380 q 722 350 723 355 q 716 317 716 323 q 714 311 715 315 q 711 301 713 307 q 707 277 708 282 q 705 270 705 273 q 699 253 701 259 q 694 241 697 247 q 688 225 693 233 q 682 209 685 214 q 674 197 680 203 q 665 186 666 189 l 663 183 l 652 170 q 644 153 647 159 q 635 144 642 148 q 621 134 624 137 q 617 129 618 130 q 613 124 614 126 q 609 119 612 122 l 605 115 q 597 111 601 114 q 583 100 589 106 q 572 99 578 100 q 563 96 566 98 q 549 88 562 96 q 538 80 544 84 q 529 73 533 76 l 515 66 q 506 64 510 65 q 495 61 495 61 q 487 57 490 58 q 483 54 484 56 l 480 53 q 461 47 465 47 q 454 46 457 46 q 426 46 438 42 q 395 42 404 39 q 378 43 387 42 q 363 43 370 43 q 349 44 355 43 q 339 45 342 45 q 328 48 331 47 q 324 49 326 49 q 307 54 311 52 q 300 57 302 56 q 281 62 292 64 q 259 68 266 65 q 242 76 248 75 q 225 77 236 77 q 213 89 216 85 q 208 95 210 92 l 201 103 q 195 107 198 104 q 191 113 191 109 q 185 125 186 123 q 183 127 184 127 q 169 140 174 137 q 160 148 164 142 q 152 167 156 157 q 145 179 148 176 q 129 195 136 186 q 125 210 126 206 q 122 217 123 214 q 118 226 119 221 q 117 237 117 231 q 117 250 118 245 q 115 258 117 255 q 118 283 113 269 q 130 300 122 296 q 149 310 144 308 q 157 313 155 312 q 170 311 161 313 q 178 309 174 309 l 197 305 q 203 300 199 302 q 210 293 210 293 q 223 270 221 275 q 225 262 225 264 q 231 250 228 255 q 237 240 235 245 q 243 230 240 235 q 248 221 245 225 q 259 208 256 210 q 264 203 262 206 q 271 197 267 201 q 277 186 274 193 q 289 176 285 180 q 310 171 304 172 q 320 168 316 170 q 346 161 331 167 q 354 159 350 160 q 361 156 358 157 q 380 157 376 157 q 388 155 385 156 q 398 157 395 156 q 404 157 401 157 q 416 156 412 157 q 425 155 420 155 l 427 156 q 432 160 430 157 q 441 167 434 163 q 452 168 449 167 q 457 172 454 170 q 473 174 468 172 q 480 178 477 175 q 510 195 496 183 q 522 205 519 203 q 525 208 524 206 q 540 221 532 217 q 553 236 549 233 q 562 241 557 239 q 571 259 567 255 q 579 276 576 270 q 585 286 582 282 q 588 304 587 298 q 591 312 589 309 q 593 322 593 319 q 594 328 593 326 q 595 342 594 335 q 600 358 595 350 q 602 371 601 368 q 605 377 604 374 q 608 392 605 385 q 613 404 610 399 q 612 419 612 410 q 611 434 612 430 q 609 441 610 438 q 601 468 604 454 q 591 486 594 481 q 585 494 587 490 q 579 507 582 500 q 575 519 576 513 q 564 532 567 530 q 559 536 560 534 q 545 545 548 543 q 540 549 543 547 l 518 552 q 505 558 507 557 q 500 559 502 559 q 480 559 486 557 l 465 562 q 431 563 444 568 q 418 566 420 566 q 414 567 415 567 q 396 567 399 566 l 378 562 q 372 557 376 559 q 365 553 369 555 q 349 549 353 551 q 340 541 346 547 q 328 530 331 533 q 311 518 311 518 q 294 509 297 510 q 289 505 292 507 q 275 496 279 498 q 264 491 270 494 q 253 490 258 490 q 245 491 248 491 q 239 492 243 491 q 232 495 236 494 l 221 498 q 216 507 218 502 q 211 514 213 511 q 208 519 209 517 q 202 537 205 529 q 198 552 199 545 q 199 566 197 559 q 209 583 202 574 q 218 593 216 590 q 224 602 220 595 q 233 606 231 605 q 239 609 236 606 q 252 621 247 617 q 264 635 260 629 q 269 641 267 637 q 275 655 271 644 q 293 667 288 662 q 300 672 297 670 q 307 677 304 674 q 325 690 321 688 q 331 694 328 692 l 343 707 q 357 717 354 715 q 363 722 361 719 q 374 734 369 726 q 385 741 382 741 q 388 742 387 742 q 399 752 396 750 q 403 760 401 754 q 416 765 414 764 q 419 766 418 766 q 433 773 430 772 q 437 776 435 774 q 452 788 446 785 q 457 795 454 792 q 464 803 460 798 q 476 817 473 811 q 487 819 483 818 q 495 823 491 821 q 484 826 488 826 q 476 826 480 826 q 463 825 465 826 q 458 825 461 825 q 442 823 452 822 q 427 826 435 823 q 391 824 404 826 q 362 819 377 822 q 342 822 350 821 q 327 825 334 823 q 315 824 320 825 q 300 821 311 823 q 290 826 294 825 q 275 826 286 827 q 267 825 271 826 q 258 825 262 825 q 240 823 251 823 q 226 821 229 822 q 218 819 222 821 q 210 820 213 819 q 203 821 206 821 q 186 824 189 823 q 182 825 183 825 q 183 810 182 815 q 184 795 186 802 q 182 785 183 789 q 183 769 183 774 q 184 761 183 764 q 186 739 187 750 q 182 725 182 730 q 183 712 182 720 q 167 707 171 708 q 151 697 155 700 q 144 693 146 694 q 137 691 141 692 q 125 690 133 690 q 116 696 118 694 q 111 700 114 699 q 97 709 99 707 q 94 711 95 711 q 82 721 85 718 q 73 731 79 724 q 74 748 75 743 q 73 755 73 753 q 75 772 76 766 q 75 783 75 779 q 73 793 73 788 q 75 804 72 798 q 73 816 73 811 q 72 827 73 821 q 66 848 68 845 q 65 854 65 852 q 60 869 62 863 q 61 887 58 876 q 64 901 64 898 q 64 913 64 905 q 72 921 71 920 q 75 924 73 922 q 87 935 84 933 q 91 937 90 937 q 110 949 102 948 q 123 948 118 951 q 149 944 138 948 q 175 940 168 941 q 184 937 182 939 q 201 936 197 936 q 208 936 205 936 q 224 935 217 936 q 229 937 227 936 q 239 941 232 939 q 249 939 245 939 q 255 939 252 939 q 267 941 259 940 q 281 939 274 941 q 303 942 296 941 q 317 940 311 943 q 339 941 332 943 q 374 935 358 935 q 390 935 382 935 q 404 936 397 936 q 439 940 430 941 q 462 944 449 943 q 481 945 475 945 q 494 944 491 944 q 499 944 496 944 q 509 945 506 944 q 514 945 511 945 q 522 948 518 947 q 533 948 526 949 q 549 943 541 948 q 564 941 562 941 q 568 940 567 940 q 597 943 587 943 q 617 944 608 944 q 632 945 624 944 q 648 947 640 945 q 665 941 656 947 q 678 932 673 936 q 690 922 686 925 q 700 916 693 920 q 701 889 700 898 q 701 871 703 880 q 699 854 701 860 q 692 841 696 848 l 665 814 q 658 807 662 811 q 648 799 654 803 l 636 787 q 624 775 627 777 q 618 773 621 773 q 604 760 608 762 q 598 754 601 757 q 592 749 595 751 q 585 745 589 747 q 579 739 582 741 q 574 734 576 736 q 563 723 566 724 q 559 722 560 722 q 542 705 548 711 q 530 696 536 699 q 522 692 525 693 q 515 689 518 690 q 509 684 510 686 q 503 671 507 681 q 519 669 514 669 q 536 673 524 670 q 550 663 544 665 q 568 662 556 661 q 578 654 575 655 q 590 654 581 654 q 603 646 600 647 q 613 643 606 644 q 621 631 617 635 q 631 621 624 627 q 644 610 637 614 q 654 602 650 605 q 665 591 662 594 q 675 585 669 589 q 678 576 677 578 q 685 570 680 574 q 690 549 688 555 q 700 540 693 544 q 707 513 703 528 q 715 496 712 499 q 720 475 720 487 q 730 442 727 461 q 730 410 732 423 l 730 389 z "},"4":{"ha":726,"x_min":15,"x_max":694,"o":"m 694 144 q 694 121 694 129 q 690 107 693 114 q 687 100 689 104 q 678 77 685 95 q 666 77 667 77 q 663 75 665 76 q 651 65 662 75 q 624 66 628 65 q 608 64 610 64 q 604 64 605 64 q 591 64 597 64 q 579 66 586 64 q 551 69 556 66 q 545 65 548 66 q 534 61 541 64 q 519 64 524 64 q 511 65 514 65 l 496 65 q 477 58 481 58 q 469 58 472 57 q 453 52 458 52 q 445 53 448 52 q 427 53 430 52 l 410 53 q 403 52 407 53 q 389 50 399 52 l 366 64 q 357 75 359 68 q 347 88 354 83 q 346 108 346 102 q 347 121 346 114 l 354 148 q 377 159 370 157 q 425 165 407 168 q 438 170 433 168 q 450 170 444 171 q 456 184 454 182 q 457 190 457 187 q 456 203 456 195 q 457 209 456 206 l 457 216 q 458 227 457 224 q 459 243 458 237 q 460 252 460 248 q 459 273 458 267 q 460 281 460 278 q 458 301 458 294 q 458 315 457 308 q 460 325 460 320 q 460 334 460 330 q 459 343 460 339 q 458 351 458 347 q 457 369 457 359 q 460 389 457 378 q 458 404 458 400 q 457 411 458 407 l 457 427 q 456 437 457 433 q 457 445 456 439 q 460 458 460 453 q 448 460 449 460 q 444 460 446 460 q 425 458 430 458 q 416 458 420 458 q 401 457 406 458 q 391 457 396 456 q 380 456 382 456 q 376 456 378 456 q 359 452 365 453 q 347 449 354 452 q 338 452 340 452 q 332 453 336 453 l 311 453 q 290 452 301 452 q 270 456 279 452 q 238 457 245 457 q 227 457 231 457 q 218 456 222 457 q 210 457 214 456 q 199 455 203 456 q 193 454 195 454 q 180 454 186 454 q 168 454 174 453 q 153 452 157 452 q 145 453 148 452 q 114 445 127 449 q 98 441 107 442 q 80 442 90 439 q 68 446 71 445 q 64 449 65 448 q 46 461 49 458 q 43 465 43 464 q 26 490 30 481 q 20 506 23 499 q 20 541 15 524 q 27 553 23 548 q 34 560 31 557 q 39 570 37 566 q 43 578 41 574 q 52 598 45 590 q 63 619 60 613 q 69 629 66 625 q 78 648 73 637 q 87 666 83 658 q 95 685 92 675 q 104 697 99 692 q 115 711 113 708 q 125 731 117 720 q 129 741 127 736 q 130 754 130 745 q 139 762 137 760 q 142 765 141 764 q 145 770 145 768 q 145 784 145 773 q 154 797 152 793 q 156 803 156 800 q 158 810 157 806 q 161 818 159 814 q 173 848 171 838 q 174 864 175 859 l 176 880 q 186 892 183 888 q 190 897 189 895 q 195 911 193 907 q 198 920 197 916 q 201 927 199 922 q 205 947 202 932 q 229 957 220 954 q 245 960 237 960 q 263 956 256 958 q 285 952 270 955 q 294 935 292 939 q 297 930 296 932 q 302 926 300 928 q 309 920 304 924 q 311 897 313 905 q 305 883 308 888 q 293 861 296 867 q 289 853 290 856 q 284 838 286 844 q 279 826 282 833 q 276 818 277 821 q 278 808 275 815 q 272 793 274 798 q 269 785 270 788 q 262 766 263 770 q 259 758 260 761 q 251 741 258 751 q 250 732 250 736 q 248 724 250 728 q 241 709 245 715 q 233 694 239 700 q 229 682 231 688 q 227 674 228 677 q 224 667 225 669 l 209 635 q 202 623 206 628 q 196 614 199 617 q 191 608 193 610 q 182 582 184 587 q 176 574 179 576 q 193 572 189 571 q 198 572 197 572 q 233 570 224 576 q 250 571 240 570 q 267 574 260 572 q 279 569 274 570 q 290 568 283 568 q 307 570 298 570 q 324 567 315 570 q 334 569 328 568 q 345 568 339 570 l 359 570 l 372 572 q 377 574 374 572 q 382 574 382 574 q 395 572 393 572 q 399 572 397 572 q 410 574 408 574 q 414 574 412 574 q 430 578 419 578 q 442 575 439 575 q 448 574 445 575 q 456 589 454 583 q 460 601 457 594 q 460 610 460 605 q 463 620 460 614 q 462 638 461 632 q 463 648 463 644 q 458 673 460 666 q 457 688 457 681 q 458 702 457 693 q 461 720 458 711 q 458 734 458 727 q 460 746 458 741 q 463 759 463 757 q 464 762 464 761 q 463 775 463 769 q 463 787 463 781 q 465 803 463 792 q 463 826 467 810 q 460 842 463 831 q 459 850 460 845 q 458 859 458 854 q 459 885 460 879 q 456 894 458 891 q 452 905 453 901 q 450 911 450 909 l 453 929 l 460 954 q 466 960 463 956 q 472 967 469 964 q 495 970 487 970 q 510 968 503 970 q 532 959 528 962 q 540 954 537 956 q 545 949 543 951 q 552 943 547 947 q 556 935 555 937 q 566 926 557 933 q 565 911 564 914 q 567 905 566 907 q 566 880 567 884 q 567 876 566 879 q 571 861 568 873 q 568 848 568 852 q 568 844 568 845 q 570 829 571 833 q 570 822 570 825 q 573 804 572 808 q 572 793 574 799 q 575 777 575 779 q 574 765 575 772 q 571 750 574 758 q 573 732 572 736 q 574 720 574 727 q 570 702 571 707 q 570 694 570 697 q 574 680 570 685 q 575 653 575 663 q 575 635 575 643 q 579 600 575 624 q 581 587 581 589 q 585 585 582 585 q 604 587 594 590 q 623 580 617 582 q 635 575 629 578 l 659 567 q 663 557 661 563 q 669 547 669 547 q 673 534 671 540 q 671 521 674 528 q 670 509 671 514 q 666 500 669 505 q 666 496 666 499 q 667 486 666 492 q 652 481 652 481 q 644 475 647 477 q 636 469 642 472 q 625 469 629 469 q 610 464 620 468 q 593 468 593 467 l 578 461 l 578 445 l 575 437 q 572 427 572 429 l 578 399 q 579 388 579 395 q 578 382 579 385 l 578 376 q 576 369 578 369 q 576 351 579 362 q 579 335 579 343 q 579 320 579 327 q 578 302 579 311 q 578 286 578 293 q 578 273 578 275 q 579 267 579 270 q 581 230 579 243 q 581 202 582 217 q 581 194 581 197 q 582 190 582 191 l 582 187 q 592 184 590 184 q 597 183 594 183 q 629 187 613 187 q 652 182 644 187 q 671 174 662 176 q 680 171 677 172 l 685 160 q 694 144 689 152 z "},"5":{"ha":792,"x_min":84,"x_max":746,"o":"m 746 365 q 745 338 746 347 q 742 321 743 328 q 741 311 741 315 q 743 300 741 308 q 732 275 734 281 q 727 252 730 260 q 720 236 724 243 q 715 220 720 228 q 709 206 711 212 q 703 198 707 201 q 700 186 703 191 q 694 178 697 182 q 682 161 684 164 q 677 155 680 157 l 662 140 q 650 132 652 133 q 647 129 648 130 q 641 115 643 118 q 636 111 639 113 q 625 102 628 103 q 618 100 621 100 q 610 91 613 94 q 600 83 606 88 q 587 82 590 83 q 581 80 583 81 q 570 73 575 77 q 553 62 564 69 q 538 62 543 64 q 526 61 533 61 l 510 53 q 490 41 499 46 q 467 33 481 37 q 445 37 458 37 q 425 34 431 37 l 406 31 q 389 33 395 33 q 377 33 382 33 q 365 33 370 33 q 353 35 359 33 q 341 37 343 37 q 336 37 339 37 q 321 39 324 39 q 316 41 317 39 q 290 43 297 41 q 277 47 282 45 q 264 50 267 50 q 259 52 262 50 q 240 62 247 54 q 224 71 228 69 q 214 73 221 73 q 199 83 203 79 l 195 87 l 187 92 q 180 102 180 96 q 159 120 165 115 q 144 134 153 125 q 129 171 132 157 q 120 181 125 175 q 115 195 115 187 q 114 203 114 199 q 113 210 114 208 q 110 216 111 214 q 111 222 111 218 q 113 231 111 229 q 113 238 113 235 q 115 245 114 241 q 134 270 122 259 l 153 273 q 170 274 165 275 q 176 271 174 273 q 203 257 197 262 q 213 250 210 252 q 221 244 218 245 q 229 240 224 243 q 231 226 231 229 q 235 218 232 222 q 241 205 240 208 q 244 201 243 202 q 252 191 251 193 q 254 187 254 189 l 278 168 q 288 165 285 165 q 302 164 292 164 q 313 156 308 157 q 321 152 317 155 q 335 151 328 152 q 349 146 342 149 q 359 149 354 148 q 372 146 365 149 q 385 149 381 148 q 391 149 388 149 q 403 148 401 148 q 406 148 404 148 q 420 152 414 151 q 433 151 426 153 q 441 153 438 152 q 448 153 445 153 q 463 157 456 157 q 484 165 479 164 q 492 168 490 167 q 507 173 503 172 q 514 175 511 174 q 529 184 525 182 q 536 187 533 186 q 557 205 543 199 q 566 214 562 210 q 572 221 570 218 q 581 235 575 232 q 586 236 583 236 q 591 245 589 240 q 595 252 594 248 q 600 255 597 255 q 608 275 605 267 q 611 283 610 279 q 614 289 612 286 q 616 304 613 294 q 620 320 618 316 q 623 327 621 324 q 624 342 623 336 q 623 354 621 349 q 625 366 624 359 q 623 378 624 373 q 623 387 623 382 q 621 401 623 396 q 621 410 621 406 q 614 420 620 414 q 614 429 614 426 q 613 435 613 433 l 613 438 q 606 454 608 450 q 601 460 604 457 q 584 476 589 471 q 576 486 579 481 l 560 498 l 552 502 q 542 507 548 505 q 529 511 536 509 q 513 517 517 515 q 507 518 510 518 q 494 522 499 521 q 475 524 490 524 q 461 532 464 530 q 456 533 458 533 q 414 534 433 536 q 384 526 395 533 l 361 526 q 336 521 349 521 q 318 513 323 515 q 311 509 313 510 q 297 502 302 503 l 285 491 q 269 486 274 488 q 262 483 264 484 q 251 477 254 479 q 245 472 248 475 q 227 461 235 467 q 220 457 222 458 q 208 452 213 454 q 194 446 194 446 q 170 435 178 437 q 152 434 163 433 q 138 439 142 438 q 132 442 134 441 q 121 448 126 445 q 113 456 115 450 q 104 476 106 469 q 100 488 102 483 q 97 497 98 495 q 92 505 96 499 q 95 517 95 515 q 94 522 95 519 q 92 545 90 534 q 93 566 94 555 q 92 585 92 578 q 94 594 94 591 q 94 601 94 597 q 96 613 96 609 q 96 620 96 617 q 95 642 95 636 q 96 651 95 647 q 98 681 96 675 q 96 703 103 689 q 97 717 98 713 q 96 722 96 720 q 93 734 94 730 q 94 743 92 738 q 94 761 95 755 q 94 772 94 766 q 95 788 94 780 q 96 804 96 796 l 94 821 q 92 833 92 827 l 92 836 q 89 849 90 842 q 88 861 88 856 q 87 871 88 868 q 84 883 87 875 q 94 897 94 895 q 103 911 99 907 q 122 926 109 918 q 136 924 133 924 q 141 924 138 924 q 157 932 155 930 q 161 933 160 933 q 178 940 171 937 q 194 940 186 943 q 213 941 203 944 q 222 941 218 941 q 232 939 227 940 q 250 939 244 939 q 259 940 255 940 q 279 941 274 941 q 290 940 285 940 q 304 943 301 943 q 315 947 308 944 q 345 940 335 940 q 360 943 354 943 q 369 944 366 943 q 373 945 373 944 q 383 947 380 947 q 392 947 387 947 q 405 950 400 949 q 416 949 410 951 q 475 951 456 945 q 500 949 490 948 q 519 951 510 949 q 540 955 530 954 q 560 959 549 956 l 582 959 q 605 959 593 963 q 623 951 617 955 q 634 944 629 948 q 642 937 639 940 q 659 901 656 914 q 661 876 662 888 q 662 861 662 865 q 662 850 662 856 q 664 831 663 838 q 663 821 665 825 q 668 798 667 803 q 669 792 669 793 q 671 783 670 785 q 673 777 673 780 l 673 774 l 673 764 q 673 756 673 760 q 674 751 674 753 q 673 731 677 742 q 666 718 667 720 q 663 713 665 716 q 637 697 648 703 q 616 690 625 692 q 597 691 606 689 q 578 697 589 693 q 572 712 574 711 q 564 722 566 716 q 559 731 562 727 q 557 736 557 734 q 555 741 556 738 q 553 746 553 743 q 552 755 552 750 l 552 766 q 550 795 552 784 q 548 815 548 806 q 547 833 548 830 q 525 832 533 833 q 510 834 517 831 q 486 832 494 833 q 472 831 479 831 q 456 830 467 830 q 448 829 452 829 q 439 830 444 830 q 424 827 429 829 q 414 826 419 826 q 396 831 407 826 q 387 832 391 831 q 377 831 382 833 q 371 831 373 831 q 363 825 369 830 l 349 826 q 340 824 343 825 q 331 823 338 823 q 319 825 321 826 q 315 825 317 825 q 295 825 304 823 q 275 826 286 826 q 266 825 269 825 q 260 825 263 825 q 243 825 254 822 q 234 823 239 823 q 227 823 229 823 q 219 824 222 823 q 212 825 216 825 q 210 802 210 810 q 208 785 209 793 q 207 777 206 780 q 212 766 208 773 q 209 739 208 750 q 212 726 209 732 q 214 705 213 713 q 216 692 216 699 q 214 685 216 685 q 214 675 213 677 q 217 670 214 673 q 216 661 216 665 q 217 654 217 656 q 218 648 217 650 q 217 640 218 644 q 216 629 214 631 l 212 591 q 222 597 217 595 q 239 604 227 600 q 251 613 241 609 q 267 616 260 616 q 277 618 273 617 q 342 643 316 639 q 355 645 351 644 q 361 647 358 646 q 382 646 373 650 q 387 647 384 646 q 395 650 391 648 l 406 652 l 422 651 q 441 654 431 654 q 460 647 452 654 q 473 650 469 650 q 480 650 477 650 l 492 650 q 499 648 496 650 q 505 647 502 648 q 511 643 510 644 q 522 637 518 639 q 529 633 526 636 q 551 627 543 633 q 564 623 559 625 q 574 618 570 621 q 589 612 586 613 q 595 609 593 610 q 621 593 614 598 q 631 586 628 589 q 640 582 635 585 q 650 572 646 579 q 673 559 665 564 q 682 547 680 552 q 686 540 684 543 q 700 520 697 525 q 705 511 703 515 q 711 505 705 510 l 715 500 l 718 490 q 720 481 719 486 q 722 476 720 477 q 727 468 722 473 q 731 461 730 464 l 731 454 q 732 449 731 452 q 732 445 732 446 q 741 425 738 437 q 742 401 743 407 q 743 389 742 395 q 743 378 743 382 l 746 365 z "},"6":{"ha":818,"x_min":18,"x_max":789,"o":"m 789 335 q 785 317 785 320 q 783 301 783 307 q 783 290 784 296 q 779 275 781 283 q 779 270 779 273 q 783 256 780 267 q 776 248 777 250 q 774 243 774 245 q 772 224 773 228 q 770 220 772 221 q 765 205 766 208 q 762 199 764 202 q 753 186 755 189 q 749 182 751 183 l 739 165 q 726 149 735 159 q 708 132 718 138 q 701 122 703 125 q 694 111 699 119 q 684 107 686 109 q 677 98 681 106 q 667 94 669 95 q 662 91 665 94 q 652 82 655 85 q 647 76 650 79 q 637 68 643 72 q 621 60 632 64 q 607 55 612 57 q 600 52 602 53 q 594 49 595 49 q 583 47 589 47 l 572 47 q 534 33 551 33 l 499 26 q 479 22 484 23 q 468 20 473 20 q 457 19 460 19 q 453 19 454 19 q 425 18 434 18 q 411 19 416 19 q 404 18 407 19 q 396 16 400 18 q 381 14 387 14 q 372 14 376 14 q 363 12 366 12 q 355 8 361 11 q 332 17 340 15 q 317 20 323 19 q 307 25 312 23 q 298 28 302 27 q 288 27 293 27 q 275 31 282 27 q 266 35 270 34 q 259 38 262 37 q 243 44 247 42 q 236 47 239 46 q 222 54 225 53 q 214 53 218 54 q 198 68 201 66 q 183 73 193 73 q 176 85 178 83 q 174 88 175 87 q 161 96 167 92 q 152 104 155 99 q 137 115 141 110 q 130 127 133 121 q 117 151 121 144 q 110 164 113 159 q 105 171 107 168 q 99 178 103 174 q 94 191 96 187 q 91 197 92 194 q 79 212 83 205 q 73 225 76 218 q 70 234 71 229 q 68 243 69 239 q 60 260 62 248 q 53 275 53 274 q 46 294 46 289 q 41 317 43 309 q 31 336 38 324 q 33 347 34 343 q 28 355 31 350 l 28 374 q 24 381 27 374 q 23 387 23 384 q 22 395 22 391 l 22 406 q 21 417 22 414 q 19 425 20 420 q 18 441 18 430 q 22 457 18 449 q 22 488 22 477 q 23 510 22 499 q 18 526 19 521 q 18 537 18 530 q 21 547 20 544 q 23 552 22 549 q 27 571 26 566 q 31 582 28 576 q 42 625 34 602 q 57 663 50 647 q 61 679 60 670 q 64 692 62 688 l 73 707 q 76 715 75 712 q 80 730 77 719 q 90 743 87 738 q 98 754 92 749 q 113 783 107 774 q 122 796 118 791 l 129 810 q 134 819 132 815 l 146 831 q 156 838 151 834 q 167 846 164 844 q 175 857 174 854 q 179 863 176 860 q 179 865 178 863 q 183 869 180 867 l 189 875 l 202 884 q 212 888 206 886 q 224 894 222 894 l 240 902 q 250 911 248 909 q 254 916 251 913 q 265 920 263 918 q 270 925 267 922 q 286 925 282 924 q 292 929 289 926 q 306 938 298 933 q 324 943 313 943 q 351 954 343 952 q 365 956 359 956 q 381 963 372 963 q 387 967 385 966 q 396 975 389 968 q 408 972 406 972 q 412 972 411 971 q 428 977 423 975 q 437 978 433 978 q 454 977 449 978 q 471 977 465 977 q 483 978 476 978 q 495 979 488 978 q 509 978 502 979 q 521 972 519 972 q 524 971 522 971 l 585 954 q 592 920 591 930 q 590 903 593 910 q 587 894 589 899 q 581 873 585 888 l 541 865 l 525 873 q 500 876 507 875 q 486 880 492 878 q 474 879 479 879 q 465 879 469 879 q 448 876 453 878 q 438 872 444 875 q 429 871 433 871 q 422 871 425 872 q 397 867 403 868 q 388 865 391 865 l 370 853 q 359 850 363 850 q 350 848 354 849 q 323 834 331 837 q 309 829 316 831 q 297 817 307 825 q 282 812 285 814 q 277 810 279 811 q 270 802 273 806 q 263 793 267 799 q 248 784 252 787 q 240 779 244 781 q 229 766 231 769 q 225 762 227 764 q 210 747 213 750 q 206 742 208 745 q 195 722 202 730 q 191 711 193 716 q 187 704 190 707 l 172 674 l 161 651 l 148 623 q 146 602 148 609 q 135 565 140 583 q 130 537 130 547 q 139 550 134 544 q 146 560 144 556 q 155 567 151 566 l 163 575 q 174 583 171 583 q 190 600 183 595 q 213 614 205 613 q 229 626 224 623 q 237 632 233 629 q 264 650 252 643 q 279 662 277 656 q 311 673 294 669 q 338 680 327 678 q 354 688 347 686 l 380 686 l 397 686 q 413 690 407 689 q 423 693 419 692 q 431 694 429 693 q 438 697 433 694 q 449 695 446 694 q 454 696 452 696 q 463 698 457 697 q 473 700 468 699 q 486 701 479 701 l 506 700 q 515 694 510 697 l 529 688 q 548 678 540 685 q 564 674 557 675 q 573 671 571 671 q 582 671 575 671 q 592 665 589 666 q 598 662 595 663 q 616 656 606 661 q 627 648 623 651 q 633 642 631 646 q 647 635 644 636 q 650 632 650 633 q 665 623 659 628 q 673 615 671 617 q 678 610 675 613 q 687 603 684 605 q 693 598 690 601 q 701 591 699 595 q 709 583 704 587 q 720 572 718 575 q 724 567 723 570 q 738 548 732 559 q 747 536 745 540 q 755 528 749 533 q 756 511 755 514 q 764 502 757 509 q 769 477 762 492 q 775 465 772 471 q 781 456 779 460 q 779 437 779 444 q 783 423 780 430 q 785 414 785 419 q 785 406 785 410 l 785 389 q 785 373 785 380 q 787 359 785 366 q 784 339 787 347 l 789 335 m 673 392 q 670 408 671 401 q 667 418 669 414 q 663 427 666 422 q 656 438 661 431 q 658 452 658 449 q 658 458 658 456 q 653 470 655 467 q 642 483 651 473 q 636 498 639 494 q 631 509 633 503 q 621 522 623 519 q 617 528 618 525 q 606 531 609 530 q 601 533 604 532 q 589 544 591 537 q 574 557 578 555 q 570 563 571 560 q 549 567 562 564 q 534 574 540 571 q 526 578 529 576 q 506 585 511 583 q 498 589 500 587 l 481 593 q 471 591 476 591 q 460 591 467 590 q 450 587 454 589 q 438 587 445 586 l 422 587 q 404 582 418 585 q 392 584 396 585 q 385 583 388 583 q 370 580 373 581 q 366 579 368 579 q 351 571 361 574 q 325 557 336 562 q 307 551 313 553 l 288 532 q 280 528 282 529 q 275 525 278 526 l 273 524 q 263 515 264 517 q 260 514 262 514 q 250 496 252 502 q 233 481 243 486 q 227 473 231 477 q 220 465 224 468 q 218 452 218 456 q 216 444 218 449 q 205 427 209 434 q 194 410 201 420 q 190 401 191 404 q 186 395 189 399 q 181 383 183 387 q 178 377 179 380 q 170 356 172 368 q 168 342 168 345 q 169 326 168 331 q 170 316 170 321 q 167 304 168 309 q 164 294 165 300 l 175 277 q 179 264 178 267 q 182 259 180 262 q 196 235 191 244 q 203 217 201 227 q 210 207 209 209 q 213 203 212 205 q 231 183 227 191 q 238 175 236 176 q 244 172 240 174 q 254 160 251 163 q 258 157 256 157 l 298 134 q 319 129 312 134 q 332 123 330 125 q 336 121 335 122 l 404 121 q 414 120 410 121 q 425 119 419 119 q 439 122 433 122 q 464 126 463 126 q 484 131 479 130 q 494 132 490 132 q 504 136 498 134 q 517 140 510 137 q 533 144 525 142 q 545 148 541 146 q 563 156 559 156 q 578 169 570 163 q 593 178 586 175 q 609 191 606 187 q 614 195 612 194 q 627 206 617 198 l 644 225 q 658 254 650 244 q 665 278 663 269 q 665 300 666 288 q 668 314 667 311 q 669 321 669 317 q 669 336 670 332 q 667 343 667 339 q 671 362 667 351 q 671 380 670 372 l 673 392 z "},"7":{"ha":757,"x_min":37,"x_max":726,"o":"m 724 890 q 715 863 718 876 q 713 848 713 850 l 707 834 q 692 814 694 818 q 689 804 690 811 l 677 781 q 669 764 670 768 q 663 741 665 746 q 648 708 661 720 q 636 680 642 686 l 628 659 q 621 648 624 654 l 616 637 q 610 628 610 631 q 608 624 609 625 q 605 616 608 621 q 602 609 604 612 l 600 604 q 597 599 598 601 q 594 594 595 597 q 589 585 591 590 q 583 575 587 581 q 578 562 579 564 q 578 557 578 559 l 570 543 q 567 536 568 540 q 564 529 566 532 l 562 521 l 559 515 q 556 506 556 510 q 547 498 549 499 q 544 495 545 496 q 526 467 533 473 q 515 444 521 452 q 506 422 511 430 q 498 406 499 410 q 495 399 496 401 q 492 392 494 396 q 488 384 491 388 l 483 373 q 479 368 480 369 l 476 359 q 472 353 473 353 q 461 332 468 340 l 441 297 l 433 277 q 421 260 425 266 q 415 252 418 255 q 408 233 411 241 q 399 218 404 225 q 392 198 395 203 q 384 189 389 193 q 378 174 378 178 q 376 167 377 170 q 370 148 376 156 q 364 128 366 133 q 361 121 362 123 q 352 103 354 106 q 349 98 350 100 q 342 81 347 92 q 330 53 342 62 q 305 20 320 45 q 265 20 281 18 q 231 30 250 23 q 226 39 228 37 q 216 43 224 41 l 216 58 q 213 74 213 66 q 218 88 213 81 q 232 127 228 107 q 239 140 239 138 q 240 144 240 142 q 244 157 240 152 q 251 165 248 163 q 256 190 254 180 q 267 206 259 199 q 272 218 269 213 q 278 225 275 222 q 285 244 282 236 q 290 259 288 252 q 305 286 297 274 q 308 294 307 289 q 313 302 309 298 l 317 319 q 324 325 320 320 q 328 336 328 330 l 343 355 q 349 370 349 368 q 356 382 355 380 q 355 387 357 384 q 372 404 368 397 q 380 418 377 411 q 383 426 382 422 q 387 433 384 430 q 403 467 400 460 q 408 477 407 475 q 408 484 408 480 q 413 496 412 492 q 416 502 414 499 q 420 511 419 509 q 420 518 420 514 q 430 532 429 530 q 437 545 435 543 q 439 547 438 547 q 447 558 445 555 q 452 564 449 562 l 460 582 q 469 591 467 589 q 472 595 471 594 q 479 620 472 609 q 488 633 480 625 q 498 655 494 651 q 503 670 500 665 q 509 681 506 675 l 517 697 q 526 717 524 711 q 530 726 529 723 q 536 742 534 731 q 544 748 543 746 q 547 753 545 750 q 551 763 549 758 q 555 772 552 768 q 559 783 559 781 q 562 788 560 785 q 564 799 562 791 l 567 807 q 571 815 570 811 q 575 825 574 823 q 582 842 578 837 q 570 843 574 844 q 563 842 566 842 q 553 840 556 840 q 547 840 549 840 q 526 838 532 838 q 517 840 521 838 q 499 837 511 837 q 473 840 480 840 q 458 840 467 840 q 448 840 452 840 q 439 842 444 841 q 424 840 429 841 q 416 840 419 840 l 392 840 q 369 840 377 841 q 353 838 361 838 q 340 839 346 838 q 327 840 334 840 q 319 840 324 840 q 308 841 313 840 l 285 841 q 264 842 270 842 q 256 841 259 841 q 243 841 245 841 q 239 840 240 841 q 212 837 220 837 q 197 834 203 837 q 182 835 186 836 q 175 831 179 834 q 169 819 168 823 q 172 806 170 815 q 169 793 170 798 q 167 787 168 789 q 170 770 170 776 l 170 764 q 172 754 171 760 q 173 749 172 751 q 174 746 174 747 l 174 743 l 174 727 q 135 692 157 705 q 83 686 113 680 q 75 699 77 697 q 66 700 73 700 l 53 730 q 53 747 52 742 q 50 757 53 751 q 49 762 49 760 q 50 768 49 765 q 53 776 53 773 q 50 791 50 783 q 52 810 49 799 q 46 835 49 822 q 43 857 43 848 q 38 871 41 860 q 37 880 37 876 q 38 891 38 886 q 38 899 38 895 q 39 906 38 903 q 45 917 39 906 q 50 926 47 921 q 61 929 56 928 q 77 932 72 932 q 82 934 80 933 q 91 939 84 935 q 106 937 103 936 q 110 937 109 937 l 130 939 q 159 940 142 943 q 176 943 170 944 q 199 945 190 945 q 214 945 208 945 l 233 945 q 249 949 241 948 q 263 951 256 949 q 276 951 270 952 q 289 949 282 951 q 300 952 296 952 q 311 952 305 952 q 319 949 315 951 q 328 947 324 948 q 351 948 343 952 q 361 947 358 948 q 368 947 365 947 q 384 949 378 949 q 393 948 389 949 q 407 951 400 951 q 419 949 414 951 q 444 952 434 952 q 464 951 454 952 q 477 949 475 949 q 483 949 480 949 l 491 952 q 499 956 495 954 l 511 956 q 532 958 518 958 q 541 958 536 958 q 551 955 545 958 q 600 956 576 963 q 613 958 610 958 q 617 958 616 958 q 633 962 624 960 q 650 959 642 964 q 669 957 662 958 q 682 952 675 956 q 690 950 685 952 q 701 945 696 948 q 713 939 707 941 q 718 926 715 932 q 721 917 720 921 q 723 911 722 913 q 725 903 724 907 q 724 890 726 898 z "},"8":{"ha":788,"x_min":23,"x_max":761,"o":"m 761 297 q 758 288 760 293 q 757 279 757 283 q 757 274 757 275 q 755 250 755 267 q 749 235 750 237 q 747 231 747 232 q 736 202 743 209 q 730 184 730 186 q 727 175 730 184 q 723 168 724 171 q 722 164 723 165 q 718 161 719 161 q 713 151 715 155 q 707 144 711 146 q 702 132 703 133 q 699 122 701 132 l 688 111 q 677 107 681 110 q 673 104 674 104 l 652 95 q 642 88 646 90 q 636 84 639 87 q 624 79 625 80 q 620 76 623 79 q 606 69 608 71 q 602 66 604 68 q 593 61 600 65 q 576 60 582 61 q 563 56 570 58 q 549 51 556 53 q 530 45 541 49 q 517 43 519 43 q 511 42 514 43 q 505 41 507 41 q 499 39 502 41 q 496 37 496 38 l 488 37 q 482 37 486 37 q 477 38 479 38 q 439 37 456 37 q 407 34 422 37 q 391 27 399 34 q 365 28 373 27 q 350 30 357 28 q 342 32 346 31 q 335 34 339 33 q 324 32 327 33 q 319 28 321 31 q 290 35 300 35 q 277 37 283 37 q 262 39 270 37 q 249 43 251 42 q 245 43 247 43 q 223 45 231 43 q 213 47 216 46 q 198 52 201 52 q 194 54 195 53 q 177 60 182 58 q 170 62 172 61 q 163 62 167 61 q 157 62 160 62 l 149 62 q 142 66 145 64 q 138 70 140 69 q 136 72 136 71 l 119 79 q 107 90 110 85 q 98 98 102 94 q 91 104 94 102 q 81 114 84 111 q 75 119 77 117 q 66 137 68 132 q 61 145 64 142 q 45 168 49 160 q 42 183 42 176 q 39 189 41 186 q 37 198 38 193 l 30 232 q 24 254 23 244 q 30 271 26 264 q 33 281 33 278 q 30 292 33 283 q 40 302 35 297 q 38 313 45 308 q 45 332 41 323 q 52 347 49 340 q 57 364 53 357 q 65 377 61 372 q 71 395 69 389 q 84 411 80 406 q 91 420 88 416 q 100 431 95 426 q 110 441 104 437 q 121 454 114 449 q 132 463 130 461 q 136 471 133 465 q 149 481 145 477 q 157 490 152 484 q 146 502 151 498 q 138 510 141 506 q 117 532 123 526 q 100 545 111 537 q 98 556 99 553 q 96 560 98 559 q 88 570 91 567 q 83 578 85 572 q 80 598 80 591 q 79 610 80 605 q 74 633 76 627 q 71 643 72 640 q 69 662 69 648 q 72 669 71 667 q 73 674 73 671 l 73 677 q 71 700 73 686 q 71 713 71 705 q 77 730 72 722 q 81 739 79 735 q 84 743 83 742 q 88 754 87 750 q 91 761 90 758 q 92 765 92 764 q 92 770 92 768 q 95 780 92 773 q 104 795 100 791 q 113 809 111 806 q 115 814 114 812 q 127 829 118 825 l 138 840 q 150 853 146 849 q 156 860 153 857 q 161 866 159 863 q 165 879 163 869 q 174 883 171 880 q 180 888 178 886 q 183 894 183 891 q 194 898 189 895 q 202 903 198 901 q 209 911 206 906 q 221 915 213 911 q 238 922 229 918 q 254 930 247 926 q 264 937 262 935 q 291 942 273 937 q 313 949 309 947 q 339 954 334 954 q 353 962 349 960 q 363 963 358 963 q 394 972 378 970 q 422 972 410 974 q 440 972 433 972 q 453 971 448 972 q 462 973 458 974 q 471 972 465 972 q 477 973 473 974 q 487 975 480 972 q 498 968 495 968 q 509 971 502 968 q 519 965 517 964 q 525 963 522 966 q 530 963 528 963 q 540 960 533 963 q 549 955 547 956 q 555 952 552 954 q 582 933 571 947 l 612 918 q 624 913 618 916 q 636 910 629 911 q 643 902 640 903 q 650 898 646 901 q 658 885 656 887 q 661 880 659 883 q 670 868 667 873 q 675 856 673 863 q 684 842 682 845 q 685 838 685 840 q 689 823 689 830 q 697 804 696 807 q 699 799 699 800 q 702 787 701 791 q 701 780 703 783 q 705 771 703 776 q 709 762 707 766 l 715 751 l 715 735 q 715 721 715 728 q 718 709 715 713 q 713 697 715 699 q 712 694 712 696 q 709 681 709 684 q 709 675 709 678 q 708 652 709 659 q 704 637 707 644 q 701 628 701 632 q 700 621 701 624 q 694 596 701 606 q 680 582 686 586 q 671 566 673 570 q 666 559 669 562 l 646 530 q 633 514 633 513 q 636 509 632 511 q 644 503 640 507 q 655 498 651 500 q 662 494 659 496 q 668 490 666 491 q 677 486 670 488 q 682 475 680 477 q 692 471 684 473 q 694 463 693 467 q 699 456 696 460 q 701 448 700 452 q 703 439 703 444 q 715 425 712 430 q 723 416 722 418 q 726 412 724 414 l 730 408 q 732 404 731 406 l 735 399 l 738 393 q 742 387 741 391 q 747 377 743 384 q 748 364 747 368 q 750 358 749 361 q 753 349 750 354 l 755 343 l 755 334 q 756 326 755 330 q 757 321 757 323 q 758 305 757 311 q 761 297 760 300 m 597 711 l 597 732 q 590 753 590 742 q 587 764 587 761 q 586 770 586 768 q 578 794 582 785 q 572 810 575 803 q 562 819 567 814 q 552 830 556 823 q 538 837 547 831 q 531 841 534 840 q 524 844 528 842 q 510 850 517 846 q 502 854 506 853 l 477 863 q 460 859 463 859 q 443 859 446 859 q 437 860 439 859 q 421 863 425 864 q 411 859 418 863 q 397 861 403 861 q 385 857 392 860 q 377 854 381 854 q 370 852 373 853 q 358 848 361 849 q 353 848 355 848 q 338 844 342 845 q 332 840 335 842 q 312 831 324 836 q 301 829 305 830 q 294 829 297 829 q 275 819 289 825 q 262 804 266 810 q 251 792 258 802 q 237 781 240 784 q 231 772 233 779 q 210 752 214 757 q 202 745 205 747 q 194 730 195 734 q 193 724 193 727 q 191 705 191 720 q 184 690 186 694 q 182 682 183 685 q 183 675 182 678 q 189 665 184 673 q 184 651 184 654 q 187 646 184 648 q 191 627 190 631 q 193 621 191 624 q 204 606 201 610 q 209 598 208 601 q 224 585 220 590 q 235 576 231 581 q 244 570 240 572 q 255 563 247 567 q 264 559 259 560 q 271 555 267 557 q 281 549 279 549 q 298 544 294 545 q 305 543 301 543 q 322 538 316 540 q 332 536 328 537 q 345 536 342 536 q 353 537 349 537 q 376 539 368 538 q 388 540 385 540 q 401 538 399 538 q 404 538 403 538 q 424 542 411 541 q 449 549 437 543 q 475 553 467 551 q 488 557 484 555 q 493 560 492 559 q 496 564 494 562 q 511 571 507 568 q 517 576 514 574 q 532 582 524 579 q 543 593 537 587 q 555 602 549 598 q 561 610 559 608 q 566 616 563 613 q 574 627 572 625 q 579 632 576 629 q 582 639 581 635 q 586 647 583 643 q 592 666 591 659 q 591 688 593 673 q 596 699 595 694 q 597 711 597 704 m 647 302 q 642 312 644 307 q 640 324 640 317 q 637 337 637 334 q 635 345 636 340 q 628 359 631 349 q 614 377 621 368 q 602 397 608 387 q 587 410 591 401 q 575 416 579 415 q 564 419 571 418 q 544 423 549 422 q 536 426 538 425 q 522 429 528 429 q 510 433 517 430 q 490 434 495 433 q 461 435 473 435 q 438 433 449 434 q 415 429 427 430 q 392 427 403 429 q 374 428 377 429 q 365 427 370 427 q 330 433 347 433 q 302 431 313 433 q 292 431 297 431 q 283 431 288 430 l 267 423 q 254 415 260 419 q 241 407 248 411 q 234 402 237 404 q 227 399 231 400 q 213 388 216 392 q 208 373 210 384 q 193 362 197 365 q 187 357 189 359 q 179 343 182 346 q 174 340 176 340 q 169 329 171 331 q 165 326 167 327 q 160 313 160 312 q 160 311 159 311 q 155 288 156 292 q 151 281 153 283 q 144 270 145 273 q 141 264 142 267 q 140 253 140 255 q 140 248 140 251 q 141 225 142 235 q 160 193 153 209 q 181 182 175 186 q 190 174 187 178 q 212 165 205 167 q 224 161 220 164 q 252 151 244 153 q 262 149 259 149 q 276 149 271 149 q 283 146 281 148 q 307 140 297 142 q 324 138 316 138 q 341 140 332 138 q 363 145 350 141 q 381 142 378 142 q 385 141 384 141 q 397 144 393 144 q 406 146 401 145 q 424 146 419 145 q 431 146 429 146 q 441 148 435 148 q 452 145 446 148 q 463 151 460 151 q 472 155 467 152 q 486 155 481 156 q 494 153 491 155 q 511 156 500 156 q 523 159 521 159 q 526 161 525 160 q 539 166 536 165 q 545 167 543 167 l 559 175 q 582 184 575 182 q 593 190 589 187 q 602 197 600 195 q 605 201 604 199 q 620 218 613 212 q 622 223 620 221 q 627 228 624 225 l 632 233 l 642 258 q 646 278 646 270 l 646 286 q 647 294 647 290 l 647 302 z "},"9":{"ha":765,"x_min":4,"x_max":743,"o":"m 743 631 q 740 620 741 623 q 739 614 739 617 q 741 600 741 604 q 741 591 741 595 q 736 572 738 581 q 734 553 735 564 q 728 534 734 545 q 722 507 724 513 q 718 486 719 492 q 718 476 718 480 q 716 458 716 464 q 715 449 716 453 q 707 417 709 426 q 701 403 704 408 l 694 384 q 692 374 694 381 q 684 361 690 366 q 680 349 681 351 q 680 345 680 347 q 669 330 670 335 q 665 322 666 327 q 659 313 663 317 q 654 294 656 298 q 650 286 651 289 q 648 283 650 285 q 646 279 647 282 l 642 275 q 640 270 640 273 q 637 266 637 266 q 629 255 632 259 q 624 248 627 251 q 616 238 617 240 q 614 235 616 236 q 610 223 612 228 q 605 213 609 218 q 586 198 593 202 l 579 182 q 564 170 567 174 q 557 163 560 167 q 536 145 545 152 q 528 132 532 141 q 504 111 513 117 q 486 102 495 104 q 476 96 480 99 q 468 90 472 92 q 460 83 464 87 q 452 69 457 79 q 434 65 434 65 q 427 62 430 64 q 414 50 423 60 q 403 47 406 49 q 393 37 400 45 q 379 38 382 38 q 374 37 376 38 q 349 21 358 22 q 335 23 340 20 q 305 31 313 23 q 294 35 298 34 q 286 38 289 37 q 273 44 281 41 q 260 57 266 47 q 257 64 258 62 q 251 72 256 65 q 262 96 256 90 l 282 117 q 297 122 290 119 q 309 126 304 125 q 316 129 313 127 l 334 138 q 350 146 340 138 q 359 156 359 153 q 384 168 377 163 q 396 176 391 172 q 406 184 401 180 q 418 191 411 189 q 428 203 425 201 q 434 206 431 206 q 443 214 441 213 q 445 217 445 216 q 454 224 450 221 q 461 229 457 227 q 469 240 465 236 q 475 247 472 244 q 491 266 487 262 q 498 273 495 270 q 518 296 509 288 q 529 311 522 304 q 532 319 532 317 q 533 328 532 321 q 541 337 540 335 q 541 342 541 339 q 551 356 547 350 q 560 365 555 362 q 566 378 564 372 q 571 391 568 385 q 576 402 574 396 q 585 415 579 408 q 574 418 578 419 q 564 416 570 418 l 533 401 q 523 395 526 397 q 517 391 519 392 q 499 385 509 385 q 460 362 465 374 q 430 358 435 357 q 414 355 415 357 q 398 352 403 353 q 389 351 393 351 q 379 351 384 351 q 369 353 374 350 l 336 353 q 326 350 334 353 l 317 347 l 311 347 l 307 347 q 304 349 305 347 q 294 348 298 347 q 286 349 290 349 q 267 351 271 350 q 258 355 262 353 q 236 362 237 361 q 224 367 227 366 q 221 368 222 368 q 209 366 213 366 q 202 366 205 366 q 191 371 197 369 q 179 377 184 373 q 164 384 165 382 q 146 392 153 387 q 127 399 136 395 q 111 411 118 404 q 96 425 99 420 q 90 433 92 429 q 79 444 83 438 q 72 453 75 449 q 65 461 68 460 q 57 465 62 463 q 51 477 52 476 q 49 480 50 479 q 45 496 45 486 q 37 514 41 507 q 31 528 34 521 q 28 536 28 533 q 28 543 28 540 q 24 559 24 556 q 22 564 23 562 q 14 584 15 581 q 12 590 14 587 q 5 606 7 601 q 4 616 4 610 q 7 633 4 623 q 9 645 9 643 q 7 651 9 647 q 13 671 11 666 q 16 680 15 677 q 25 701 23 696 q 27 712 27 705 q 29 728 28 720 q 34 742 30 735 q 37 755 37 753 q 39 758 38 757 q 45 778 43 773 q 49 785 47 783 l 65 807 q 87 836 69 825 q 99 854 92 849 q 113 875 110 871 q 118 880 117 879 q 120 885 119 883 q 125 894 121 887 q 143 906 138 901 q 155 920 148 911 q 165 922 163 921 q 170 922 168 922 q 194 939 187 936 q 203 944 201 943 q 208 947 205 945 q 229 957 218 955 q 245 959 239 959 q 260 964 256 960 q 269 966 266 966 q 274 967 271 966 q 277 968 277 967 l 279 970 q 288 972 282 970 q 297 977 293 974 q 308 977 302 975 q 327 982 316 977 q 344 976 338 977 q 357 975 350 975 q 374 977 366 977 q 391 972 382 977 q 412 970 399 972 q 431 971 422 968 q 448 967 442 968 q 457 964 453 966 q 465 962 461 963 q 472 960 468 962 l 488 960 q 501 956 498 956 q 509 959 505 956 q 517 950 515 952 q 519 948 518 948 q 532 945 529 945 q 541 945 536 945 q 563 933 553 940 q 600 920 586 933 q 614 903 608 907 q 628 895 620 898 q 636 885 635 887 q 639 882 637 883 q 666 844 658 859 q 678 817 674 830 q 685 802 682 807 q 690 791 688 796 q 699 780 694 785 q 709 762 703 774 q 713 753 711 755 q 722 747 715 750 q 722 732 722 735 q 723 727 723 730 q 726 710 724 715 q 732 701 728 705 q 734 677 732 688 q 741 652 736 667 q 738 641 738 643 q 738 637 738 639 l 743 631 m 620 655 l 620 665 q 615 677 617 671 q 613 690 613 684 q 606 703 606 700 q 605 707 605 705 q 590 738 593 727 q 587 757 587 749 q 582 766 585 762 q 576 774 579 770 q 572 784 574 780 q 567 791 570 788 q 557 802 560 800 q 552 806 555 804 q 536 819 541 814 q 528 827 532 825 q 512 832 514 831 q 509 834 510 833 q 491 845 495 841 q 481 848 487 848 q 463 845 476 848 q 454 852 457 850 q 446 854 450 853 q 419 859 429 857 q 396 861 403 864 q 378 862 382 861 q 372 864 374 863 q 345 864 359 867 q 321 854 330 861 l 305 854 l 290 856 q 277 852 279 853 q 273 849 274 850 q 256 842 259 844 q 250 838 252 840 q 241 831 244 833 q 233 826 239 829 q 217 821 217 821 q 210 812 213 815 q 205 806 208 808 q 190 785 194 791 q 182 768 186 779 q 163 754 167 758 q 156 736 156 739 q 155 730 156 732 q 150 719 152 724 q 145 708 148 713 q 138 696 141 703 q 136 681 137 688 q 134 667 134 674 q 134 654 134 661 q 128 640 129 643 q 126 633 127 636 q 126 622 126 627 q 129 606 126 617 q 130 589 129 593 q 132 585 130 586 q 138 570 138 578 q 142 554 141 557 q 145 548 144 551 q 153 527 151 532 q 156 521 155 522 q 171 505 167 510 q 178 498 175 500 q 190 492 183 495 q 202 487 197 490 q 216 481 213 481 q 225 480 220 480 q 241 472 236 475 q 250 467 245 469 q 266 465 262 465 q 273 464 270 464 q 288 461 283 461 q 300 461 293 461 q 317 460 313 460 q 326 460 321 460 l 342 460 q 361 463 355 463 q 369 463 366 463 q 385 464 378 465 q 401 465 393 467 q 433 477 426 473 q 450 486 441 480 q 461 488 457 487 q 468 488 465 488 q 482 496 479 495 q 488 499 486 498 q 509 510 496 505 q 517 517 509 511 q 524 521 521 519 q 530 526 526 524 q 540 534 538 532 q 556 555 552 549 q 567 570 560 560 q 585 585 578 581 q 597 593 591 590 q 603 605 600 600 q 612 617 606 610 q 613 639 610 628 q 620 655 618 646 z "},"":{"ha":688,"x_min":31,"x_max":652,"o":"m 650 416 q 652 378 651 399 q 652 335 652 357 q 647 294 651 313 q 636 260 643 274 l 627 241 q 616 222 623 232 q 611 216 613 218 q 606 206 609 213 q 597 199 601 201 q 591 194 594 197 q 587 188 589 191 q 581 179 586 184 q 572 170 575 174 q 563 163 568 165 q 559 155 560 157 q 556 148 557 153 q 541 142 545 144 q 533 136 537 140 q 513 127 518 130 q 500 122 507 125 q 484 113 490 115 q 471 109 477 111 q 457 100 460 104 q 447 98 450 99 q 438 98 444 98 q 418 91 431 94 q 390 86 404 88 q 363 84 376 84 q 343 85 350 84 q 320 85 326 87 q 308 84 315 84 q 283 85 301 84 q 256 88 264 85 q 232 93 244 90 q 208 99 220 96 q 190 103 197 102 q 181 108 186 106 q 171 114 176 110 q 146 123 160 117 q 122 138 132 130 q 117 145 119 141 q 113 152 115 149 q 104 163 106 161 q 100 168 103 165 q 88 184 91 179 q 85 193 85 189 q 76 205 79 201 q 71 212 73 209 q 66 219 68 216 q 61 228 64 222 q 55 245 58 235 q 50 263 52 256 q 47 273 47 269 q 47 279 47 277 q 41 297 45 288 l 35 308 q 37 316 37 312 l 37 328 q 34 338 35 334 q 33 350 33 343 q 32 357 31 354 q 33 365 33 361 q 33 386 34 377 q 33 401 33 395 q 35 420 33 410 q 43 439 37 431 q 54 458 47 444 q 64 479 61 473 q 69 491 66 486 q 73 500 71 495 q 77 515 75 505 q 85 522 83 518 q 94 534 88 526 q 98 541 96 537 q 103 548 100 545 q 113 560 109 556 q 126 572 119 567 q 140 585 133 578 q 153 599 149 595 q 161 605 157 602 q 178 612 172 610 q 193 617 182 614 q 210 626 202 621 q 229 636 218 631 q 250 646 239 642 q 275 652 262 650 l 319 661 q 331 662 326 662 q 340 662 336 662 q 349 662 345 662 q 359 665 353 662 q 379 666 366 666 q 406 665 392 666 q 433 662 420 663 q 453 659 446 661 q 455 669 456 662 q 452 684 454 677 q 448 698 450 692 q 445 704 445 704 q 436 719 439 713 q 430 728 433 724 q 424 735 427 731 q 415 745 420 739 l 403 757 l 392 749 q 382 742 388 746 q 374 735 377 738 q 355 720 365 727 q 335 708 346 712 q 317 699 321 701 q 305 690 313 697 q 292 693 297 693 q 277 690 288 693 q 258 703 264 699 q 247 716 252 708 q 239 735 240 730 l 239 754 q 247 779 243 772 q 254 789 251 787 q 270 800 264 800 q 277 805 273 803 q 283 810 281 807 q 292 817 289 814 q 300 825 296 821 q 321 841 321 841 q 307 857 312 852 q 297 865 301 861 q 277 880 286 869 q 272 882 274 880 q 267 884 270 883 q 263 887 264 886 l 248 892 l 240 898 q 229 906 232 903 q 226 913 227 907 q 216 924 225 918 q 214 933 214 930 q 214 939 214 936 q 213 943 214 941 q 224 977 214 966 q 250 993 235 989 q 281 996 264 997 q 313 991 298 994 q 323 985 317 987 q 331 979 328 983 q 345 971 336 977 q 361 962 357 966 q 363 958 363 959 q 373 951 368 955 q 380 945 377 948 q 387 940 384 941 q 392 935 389 937 q 396 932 395 933 l 399 929 l 427 899 l 438 907 q 453 917 446 913 l 472 933 q 481 942 476 939 q 490 948 486 945 q 497 952 492 951 q 509 959 502 954 q 526 959 519 958 q 534 959 532 960 l 551 952 q 568 942 563 945 q 574 928 574 939 q 578 911 576 917 q 578 901 579 905 q 577 887 576 891 q 578 875 578 883 q 562 859 567 864 q 551 850 556 853 q 543 845 547 848 q 533 840 538 842 q 517 829 528 834 q 500 819 506 825 q 510 807 507 810 q 515 802 513 804 q 533 780 521 795 q 548 758 545 765 q 551 748 549 751 q 552 742 552 745 l 552 739 q 566 720 562 730 q 569 712 568 716 q 571 705 570 708 q 575 690 574 694 q 579 681 576 685 q 591 658 590 669 q 593 646 593 647 q 594 643 593 644 q 601 627 598 635 q 604 609 604 621 q 610 588 609 595 q 614 575 612 581 q 617 564 614 572 q 623 547 620 556 q 628 528 625 537 q 631 518 631 519 q 635 501 633 507 q 635 488 637 495 q 644 454 640 468 q 648 430 647 441 l 650 416 m 536 330 q 534 347 534 342 q 533 357 533 353 q 534 370 533 363 q 536 382 536 376 q 534 399 536 388 q 528 424 532 411 q 522 449 525 437 q 514 469 518 461 q 504 488 506 483 q 500 496 502 494 q 488 509 498 502 q 467 524 479 517 q 443 536 456 530 q 422 545 430 543 q 389 551 407 551 q 371 552 380 552 q 351 555 362 552 q 336 553 343 553 q 323 553 330 553 q 276 533 304 547 q 233 514 248 519 q 220 498 224 503 q 213 490 216 494 q 202 477 206 483 q 197 460 198 471 q 183 453 183 453 q 176 437 183 444 q 168 416 170 422 q 163 404 165 410 q 155 385 156 391 q 151 376 153 380 q 151 357 152 365 q 152 343 151 350 q 153 332 152 338 q 156 315 153 326 q 161 297 161 308 q 170 277 168 283 q 171 266 171 270 q 176 254 174 258 q 180 245 178 250 q 185 239 183 243 q 190 232 187 235 q 206 218 202 221 q 213 214 210 216 q 228 206 227 208 q 256 206 245 208 q 304 203 279 203 q 349 203 328 202 q 386 205 370 203 q 408 208 401 206 q 421 211 419 210 q 423 213 423 212 q 433 218 429 216 q 445 222 438 221 q 463 231 457 228 q 471 236 468 233 q 483 244 477 240 q 494 252 488 248 q 502 258 498 255 q 509 269 506 262 q 527 303 521 288 q 536 330 533 319 z "},"":{"ha":715,"x_min":-19,"x_max":662,"o":"m 662 153 q 659 130 662 146 q 656 106 656 114 q 644 72 644 94 l 618 49 l 604 49 q 571 46 582 45 q 553 45 562 42 q 542 47 544 47 q 538 47 540 47 q 519 49 525 47 q 494 47 509 47 q 475 46 480 46 q 439 47 449 49 q 420 46 429 46 q 412 47 416 46 q 404 47 408 47 q 397 45 403 47 q 392 43 395 43 l 377 42 q 366 43 370 43 q 357 45 361 43 q 347 42 351 43 q 336 41 343 41 q 323 40 327 41 q 316 38 319 39 q 296 38 301 38 q 288 39 292 38 q 274 36 281 37 q 260 34 267 35 l 245 34 q 233 33 237 33 q 225 33 229 33 q 216 33 221 33 q 208 34 212 33 l 183 31 q 166 33 170 33 q 160 34 163 33 q 155 33 157 34 q 142 26 152 33 q 132 28 136 28 q 126 30 129 28 q 122 31 123 30 q 104 26 110 27 q 94 26 99 26 l 68 20 q 53 23 58 22 q 43 25 47 24 q 38 27 38 26 q 20 40 23 38 q 15 45 18 42 q 3 58 8 50 q -4 76 -1 65 q -1 96 -4 85 q 2 104 0 99 q 8 119 4 109 q 20 127 16 125 q 33 136 24 129 q 47 136 43 136 q 57 138 52 137 q 80 142 73 141 q 91 144 87 142 q 101 143 96 144 q 111 144 106 142 q 111 152 111 149 q 110 159 110 155 l 110 174 q 109 189 110 184 q 108 201 109 198 q 107 205 107 203 q 107 224 104 213 q 105 233 106 228 q 107 245 104 239 q 104 263 104 254 q 108 286 109 274 q 104 308 107 297 q 102 325 102 320 q 104 334 103 330 q 103 354 102 347 q 104 364 104 362 q 103 369 104 366 q 102 384 102 380 q 104 391 103 388 q 101 408 102 403 q 100 416 100 412 q 87 411 94 414 q 75 406 81 408 q 57 397 61 399 q 45 391 53 396 q 34 394 37 393 q 28 395 31 395 q 12 399 15 397 q 9 401 9 400 q -3 408 3 404 q -11 419 -8 412 q -16 431 -14 426 q -19 442 -19 437 l -19 460 q -12 476 -14 471 q -8 484 -9 481 q -3 490 -5 487 q 4 496 -1 494 q 14 501 9 500 q 20 502 18 502 q 33 510 31 509 q 37 511 35 511 q 45 519 43 518 q 50 524 47 521 q 69 535 65 533 q 73 538 73 537 q 87 545 84 544 q 92 547 90 547 q 104 557 99 555 q 113 559 110 559 q 113 586 114 572 q 113 602 113 600 q 111 627 110 610 q 111 647 111 643 q 109 662 109 655 q 109 688 110 675 q 109 707 109 700 q 107 732 104 722 q 107 753 106 746 q 111 766 109 760 q 114 785 111 774 q 115 793 114 789 q 117 803 115 798 q 118 825 114 815 q 119 841 115 834 q 117 848 118 844 q 109 859 115 852 q 92 855 98 857 q 76 849 87 853 q 62 852 65 852 q 52 852 58 853 q 35 865 41 860 q 27 872 30 869 q 9 895 14 886 q 4 918 4 906 q 5 930 4 924 q 12 940 8 935 q 20 951 20 951 q 50 963 37 962 q 66 969 62 968 q 71 970 69 970 q 87 972 81 972 q 100 974 94 972 q 120 978 115 978 q 129 978 125 978 q 142 977 138 977 q 153 985 146 978 q 165 981 163 981 q 168 981 167 981 q 186 982 180 982 q 194 981 191 982 q 210 985 205 983 q 220 987 214 986 q 247 989 239 990 q 262 985 255 987 q 273 983 263 983 q 281 982 277 983 l 290 972 q 304 968 301 970 q 307 964 307 967 q 310 959 308 962 q 313 954 312 956 q 316 949 315 951 l 319 933 q 321 928 320 930 q 326 916 323 925 q 317 901 317 902 q 302 884 307 887 q 292 878 297 880 q 291 875 289 878 q 278 865 293 872 l 258 864 q 247 867 250 867 q 243 867 244 867 q 235 847 236 852 q 233 837 233 842 q 231 810 236 821 q 230 792 231 799 q 227 779 229 785 q 227 761 228 766 q 225 751 227 755 q 228 732 228 738 q 227 720 228 727 q 227 715 227 719 q 228 703 227 712 q 230 690 229 696 q 231 682 231 684 q 230 666 231 671 q 229 658 229 661 q 231 652 231 655 q 233 643 232 650 q 235 617 233 621 q 254 628 245 627 q 263 633 260 631 q 273 637 266 635 q 291 633 286 635 q 298 629 296 631 q 307 625 300 627 q 313 621 309 624 q 317 616 316 618 q 321 610 320 610 l 334 598 q 336 570 339 579 l 332 547 q 304 525 313 530 q 297 521 301 522 q 286 517 293 519 q 264 507 277 507 q 251 500 256 502 q 233 491 244 495 q 224 475 225 481 q 222 458 224 468 q 221 434 221 439 q 221 426 221 429 q 222 418 221 422 q 222 411 222 415 q 224 399 224 404 q 224 388 225 393 q 224 366 222 376 q 228 346 225 357 q 228 329 228 334 q 227 317 228 324 q 226 304 225 316 q 229 282 227 293 q 228 246 228 262 q 229 224 228 231 q 233 195 233 205 l 233 180 q 237 168 236 174 q 237 155 239 163 q 253 150 248 151 q 260 148 258 149 l 288 155 q 300 155 298 155 q 304 156 302 155 l 326 156 q 347 159 340 159 q 358 159 353 160 q 368 158 365 157 q 374 159 372 159 q 387 159 381 159 q 399 157 392 159 q 405 158 401 157 q 418 164 408 159 q 429 162 426 161 q 438 165 431 163 q 452 163 449 164 q 457 163 456 163 q 475 163 471 164 q 483 161 480 161 q 494 163 490 163 q 503 163 499 164 q 517 165 513 164 q 525 165 521 165 q 531 181 530 174 q 532 195 532 189 l 528 210 q 532 241 532 233 q 534 255 533 248 q 534 265 534 260 q 533 275 533 270 q 534 287 533 281 q 537 300 534 293 q 538 311 537 307 q 538 320 538 315 l 538 362 q 538 370 538 366 q 534 385 537 374 q 538 400 537 396 q 540 411 538 404 q 549 422 547 419 q 553 429 552 426 q 568 440 564 438 q 576 444 572 442 q 597 446 590 446 q 608 444 605 445 q 626 437 623 438 q 631 435 629 435 q 642 425 637 429 q 652 410 647 420 l 651 393 q 655 373 655 381 q 656 358 655 362 q 658 351 656 354 q 655 332 655 336 q 655 326 655 327 q 656 311 656 315 q 655 305 655 308 q 653 280 654 286 q 651 269 652 274 q 651 239 655 247 q 655 218 652 233 q 655 198 658 203 q 659 170 659 180 q 662 153 659 159 z "},"":{"ha":332,"x_min":9,"x_max":346,"o":"m 345 589 q 340 570 342 575 q 338 563 339 566 l 330 552 q 321 543 326 548 q 315 537 317 538 q 307 533 311 534 q 297 528 302 532 q 288 524 292 525 q 281 521 283 522 q 269 517 271 518 q 266 514 267 515 q 258 509 262 511 q 248 503 254 506 q 233 499 233 499 q 231 484 231 491 q 232 469 232 476 q 233 460 232 464 q 233 452 233 456 q 231 431 233 438 l 231 414 q 229 387 233 397 q 231 374 231 380 q 231 365 231 369 q 228 351 228 354 q 228 346 228 347 q 227 330 227 338 q 227 316 227 323 l 227 285 q 225 264 227 267 q 229 241 228 252 q 231 218 231 229 q 230 202 231 210 q 229 186 229 194 q 244 182 240 183 q 252 179 248 182 l 274 167 q 281 151 279 156 q 284 140 283 145 q 283 129 285 136 q 281 110 282 122 q 260 87 267 95 q 235 76 254 79 q 225 75 232 76 q 210 75 218 75 q 195 75 202 75 q 187 76 189 76 q 152 81 167 80 q 123 84 137 81 q 111 85 118 85 q 92 83 103 84 q 81 82 85 83 q 72 81 76 81 q 61 81 66 81 q 49 84 56 81 q 41 90 45 87 q 35 95 38 92 q 19 144 12 125 q 38 179 26 164 q 57 186 50 182 q 68 191 64 191 q 93 197 81 195 q 114 198 104 198 q 113 213 113 209 q 114 221 114 217 q 111 235 111 229 q 111 247 111 241 q 113 257 113 255 q 111 262 113 259 q 111 268 111 264 q 110 278 110 271 q 111 287 110 283 q 113 294 111 290 q 115 316 115 312 q 114 326 114 320 q 115 338 114 334 q 115 346 115 343 q 118 360 118 355 q 118 370 118 365 q 118 382 118 377 q 119 393 118 387 q 121 410 119 401 q 121 427 122 419 q 111 424 115 426 q 99 420 106 422 q 87 414 92 416 q 77 410 81 412 q 68 406 72 407 q 60 407 65 407 q 51 407 56 407 q 41 406 46 407 q 24 422 30 416 q 15 435 18 427 l 9 473 q 20 496 16 490 q 27 506 24 503 q 38 515 34 513 q 45 521 42 518 q 54 525 49 522 q 62 528 58 528 q 68 532 65 529 q 85 545 75 538 q 96 551 95 551 q 99 553 98 552 l 114 560 q 125 568 122 567 q 132 570 129 570 q 130 587 130 582 q 132 597 130 593 q 133 612 133 606 q 134 621 133 617 l 137 654 q 140 683 138 662 q 142 726 141 704 q 144 768 144 749 q 142 792 144 787 q 127 793 136 795 q 107 789 118 792 q 93 785 100 787 q 79 783 85 784 q 64 780 72 780 q 47 784 57 780 q 36 794 38 792 q 33 799 34 796 q 26 806 28 803 q 22 817 23 810 q 24 837 19 826 q 31 859 23 848 q 45 873 39 869 q 66 884 52 880 q 81 886 79 886 q 85 886 84 886 q 101 891 96 890 q 111 894 106 892 q 125 896 122 895 q 129 898 127 897 q 146 903 137 903 l 163 903 q 178 905 174 905 q 184 906 182 906 q 213 906 198 911 q 224 900 220 905 q 233 890 229 895 q 241 870 240 873 q 243 865 243 867 q 245 848 245 853 q 244 838 245 842 q 245 821 244 825 q 244 812 245 817 q 244 791 245 803 q 241 775 241 777 q 243 772 241 773 q 243 755 244 760 q 243 749 243 751 q 244 734 244 738 q 244 728 244 731 q 244 710 244 723 q 243 682 244 697 q 241 652 243 666 q 239 628 240 637 q 255 635 250 632 q 266 639 260 637 q 273 643 269 642 q 285 650 277 644 q 297 646 292 647 q 308 644 302 646 q 319 643 313 643 q 330 635 324 640 q 343 610 339 625 q 345 597 345 601 q 345 589 346 593 z "},"":{"ha":888,"x_min":18,"x_max":836,"o":"m 836 270 q 831 254 836 262 l 831 236 q 827 210 831 224 q 826 194 827 199 q 818 180 819 183 q 815 175 817 178 q 811 164 814 174 q 810 155 810 159 l 799 140 q 795 134 798 137 q 787 129 789 129 q 772 115 774 118 q 768 109 769 113 q 741 92 753 96 q 734 85 736 87 q 726 76 732 83 q 712 73 715 73 q 708 72 709 73 q 693 66 697 69 q 685 57 689 64 q 673 54 675 54 q 667 50 670 53 q 659 47 663 47 q 652 45 655 46 q 646 43 648 43 l 635 41 q 620 38 624 38 q 601 31 609 31 q 576 27 583 28 q 563 20 570 26 q 549 19 555 22 q 544 15 547 18 l 538 15 q 528 12 533 15 q 515 8 521 11 q 506 5 510 5 q 488 8 495 3 q 479 6 481 7 q 473 5 476 5 q 464 6 469 5 q 452 9 458 7 q 440 9 445 9 q 431 8 435 8 q 410 9 422 5 q 396 10 401 9 q 385 12 391 11 q 360 19 366 16 q 350 24 354 22 q 334 28 338 27 q 328 28 331 28 q 308 33 320 28 q 290 33 293 31 q 285 35 286 34 q 271 40 277 38 q 260 46 264 42 q 245 52 245 52 q 228 60 236 52 q 220 61 222 61 q 214 62 217 61 q 210 64 212 62 q 203 66 206 65 q 197 71 197 69 q 175 90 182 79 q 164 100 165 96 q 142 110 151 104 l 142 94 q 140 71 141 77 q 138 61 140 64 q 136 46 137 52 q 133 37 134 41 q 131 31 132 34 q 129 24 130 27 q 125 16 127 20 q 119 12 122 15 l 111 4 q 86 -3 96 -3 q 66 0 76 -3 q 52 7 56 5 q 38 11 47 8 q 33 21 35 18 q 23 31 31 24 q 18 49 18 42 q 18 60 18 56 q 22 80 20 75 q 24 88 23 85 q 24 106 22 96 q 24 113 24 110 q 23 121 23 117 q 24 129 24 125 q 27 138 24 133 q 28 150 27 144 q 33 163 28 156 q 34 179 31 170 l 42 210 q 44 223 45 217 q 43 236 43 229 l 45 258 q 47 273 46 266 q 47 286 47 279 q 43 294 46 292 q 45 309 45 305 q 47 317 46 313 q 71 353 57 347 q 92 358 84 358 q 100 357 96 358 q 109 357 104 357 q 114 357 111 357 q 123 361 117 358 q 151 342 141 351 q 170 319 160 334 q 171 303 171 308 q 171 296 171 298 q 170 281 168 285 q 165 251 170 263 q 163 243 164 247 q 161 236 163 240 q 169 230 167 231 q 175 229 171 229 q 189 212 182 217 q 208 201 195 208 q 223 186 218 190 q 231 182 228 183 q 236 178 231 180 q 241 174 239 176 q 248 168 244 171 q 254 163 251 165 q 259 161 256 161 q 275 153 271 155 q 282 149 279 152 q 294 146 289 148 q 305 141 300 145 q 330 133 324 137 q 350 129 345 130 q 358 126 355 127 q 376 123 373 123 q 382 121 380 122 q 389 120 385 119 q 397 121 393 121 l 407 121 q 415 117 410 118 q 422 114 418 115 q 430 113 427 113 q 458 117 449 117 q 472 117 467 117 q 487 117 486 115 q 503 122 503 122 q 510 125 506 123 q 521 126 514 126 q 530 132 528 130 q 536 134 533 133 q 546 136 543 136 q 552 136 549 136 q 556 136 553 136 q 566 142 559 137 q 595 148 582 142 q 606 155 601 151 q 624 160 616 157 q 643 167 642 165 q 650 172 646 170 q 658 178 655 175 q 665 186 662 182 q 671 190 667 187 q 680 197 675 193 q 692 209 684 205 q 698 218 694 214 q 704 224 701 221 q 709 236 707 231 q 711 239 711 237 q 709 254 708 248 q 712 265 712 263 q 712 270 712 267 q 709 296 713 288 q 700 308 704 305 q 663 358 681 351 q 657 369 659 366 q 650 376 655 372 q 633 393 639 389 q 624 400 628 397 q 602 407 609 406 q 590 411 594 408 q 573 416 578 415 q 566 419 568 418 q 561 418 564 418 q 555 419 557 419 l 547 419 q 538 420 543 419 q 532 421 536 420 q 524 422 528 422 q 500 430 513 430 q 488 429 495 430 q 473 433 480 430 q 454 438 461 434 q 430 444 438 439 q 425 444 429 444 q 418 445 422 444 q 408 448 412 446 q 399 449 404 448 q 387 453 388 452 q 372 460 376 460 q 362 458 369 461 q 349 465 353 463 q 343 468 346 467 l 327 468 q 313 475 319 473 q 305 477 308 476 q 293 481 298 480 q 282 484 288 481 q 262 491 271 484 q 252 496 256 494 q 243 500 247 498 q 230 507 232 506 q 228 510 228 509 q 215 515 221 513 q 202 522 209 517 q 190 528 194 525 q 183 532 186 529 l 178 537 q 173 541 175 540 q 170 545 171 543 q 151 557 156 551 q 137 566 140 564 q 127 568 134 567 q 109 588 117 583 q 91 595 102 593 q 87 606 90 604 q 79 616 85 609 q 73 626 75 623 q 69 632 71 629 q 65 639 68 632 q 64 646 64 642 q 62 652 64 648 q 61 662 60 659 q 55 680 56 675 q 56 688 54 685 q 53 704 56 696 q 52 712 52 708 l 52 719 q 50 724 52 722 q 47 730 49 727 q 52 746 52 738 l 52 754 q 54 764 53 758 q 58 777 57 774 q 61 789 61 785 q 62 795 61 792 q 62 802 58 795 q 64 807 62 804 q 66 814 65 810 q 69 821 69 821 q 84 843 79 836 q 94 856 90 850 q 98 862 96 859 q 103 868 100 865 q 113 878 103 871 q 122 884 117 882 q 129 888 125 886 q 137 894 133 890 q 144 904 141 901 q 152 913 146 907 l 170 920 l 184 929 l 209 945 q 217 949 213 948 q 225 952 221 949 q 251 964 243 962 q 264 970 259 967 q 273 974 270 972 q 283 982 277 975 q 300 985 296 982 q 307 987 302 986 q 316 989 311 989 q 332 993 324 994 q 342 996 338 996 q 350 996 347 996 q 375 1000 368 998 q 388 1002 382 1001 q 399 1004 396 1004 q 407 1006 401 1004 q 420 1007 416 1006 q 429 1008 425 1008 q 460 1004 453 1004 q 472 1004 468 1005 q 477 1002 475 1002 q 483 1001 480 1002 q 490 1000 487 1000 l 518 1000 q 524 997 519 998 q 538 998 530 994 q 551 994 545 991 q 559 994 556 996 q 571 994 566 994 q 583 993 576 994 q 592 991 589 991 q 598 991 595 991 l 602 991 q 609 989 605 990 q 617 983 613 987 q 636 976 631 978 q 644 972 642 974 q 661 966 651 968 q 669 963 666 964 q 675 958 671 960 q 685 948 682 952 q 703 939 699 941 q 712 947 709 943 q 716 955 715 952 q 720 963 718 959 q 726 978 722 967 q 742 984 736 983 q 751 986 747 985 q 761 989 753 986 q 768 991 765 990 l 808 978 q 814 970 810 974 q 820 962 817 966 q 829 955 823 958 q 827 937 827 943 q 827 929 827 932 q 827 918 827 924 q 823 905 826 911 q 820 893 821 895 q 819 888 819 891 q 814 873 817 880 q 810 859 812 865 q 806 838 806 846 l 806 823 q 804 812 806 817 q 803 802 803 807 q 800 787 800 793 q 801 779 800 784 q 802 769 802 774 q 800 750 802 755 q 800 739 800 743 q 798 728 799 734 q 792 697 793 704 q 788 686 789 690 q 784 677 787 682 q 780 665 781 673 q 776 655 779 659 l 758 644 l 736 640 q 715 638 719 637 q 708 640 711 639 q 692 649 696 647 q 688 654 689 651 q 668 688 674 669 q 677 723 662 708 q 681 738 680 734 q 684 745 682 742 q 685 760 685 754 q 686 769 685 765 q 686 781 686 779 q 685 784 686 783 q 684 791 685 787 q 684 800 684 796 q 677 814 677 808 q 663 830 666 826 q 656 836 659 834 q 647 850 648 844 q 634 861 637 859 q 628 867 631 864 q 611 876 617 873 q 601 882 605 879 q 583 888 589 887 q 575 890 578 888 l 557 897 q 540 895 547 894 q 525 901 533 897 q 510 898 519 898 q 499 901 502 901 q 494 901 496 901 q 478 903 481 903 q 473 903 475 903 q 454 902 460 903 q 444 903 448 901 q 416 903 429 902 q 406 899 412 901 q 393 899 400 897 q 381 897 385 897 q 374 897 377 897 l 358 891 q 344 888 347 888 q 339 887 340 888 q 330 882 334 884 q 320 879 327 880 q 311 875 316 876 q 302 871 307 873 q 283 861 288 863 q 275 856 278 859 q 260 844 264 846 q 254 841 256 842 q 229 824 236 830 q 218 814 222 818 q 210 805 214 810 q 201 795 206 800 l 182 770 q 180 749 179 755 q 178 736 180 743 q 175 723 175 726 q 175 719 175 720 q 184 670 174 685 q 205 647 194 655 q 223 636 218 639 q 231 632 228 633 q 248 618 239 628 q 266 607 260 610 q 274 601 271 604 q 287 596 281 600 q 296 590 293 593 q 312 583 304 589 q 328 580 323 581 q 335 578 332 579 q 346 574 340 575 q 363 574 351 574 q 393 559 385 562 q 412 559 401 557 q 422 555 419 555 q 434 557 425 555 q 448 547 444 549 q 457 544 453 545 q 479 546 472 547 q 488 543 486 545 q 506 539 500 540 q 514 537 511 538 q 519 536 517 536 q 529 540 521 537 q 550 535 544 536 q 563 532 556 534 q 581 527 575 528 q 590 525 586 526 q 597 524 594 524 q 609 526 601 524 q 620 520 617 522 q 625 517 623 518 q 652 506 646 510 q 662 499 659 502 q 665 498 663 499 q 678 499 667 498 q 689 489 686 492 q 694 483 692 486 q 721 462 713 468 q 732 449 728 456 q 747 438 742 442 q 752 434 750 435 q 761 430 754 433 q 770 413 765 419 q 780 404 776 407 q 789 399 785 400 q 793 391 792 395 q 795 385 795 388 q 798 380 796 381 q 804 372 803 373 q 807 368 804 370 q 818 342 815 350 l 825 321 q 827 312 826 317 q 831 300 830 301 q 834 285 834 294 q 835 275 834 278 q 836 270 836 273 m 647 1267 q 646 1254 646 1257 q 646 1248 646 1251 q 641 1232 646 1240 q 633 1221 636 1223 q 622 1208 627 1210 q 610 1199 617 1206 q 600 1187 606 1194 q 590 1176 593 1179 q 586 1172 587 1173 q 571 1159 575 1161 q 564 1154 567 1157 q 561 1152 563 1153 q 556 1149 559 1152 q 549 1145 552 1146 q 544 1141 547 1142 q 540 1138 541 1139 q 536 1137 538 1137 q 514 1114 521 1116 q 496 1104 505 1105 q 480 1103 487 1103 q 452 1107 461 1105 q 433 1112 444 1108 q 422 1124 425 1122 q 416 1130 419 1127 q 407 1138 412 1133 q 399 1152 401 1143 q 389 1165 393 1157 q 374 1180 380 1172 q 341 1211 355 1194 q 327 1244 327 1229 q 327 1258 328 1248 q 328 1272 326 1268 l 336 1297 q 360 1304 351 1305 q 380 1308 369 1303 q 393 1303 389 1303 q 403 1306 397 1303 q 420 1288 411 1297 q 435 1279 430 1279 q 444 1268 444 1268 q 446 1265 445 1265 q 460 1249 456 1253 q 467 1240 464 1244 q 481 1227 471 1234 q 493 1234 492 1234 q 495 1237 494 1234 q 507 1246 502 1242 q 519 1252 513 1249 q 532 1266 529 1263 q 538 1272 536 1270 q 567 1291 549 1287 l 581 1299 q 595 1302 586 1302 q 612 1301 608 1302 q 618 1297 616 1299 q 632 1290 629 1291 q 636 1287 635 1289 q 642 1279 643 1283 q 647 1267 640 1275 z "},"":{"ha":623,"x_min":-11,"x_max":606,"o":"m 606 629 q 604 621 604 624 q 604 614 604 617 q 605 608 604 610 l 597 589 l 582 574 l 556 556 q 548 549 549 552 q 544 544 547 547 q 534 538 536 540 q 530 536 532 537 q 518 522 521 526 q 511 515 515 518 q 500 503 510 510 q 497 500 500 502 q 491 495 494 498 q 483 488 487 491 l 463 479 q 454 475 458 476 q 442 471 448 471 q 414 479 429 472 q 397 496 406 487 q 389 511 389 505 q 389 524 389 519 q 393 543 388 529 q 403 556 397 553 q 412 563 408 560 l 419 570 q 411 576 416 572 q 401 583 407 579 q 389 589 396 586 q 380 591 387 590 q 370 595 374 593 l 354 601 q 344 604 351 604 q 331 605 336 604 l 315 605 q 304 603 307 604 q 298 602 301 602 q 286 604 288 604 q 283 604 285 604 q 267 597 275 598 q 254 593 256 594 q 250 590 251 593 q 235 583 241 586 q 222 575 229 579 q 203 556 213 567 q 192 529 195 547 q 186 500 189 511 q 186 490 186 496 q 189 479 186 483 q 198 471 195 472 q 203 468 201 469 q 213 459 210 461 q 218 456 216 457 q 249 448 237 452 q 271 441 260 444 q 290 433 281 434 q 313 430 298 431 q 321 422 319 423 q 328 420 324 422 q 345 419 340 419 q 354 418 350 419 q 367 412 365 411 q 370 411 369 412 q 393 404 384 407 q 411 399 403 401 q 426 396 423 396 q 430 396 429 396 q 442 392 439 393 q 448 389 445 391 q 457 387 453 387 q 463 385 460 385 l 472 376 q 484 368 479 372 q 494 359 490 365 q 509 354 502 355 q 519 346 515 347 q 525 343 522 345 q 534 332 532 334 q 537 327 536 330 q 541 317 540 320 q 544 311 543 313 l 545 308 q 558 285 556 292 q 560 275 560 278 q 564 251 563 256 q 564 241 564 245 q 565 231 564 236 q 564 218 566 225 q 560 195 560 206 l 560 184 l 544 148 q 528 136 533 140 q 518 129 524 132 q 515 123 517 126 q 506 113 513 119 q 490 105 499 111 q 473 91 481 99 q 464 87 467 90 q 454 79 461 85 q 444 77 446 79 q 438 73 441 76 q 429 71 434 73 q 422 66 425 69 q 414 61 416 64 q 401 58 407 60 q 388 56 388 56 q 368 52 373 53 q 359 49 362 50 q 351 47 354 47 q 342 46 347 46 q 328 46 338 46 q 306 45 317 46 q 284 45 294 45 q 270 45 274 45 q 257 47 259 47 q 254 49 255 47 q 250 48 252 47 q 245 49 248 49 q 239 50 241 49 q 232 54 236 53 q 220 56 224 57 q 193 69 205 64 q 171 81 182 75 q 154 92 163 85 q 138 104 145 98 q 121 115 126 107 q 109 125 111 123 q 104 130 107 127 q 98 119 103 127 q 92 113 95 115 l 80 103 q 68 98 73 100 q 61 95 64 96 q 54 92 57 92 l 43 90 q 35 88 39 88 q 28 88 30 88 q 20 92 24 88 q 3 102 15 96 q -3 115 -1 113 q -7 118 -4 117 q -9 152 -11 145 q -7 159 -9 156 q -3 165 -5 163 q 4 171 0 168 q 8 178 5 174 q 14 187 9 183 q 25 205 20 199 q 35 213 30 210 q 53 235 46 225 q 58 243 56 239 q 71 255 61 247 l 83 271 l 92 279 q 101 282 98 279 q 107 288 104 285 q 114 288 110 290 q 123 293 118 286 q 172 286 157 294 q 190 260 186 278 q 191 237 193 243 q 187 229 189 232 q 181 218 182 218 q 178 210 180 217 q 178 203 176 206 q 213 182 202 187 l 224 171 q 227 170 225 170 q 238 163 236 164 q 243 161 240 163 q 260 156 254 161 q 283 155 270 156 q 304 153 297 153 q 331 156 320 160 q 349 161 340 156 q 368 162 363 161 q 373 163 372 163 q 391 169 387 167 q 399 174 396 171 q 412 182 407 179 l 426 199 q 439 210 437 205 q 446 217 442 214 q 448 226 446 222 q 450 232 449 229 q 450 248 450 244 q 448 255 449 252 q 435 271 437 266 q 422 276 427 275 q 415 279 418 277 q 401 286 407 285 q 393 290 396 288 q 363 297 373 296 q 347 300 354 298 q 320 304 334 300 q 300 312 309 307 q 281 321 290 317 q 263 324 266 324 q 255 326 260 324 q 248 330 252 327 q 236 330 243 332 q 221 338 227 336 q 212 340 216 339 q 205 342 209 342 q 187 346 202 343 q 180 353 184 353 q 172 357 175 354 q 159 361 164 361 q 148 366 155 362 q 142 373 145 370 q 127 380 138 376 q 115 393 119 388 q 106 406 110 399 q 103 410 104 408 q 100 414 102 411 l 98 419 q 94 427 95 423 q 90 433 91 430 q 88 438 90 435 q 81 452 84 445 q 76 467 77 458 q 75 475 75 471 q 76 481 76 479 q 75 492 75 488 q 75 499 75 496 q 71 514 71 510 q 72 519 71 518 q 71 526 72 522 q 73 537 71 530 q 74 549 73 544 q 75 559 75 555 q 84 576 77 570 q 92 595 90 591 q 96 602 94 600 q 106 617 103 613 q 113 624 110 621 q 126 634 123 632 q 130 637 129 636 q 135 643 133 640 q 140 648 137 646 q 145 652 142 651 q 151 656 148 654 q 157 661 155 661 q 167 669 163 665 q 176 675 171 673 q 181 680 179 678 q 189 686 183 681 q 214 691 203 688 q 239 705 224 694 q 259 707 254 705 q 271 716 264 709 q 285 715 282 715 q 290 715 288 715 q 298 715 293 715 q 308 715 302 716 q 326 713 315 713 q 334 713 330 712 q 342 713 338 713 q 356 713 349 713 q 372 708 363 712 q 387 707 380 708 q 400 703 393 705 q 408 701 403 701 q 416 699 412 700 q 426 697 422 697 l 434 694 q 449 692 442 692 q 454 683 452 685 q 465 680 456 681 q 479 667 473 671 q 491 661 486 663 q 496 665 492 662 q 502 670 499 667 l 510 675 q 519 678 514 677 q 534 685 530 681 q 561 684 553 686 q 583 675 568 681 q 598 654 594 665 q 606 629 602 644 m 495 977 q 494 964 494 967 q 494 958 494 960 q 489 941 494 949 q 481 930 484 933 q 470 918 475 920 q 458 909 465 916 q 448 897 454 903 q 438 886 441 888 q 434 882 435 883 q 419 869 423 871 q 412 864 415 867 q 409 862 411 863 q 404 859 407 861 q 397 854 400 856 q 392 850 395 852 q 388 848 389 849 q 384 846 387 846 q 362 823 369 826 q 344 814 353 815 q 328 812 335 812 q 300 817 309 815 q 281 822 292 818 q 270 834 273 831 q 264 840 267 837 q 255 848 260 842 q 247 861 250 853 q 237 875 241 867 q 222 890 228 882 q 189 921 203 903 q 175 954 175 939 q 175 968 176 958 q 176 982 174 978 l 184 1006 q 208 1014 199 1015 q 228 1017 217 1013 q 241 1013 237 1013 q 251 1016 245 1013 q 269 998 259 1006 q 283 989 278 989 q 292 978 292 978 q 294 975 293 975 q 308 958 304 963 q 315 949 312 954 q 330 937 319 944 q 341 944 340 944 q 343 947 342 944 q 355 956 350 952 q 368 962 361 959 q 380 976 377 972 q 387 982 384 979 q 415 1001 397 997 l 429 1009 q 444 1012 434 1012 q 460 1010 456 1012 q 467 1006 464 1009 q 480 1000 477 1001 q 484 997 483 998 q 490 989 491 993 q 495 977 488 985 z "},"":{"ha":654,"x_min":-232,"x_max":884,"o":"m 884 922 q 871 900 878 909 q 854 888 864 891 q 821 878 831 875 q 804 882 811 880 q 785 886 793 886 q 774 886 779 886 q 768 888 770 887 q 736 892 751 892 q 722 892 730 892 q 705 894 713 892 l 697 884 q 693 876 694 880 q 688 869 689 869 q 669 850 674 856 q 662 842 665 845 q 654 831 656 836 q 648 825 651 827 q 640 816 642 818 q 637 812 637 814 q 627 802 631 806 q 621 795 624 798 q 618 791 618 792 q 612 781 616 787 q 606 774 609 777 q 601 769 602 770 q 595 764 598 766 q 589 760 593 762 q 579 746 585 751 q 568 736 574 741 q 560 722 564 727 q 553 712 556 716 q 548 704 551 707 q 543 699 545 701 l 537 693 q 529 686 533 690 q 519 678 521 678 q 498 659 513 667 q 487 647 495 655 l 476 633 q 467 621 475 627 q 457 608 463 613 q 453 602 454 604 l 448 594 q 441 585 442 586 q 435 578 441 583 q 431 571 433 575 l 426 566 l 418 557 q 414 547 416 555 q 410 540 412 543 q 406 537 407 538 l 401 533 q 387 515 392 521 q 377 505 381 509 l 365 492 q 361 484 362 488 q 358 479 358 479 q 357 476 357 477 q 357 465 357 467 q 358 461 358 463 q 357 448 358 452 q 357 441 357 444 q 359 419 357 430 q 361 397 361 408 q 359 381 361 387 q 363 363 362 370 q 363 349 363 355 q 362 338 362 345 q 361 332 362 335 l 365 301 l 365 289 q 366 271 365 275 q 369 255 369 260 q 368 242 369 248 q 368 229 368 236 q 369 216 369 220 q 369 210 369 213 q 369 184 368 194 q 370 169 370 174 q 370 161 370 164 q 370 144 372 153 q 374 132 373 137 q 374 119 376 126 q 391 119 384 121 q 402 118 400 118 q 406 118 404 118 q 428 121 422 121 q 438 119 434 121 q 462 120 453 121 q 477 117 471 119 q 490 110 488 111 q 495 107 492 109 q 509 96 503 102 q 517 85 514 91 q 524 75 522 77 q 530 65 525 72 q 530 54 530 58 q 529 45 529 49 l 529 35 l 517 14 q 511 12 514 14 q 503 3 506 9 q 488 4 491 4 q 481 3 484 4 q 473 -1 476 0 q 463 -3 469 -3 q 448 -1 452 -1 q 442 0 445 0 q 435 -1 438 0 q 426 0 431 -1 l 388 0 q 357 -1 366 -3 q 340 0 347 0 q 316 1 327 1 q 297 -1 305 0 q 278 -5 288 -3 l 232 -5 q 213 -9 218 -9 q 203 -11 208 -9 q 176 -7 180 -8 q 170 -5 172 -7 q 156 0 159 0 q 152 1 153 0 q 145 7 151 1 l 140 12 q 137 18 138 14 l 132 28 q 127 58 127 45 q 132 91 126 71 q 146 100 141 99 q 149 102 148 100 q 155 104 149 102 q 164 107 159 106 l 171 107 q 180 109 178 107 l 195 109 q 216 110 206 114 q 228 112 222 111 q 240 113 233 113 q 248 136 247 127 q 251 153 250 145 q 250 175 250 167 q 252 190 251 183 q 254 223 254 214 q 254 236 254 232 q 252 248 252 243 q 251 259 251 252 q 250 270 250 264 q 251 281 251 275 q 250 300 250 296 q 250 305 250 304 q 251 355 251 334 q 247 392 251 376 q 244 404 244 400 q 244 415 244 408 q 247 427 247 425 q 247 430 247 429 q 246 434 247 431 q 240 449 245 437 q 240 458 243 456 q 236 460 239 460 l 229 475 q 222 479 225 477 q 214 486 220 480 q 210 497 212 495 q 206 502 209 499 q 197 515 201 513 q 187 519 194 517 q 183 532 184 529 q 180 538 182 536 q 161 557 171 545 q 148 574 151 568 q 142 586 145 581 q 136 597 138 591 q 131 603 133 601 q 119 609 129 605 q 102 644 107 635 q 91 659 96 652 q 85 667 88 663 q 80 678 81 671 q 72 688 73 686 q 68 692 71 690 q 45 725 54 713 q 26 751 37 736 q 13 775 18 766 q 4 791 8 784 q -12 816 -4 804 q -28 840 -19 827 q -41 856 -39 853 q -52 868 -49 864 q -73 868 -65 869 q -87 868 -80 867 q -106 863 -102 864 q -114 864 -111 863 q -125 865 -122 865 q -136 861 -129 864 q -153 863 -151 861 q -186 865 -171 857 q -209 879 -201 872 q -220 888 -216 882 q -225 895 -224 892 q -227 903 -225 899 q -232 916 -229 911 l -232 932 l -232 935 q -206 972 -222 958 q -174 977 -190 986 q -155 977 -163 979 q -144 976 -149 977 q -133 977 -138 975 q -113 979 -126 977 q -100 981 -107 981 q -85 981 -94 982 q -75 981 -79 981 q -69 982 -72 982 q -60 984 -64 983 q -52 985 -56 985 q -35 983 -41 985 q -22 985 -24 985 q -16 986 -19 985 q 5 987 -7 989 q 58 983 41 982 q 79 987 69 986 q 99 989 90 987 q 117 990 111 989 q 136 991 132 991 q 140 993 140 991 q 157 994 152 994 q 164 993 161 993 q 185 984 180 986 q 193 981 190 982 q 199 978 195 979 q 206 974 203 977 q 214 970 210 971 q 218 959 216 964 q 224 947 224 948 q 226 939 225 944 q 229 924 227 935 q 221 909 224 918 q 221 902 220 905 q 212 897 217 899 q 199 890 201 891 l 165 875 q 142 871 153 871 q 125 871 129 871 q 118 872 121 871 q 102 870 106 869 q 95 871 98 871 q 107 850 98 860 q 117 836 114 841 q 122 827 119 831 q 132 810 127 817 q 145 798 136 803 q 148 788 146 791 q 156 781 149 785 q 162 770 159 774 q 172 758 165 765 q 176 743 175 746 q 179 738 178 739 q 188 728 184 731 q 197 720 191 726 q 213 698 210 704 q 217 689 216 692 q 224 680 222 682 q 228 677 227 678 q 239 661 235 670 q 250 643 245 654 q 260 629 258 632 q 263 624 262 627 q 273 610 271 613 q 282 602 281 604 q 285 600 283 601 q 297 585 294 587 q 307 600 302 594 q 317 610 312 605 q 332 627 323 624 q 344 647 342 642 q 349 656 346 652 q 365 677 357 669 q 373 689 372 686 q 376 694 374 692 q 384 711 377 700 q 395 719 395 716 q 396 726 396 722 q 406 732 403 731 q 411 735 408 734 q 431 753 426 747 q 439 761 437 758 l 450 772 l 457 787 q 465 791 464 789 q 469 796 467 793 l 475 814 q 488 819 486 817 q 491 830 490 822 q 507 841 505 840 q 519 856 511 850 q 524 863 519 859 l 526 865 l 530 869 q 536 875 536 875 q 545 884 544 882 q 548 887 547 886 q 554 896 553 894 q 556 905 555 898 q 545 910 547 909 q 543 911 544 911 q 523 916 530 914 q 509 920 515 918 l 481 921 l 454 932 l 449 940 q 444 946 446 943 q 442 951 442 949 q 434 962 435 958 q 430 971 433 966 q 431 998 427 986 q 446 1019 434 1010 q 464 1024 460 1024 q 471 1025 468 1025 q 480 1027 475 1025 q 494 1030 491 1029 q 499 1031 496 1031 q 515 1028 507 1031 q 530 1024 526 1025 q 538 1023 534 1023 q 548 1021 543 1021 q 555 1020 552 1020 q 560 1019 559 1020 q 579 1019 575 1020 q 586 1019 583 1019 q 596 1017 593 1017 q 602 1016 600 1016 l 605 1016 q 636 1013 628 1013 q 651 1015 644 1012 q 665 1014 662 1013 q 670 1015 667 1015 q 684 1010 680 1010 l 686 1010 q 703 1008 696 1009 q 716 1008 709 1008 q 722 1008 719 1006 q 728 1010 726 1009 l 736 1013 q 746 1009 741 1010 q 753 1006 750 1008 q 758 1006 755 1005 q 772 1006 769 1006 q 780 1009 774 1006 q 794 1005 789 1006 q 802 1001 799 1004 q 814 999 810 998 q 829 1000 819 1000 l 844 989 q 857 981 857 981 l 871 967 q 875 959 873 963 q 879 949 878 951 q 881 939 880 945 q 884 922 882 933 m 449 1219 q 450 1204 452 1211 q 448 1194 449 1198 l 439 1181 q 434 1175 437 1177 q 429 1171 431 1172 q 422 1166 425 1166 q 416 1159 419 1162 q 404 1147 412 1156 q 395 1143 400 1146 q 391 1139 392 1142 l 380 1131 q 367 1122 370 1124 q 361 1116 363 1119 q 353 1107 354 1109 q 350 1104 351 1105 q 316 1084 332 1086 q 294 1088 305 1081 q 288 1086 293 1086 l 283 1086 q 278 1088 281 1086 q 274 1092 274 1089 q 264 1100 271 1097 q 258 1103 260 1101 q 256 1111 256 1105 q 255 1120 255 1115 q 252 1128 255 1124 q 259 1156 254 1147 q 267 1166 264 1162 q 273 1172 270 1169 l 275 1175 l 293 1192 q 308 1204 305 1204 q 318 1214 313 1210 q 326 1221 323 1218 q 332 1226 330 1225 q 342 1233 336 1229 q 348 1238 345 1236 q 353 1241 351 1240 q 376 1257 369 1252 q 392 1261 384 1261 q 399 1261 395 1261 q 407 1260 404 1260 q 414 1259 411 1259 q 422 1257 418 1259 q 431 1255 430 1255 l 444 1244 q 447 1234 446 1241 q 449 1219 448 1226 z "},"":{"ha":757,"x_min":-16,"x_max":754,"o":"m 742 557 q 736 543 742 548 q 732 537 734 540 q 728 532 731 534 q 724 525 726 528 q 713 521 719 524 q 697 515 703 515 q 683 518 686 518 q 677 518 680 518 q 662 513 666 513 q 655 514 658 513 q 654 487 655 491 q 650 467 651 471 q 650 461 650 464 q 650 450 650 454 q 647 438 650 445 q 648 425 648 430 q 648 415 648 419 q 648 406 648 411 q 647 397 648 401 q 649 389 648 393 q 648 380 650 384 q 651 365 651 372 q 649 349 650 353 q 647 342 648 345 q 645 330 646 332 q 643 324 644 327 q 642 309 643 317 q 642 288 642 301 q 642 273 642 279 q 643 258 643 266 q 640 241 642 243 q 643 224 643 232 q 644 210 643 216 q 640 182 644 191 q 640 157 642 164 q 640 140 643 146 l 640 111 q 640 104 640 109 q 639 92 640 99 q 638 83 639 88 q 637 76 637 79 l 637 68 l 636 46 l 636 37 q 633 22 636 30 l 625 7 q 625 -3 625 1 q 621 -14 624 -8 q 621 -31 623 -24 q 616 -42 618 -37 q 615 -46 616 -43 q 614 -52 614 -49 q 613 -58 613 -56 l 606 -69 q 605 -77 606 -73 q 602 -84 604 -81 q 593 -105 595 -99 q 590 -114 591 -111 q 581 -128 583 -125 q 578 -134 579 -132 q 570 -143 572 -141 q 564 -148 567 -145 q 555 -157 555 -157 q 551 -160 555 -157 q 538 -174 541 -171 q 533 -178 536 -176 q 530 -182 530 -180 q 526 -184 529 -183 q 522 -187 524 -186 l 510 -195 l 494 -203 q 481 -210 483 -209 q 476 -210 479 -210 q 448 -220 456 -218 q 437 -222 441 -221 q 422 -223 425 -222 q 415 -228 419 -224 q 401 -229 404 -229 q 396 -229 399 -229 q 368 -232 384 -235 q 355 -233 362 -233 q 342 -231 349 -233 q 332 -229 335 -231 q 326 -227 328 -228 q 310 -224 315 -225 q 302 -222 305 -224 q 277 -217 283 -220 q 267 -212 270 -214 q 258 -208 263 -209 q 247 -201 252 -206 q 233 -193 239 -197 q 224 -183 228 -190 q 216 -180 220 -180 q 209 -175 212 -179 q 198 -160 199 -168 l 187 -149 q 177 -135 179 -140 q 168 -127 175 -130 q 161 -114 165 -121 q 156 -109 159 -110 q 155 -98 156 -103 q 145 -80 153 -91 q 141 -53 144 -65 q 139 -39 140 -43 q 138 -33 138 -35 q 138 -28 138 -30 q 138 -19 138 -26 q 138 -5 138 -11 q 137 7 137 1 l 140 23 l 148 31 q 156 39 156 39 q 176 48 171 47 q 189 46 182 49 q 200 43 197 43 q 206 42 203 43 l 228 33 q 235 22 232 27 q 239 14 237 18 q 241 8 240 9 q 245 -3 244 0 q 247 -7 247 -5 q 248 -14 247 -11 q 249 -16 248 -15 q 250 -18 250 -16 q 251 -20 250 -19 q 254 -28 252 -23 q 255 -41 256 -34 q 262 -60 258 -52 q 270 -73 267 -68 q 277 -81 275 -79 q 282 -85 279 -84 q 289 -96 288 -95 q 292 -99 290 -98 q 324 -115 308 -106 q 357 -118 339 -113 l 397 -109 q 412 -105 407 -106 q 420 -103 418 -104 q 431 -97 430 -98 q 434 -96 433 -96 q 450 -88 446 -90 q 457 -85 454 -87 q 470 -76 468 -79 q 473 -71 472 -73 q 484 -55 481 -60 q 488 -43 487 -50 l 500 -19 q 505 -9 503 -12 q 507 -3 506 -5 q 510 11 510 8 q 510 16 510 14 q 513 37 511 31 q 517 47 514 43 q 522 68 519 62 q 525 80 524 73 q 528 91 528 88 q 528 96 528 94 q 532 119 528 107 q 530 130 530 127 q 530 134 530 132 q 515 127 519 129 q 507 125 511 125 q 486 112 494 115 q 471 107 479 109 q 420 98 441 106 q 410 94 415 95 q 399 94 406 94 q 372 92 384 92 q 350 100 359 92 l 315 102 l 286 109 q 278 113 281 111 q 273 117 275 114 q 255 123 266 118 q 241 134 244 132 q 237 136 239 136 q 224 140 231 138 q 214 146 218 142 q 210 151 212 149 q 201 156 208 153 q 193 169 194 167 q 190 174 191 171 q 168 201 174 190 q 159 210 161 208 q 156 216 157 213 q 146 233 148 228 q 141 243 144 239 q 132 255 133 252 q 130 259 130 258 q 125 274 125 267 q 123 283 125 281 q 115 308 117 302 q 113 316 114 313 q 110 328 110 321 l 110 336 q 109 345 109 339 q 109 358 106 353 q 106 372 107 365 q 109 387 106 378 q 107 397 107 393 q 107 406 107 401 l 103 434 q 102 452 100 444 q 88 452 92 453 q 73 448 84 450 q 53 448 58 448 q 42 452 47 449 l 12 464 l -1 473 q -14 494 -11 486 q -16 511 -16 503 q -16 519 -16 514 q -15 526 -16 524 q -14 533 -15 530 q -9 538 -12 536 q -6 543 -7 541 q -3 545 -5 545 q 26 558 15 556 q 43 560 37 560 q 56 562 54 562 q 60 562 58 562 q 79 566 69 566 q 89 568 85 567 q 96 568 92 568 q 109 566 107 566 q 114 566 111 566 q 122 566 117 564 q 134 568 127 567 q 149 571 141 570 q 163 570 157 570 q 172 568 168 568 q 176 568 175 568 q 208 571 194 571 q 229 574 221 571 q 237 576 232 575 q 247 578 241 576 q 259 579 252 579 q 269 578 263 579 q 277 576 273 576 q 285 574 282 575 q 297 568 293 568 q 302 568 300 567 q 307 562 304 566 q 312 552 312 553 q 318 538 317 541 q 319 534 319 536 q 321 514 324 524 q 319 501 319 505 q 319 491 319 498 q 307 478 311 481 q 301 471 304 475 q 292 468 294 469 q 286 460 290 467 l 251 460 q 241 458 245 458 q 229 452 236 457 q 228 423 227 437 q 225 399 229 410 q 228 391 227 393 q 229 385 229 388 l 229 380 q 228 373 228 376 q 227 368 228 370 q 227 365 227 366 q 229 353 228 357 q 231 345 229 349 q 228 328 231 336 q 231 320 229 326 q 235 311 232 315 q 240 300 237 305 q 245 288 243 293 q 249 278 248 282 q 251 273 250 274 q 260 260 258 262 q 264 258 262 259 l 279 243 q 305 223 289 229 q 332 220 321 217 q 342 215 339 216 q 347 214 345 214 q 366 214 359 216 q 374 212 372 213 q 391 211 387 210 q 396 213 395 212 q 413 216 410 216 q 419 218 416 217 q 444 222 434 224 q 458 234 454 233 q 463 235 461 235 q 472 243 469 240 q 477 248 475 245 q 488 254 484 252 q 495 259 492 256 q 500 267 498 263 q 506 274 503 271 q 515 298 511 293 q 521 307 519 304 q 528 330 528 326 q 527 334 528 331 q 526 340 526 338 q 525 349 525 345 q 528 358 526 353 q 529 364 529 361 q 530 369 529 368 l 530 401 q 532 414 532 408 q 532 425 532 420 q 529 441 529 435 q 529 454 529 445 q 532 471 529 464 q 535 485 534 481 q 538 492 536 488 l 538 514 q 522 513 528 514 q 510 513 517 513 q 491 510 496 510 q 479 513 486 510 l 452 519 l 431 540 q 427 557 430 549 q 423 571 425 564 q 423 582 422 578 q 426 595 423 585 q 429 605 427 601 q 437 612 433 608 q 450 621 444 618 q 478 627 468 627 q 495 627 488 627 q 518 627 510 625 q 528 629 524 628 q 537 629 533 631 q 556 628 547 633 q 578 632 578 632 q 586 635 583 635 q 594 637 589 635 q 614 637 609 636 q 627 638 618 637 q 642 635 635 639 q 655 636 648 637 q 667 632 662 635 l 682 632 q 692 633 688 632 l 700 628 q 712 623 708 623 q 716 621 713 623 q 722 618 719 620 l 727 616 l 732 606 q 742 557 754 581 m 476 846 q 477 831 479 838 q 475 821 476 825 l 467 808 q 461 802 464 804 q 456 798 458 799 q 449 793 452 793 q 443 786 446 789 q 431 774 439 783 q 422 770 427 773 q 418 766 419 769 l 407 758 q 394 749 397 751 q 388 743 391 746 q 380 734 381 736 q 377 731 378 732 q 343 711 359 713 q 321 715 332 708 q 315 713 320 713 l 311 713 q 305 715 308 713 q 301 719 301 716 q 292 727 298 724 q 285 730 288 728 q 283 738 283 732 q 282 747 282 742 q 279 755 282 751 q 286 783 281 774 q 294 793 292 789 q 300 799 297 796 l 302 802 l 320 819 q 335 831 332 831 q 345 841 340 837 q 353 848 350 845 q 359 853 357 852 q 369 860 363 856 q 375 865 372 863 q 380 868 378 867 q 404 884 396 879 q 419 888 411 888 q 427 888 422 888 q 434 887 431 887 q 441 886 438 886 q 449 884 445 886 q 458 882 457 882 l 471 871 q 474 861 473 868 q 476 846 475 853 z "},"":{"ha":888,"x_min":-11,"x_max":872,"o":"m 872 476 q 869 467 869 469 q 869 461 869 464 q 869 446 869 452 q 864 434 868 439 q 858 410 860 418 q 852 396 856 401 q 848 385 849 387 q 846 381 848 382 q 841 363 844 370 q 833 349 838 355 q 828 338 830 343 q 823 331 826 334 q 812 317 821 324 q 802 301 808 305 q 793 284 799 292 q 781 270 788 277 q 766 255 769 258 q 761 251 762 252 q 752 245 754 247 q 747 243 750 244 q 723 228 734 231 q 712 219 713 221 q 709 217 711 217 q 691 212 694 213 q 685 210 688 212 q 669 205 680 208 q 661 199 663 202 q 656 194 658 197 l 648 191 l 640 189 q 618 186 624 184 q 595 179 606 180 q 575 170 590 174 q 566 169 568 170 q 559 170 563 168 q 549 166 553 167 q 538 164 544 165 q 516 158 521 160 q 503 153 511 156 q 492 152 496 151 q 484 155 487 153 q 465 149 471 149 q 457 148 460 148 q 441 147 446 148 q 427 142 435 146 q 414 148 418 148 q 403 145 410 148 q 383 140 392 142 q 363 141 374 138 l 349 145 q 335 144 342 144 q 323 145 328 145 q 307 148 312 148 q 284 146 290 145 q 275 148 278 146 q 272 124 273 137 q 273 109 271 111 q 294 112 288 111 q 302 114 300 113 q 322 113 317 114 q 330 110 327 111 q 359 89 353 95 q 368 77 365 83 q 372 69 370 73 q 381 57 374 65 q 377 39 377 41 q 376 35 377 38 q 373 30 374 33 q 369 22 370 26 l 358 12 q 335 -3 347 1 l 307 -7 q 293 -8 300 -8 q 281 -8 286 -8 l 255 -8 q 243 -9 248 -8 q 231 -9 237 -9 q 209 -8 216 -9 q 171 -12 178 -14 q 160 -12 164 -11 q 153 -14 156 -12 q 137 -16 145 -16 q 122 -16 129 -16 q 106 -15 114 -16 q 91 -12 98 -14 q 73 -7 76 -9 q 68 2 69 0 q 65 7 66 4 q 59 21 61 16 q 54 30 57 26 q 52 43 53 37 q 53 58 50 50 q 63 76 56 65 q 77 92 71 87 q 106 96 95 98 l 125 96 q 141 100 138 98 q 149 109 144 102 q 156 127 155 122 q 157 134 157 132 q 155 153 156 146 q 156 163 155 159 q 152 194 152 184 q 153 210 152 203 q 155 227 156 221 q 150 244 152 237 q 149 258 148 251 q 156 278 152 273 q 157 296 157 292 q 157 302 157 300 q 155 313 156 308 q 156 326 153 319 l 156 340 q 157 354 157 351 q 157 359 157 357 q 159 371 159 369 q 160 376 160 373 q 161 389 160 387 q 163 393 161 392 q 162 409 161 403 q 163 422 163 415 q 164 430 164 426 q 165 438 164 434 l 155 452 q 156 462 156 460 q 156 467 156 464 q 159 486 159 480 q 155 500 159 492 q 157 513 157 510 q 157 517 157 515 q 161 533 157 525 q 160 540 160 536 q 159 546 160 543 q 159 552 159 549 q 158 564 159 557 q 159 576 157 570 q 156 591 156 587 q 155 597 156 594 q 154 614 153 610 q 156 618 155 617 q 159 635 159 631 q 159 643 159 640 l 159 658 q 157 673 157 670 q 155 681 157 677 q 157 698 155 692 q 163 707 160 704 q 162 720 163 718 q 159 724 161 722 q 161 749 161 743 q 161 760 161 755 q 157 783 157 772 q 159 800 157 793 q 160 812 160 811 q 159 815 160 814 q 157 829 159 823 q 155 838 156 834 q 157 860 152 849 q 155 870 155 865 q 156 880 156 875 q 142 881 148 882 q 130 879 136 880 q 112 876 117 876 q 103 876 107 876 q 85 874 90 875 q 76 873 80 873 q 65 874 69 875 q 58 873 61 873 q 45 874 52 873 q 33 878 39 875 q 18 884 22 882 q 12 888 15 886 q 5 891 12 888 q 1 895 3 892 q -3 899 -1 897 q -5 906 -5 905 q -9 926 -11 921 q -9 936 -8 932 q -11 947 -11 941 q -7 963 -11 954 q 5 978 0 974 q 28 991 23 990 q 50 994 35 993 q 71 990 64 994 q 98 989 83 986 q 125 991 113 991 q 132 992 129 991 q 141 996 134 993 q 155 994 152 993 q 159 994 157 994 q 170 996 165 997 q 179 996 175 996 q 197 997 191 996 q 209 998 202 998 q 223 997 220 997 q 229 997 227 997 q 243 995 240 996 q 250 994 247 994 q 269 996 264 997 q 275 994 273 996 q 295 996 292 996 q 301 996 298 996 q 317 995 312 996 q 326 993 321 994 q 336 989 331 990 q 343 986 340 987 q 350 985 347 985 l 369 962 l 381 933 l 372 911 l 366 906 q 357 892 361 901 q 329 882 345 887 q 302 878 313 878 q 294 878 298 878 q 285 880 290 879 q 286 860 282 873 q 282 850 282 856 l 282 846 q 282 840 281 844 q 288 826 282 834 q 304 833 297 827 q 323 831 311 831 q 349 830 335 830 q 372 831 362 830 q 385 834 382 833 q 418 834 403 840 q 453 838 438 830 l 469 833 q 484 838 476 836 q 512 833 500 834 q 537 830 524 831 q 556 829 551 830 q 566 825 562 827 q 590 821 583 822 q 601 819 597 819 q 610 818 602 818 l 617 818 l 625 815 q 631 812 628 814 q 636 811 633 811 q 665 799 658 804 q 679 793 671 796 q 694 788 686 791 q 713 779 703 785 q 730 760 723 772 q 744 750 741 753 q 750 746 747 747 q 753 744 751 745 q 758 742 755 743 q 764 738 761 741 q 768 732 765 735 q 773 727 773 727 q 783 711 780 716 q 788 703 785 707 q 796 692 792 697 q 804 681 800 686 q 813 671 810 674 q 822 665 817 669 q 832 647 830 650 q 834 643 834 644 q 845 613 845 625 q 849 604 848 606 q 852 598 850 601 l 853 595 q 854 586 853 590 l 854 579 q 856 576 854 578 q 860 554 859 563 q 860 536 861 545 q 863 522 861 528 q 865 513 864 517 q 869 502 868 507 q 871 490 871 496 l 872 476 m 745 524 q 741 548 741 541 q 734 574 734 567 q 726 591 728 585 q 720 605 723 598 q 709 617 711 612 q 701 633 703 629 q 696 640 699 637 q 682 654 686 650 q 674 665 677 659 q 652 681 658 671 q 636 693 644 685 q 624 696 629 694 q 613 701 618 697 q 600 705 606 704 q 587 707 594 705 l 572 707 q 563 707 567 707 q 552 709 559 708 q 541 713 545 712 q 525 713 536 713 q 510 716 514 716 q 502 716 506 716 q 492 720 494 719 q 488 723 490 722 q 466 722 472 722 q 457 722 460 722 q 436 723 442 723 q 423 720 430 723 q 404 727 410 727 q 395 726 399 727 q 376 721 381 722 q 369 720 372 720 q 355 718 363 718 q 346 716 350 716 q 335 718 340 718 q 317 719 321 718 q 308 717 313 718 q 296 718 302 716 q 281 716 292 716 q 279 694 283 704 q 278 682 279 685 q 277 671 277 678 q 277 654 278 658 q 277 647 277 650 q 279 636 279 640 q 278 629 279 632 q 275 609 278 616 q 276 601 275 605 q 277 593 277 597 l 277 570 q 279 553 279 563 q 277 541 277 543 q 277 537 277 538 q 278 518 278 524 q 278 507 278 513 q 277 494 277 496 q 278 490 278 492 q 281 470 281 476 q 281 460 281 464 q 281 446 281 449 q 282 441 282 444 q 279 412 286 425 q 280 399 281 401 q 279 396 279 397 q 277 358 281 380 q 278 347 277 350 q 282 342 279 345 q 277 327 277 327 q 279 312 279 316 q 279 305 279 308 q 278 286 279 296 q 275 264 277 275 q 286 263 282 264 q 296 259 290 262 q 315 257 311 258 q 321 256 319 256 q 334 257 328 256 q 345 256 339 258 q 357 259 355 259 q 359 259 358 259 q 372 261 366 260 q 381 262 377 262 q 395 262 391 262 q 407 262 400 263 q 440 264 429 263 q 460 264 452 264 q 472 266 468 266 q 480 269 476 266 q 491 273 488 271 q 496 275 494 274 q 507 278 502 278 q 517 279 513 278 q 543 288 534 288 q 551 288 547 288 q 563 290 556 289 q 582 294 571 294 q 600 304 591 301 q 620 312 609 308 q 635 318 632 317 q 642 320 639 319 q 652 325 647 323 q 661 330 656 327 q 679 350 675 345 q 685 361 682 355 q 696 368 693 366 q 700 372 699 370 q 709 385 709 384 l 723 411 q 729 418 727 414 q 732 425 731 422 q 734 439 734 435 q 735 445 734 442 q 741 461 735 452 q 743 474 743 472 q 745 477 743 476 q 743 492 743 483 q 744 508 746 503 q 745 524 742 513 z "},"":{"ha":765,"x_min":-12,"x_max":734,"o":"m 732 412 q 728 384 728 393 q 728 377 728 381 q 731 366 728 373 q 727 353 727 355 q 727 349 727 350 q 722 327 723 332 q 722 319 722 321 q 718 302 719 308 q 716 290 718 296 q 711 261 712 267 q 708 248 709 255 q 700 237 703 243 l 697 232 q 690 222 694 227 q 681 213 684 213 q 671 203 674 206 q 666 193 669 199 q 656 189 659 190 q 650 186 652 187 q 632 171 643 178 q 622 162 624 164 q 617 159 620 160 q 604 148 605 148 l 601 146 q 582 137 590 138 q 559 121 571 126 q 540 113 548 115 l 525 102 q 496 96 511 103 q 484 95 486 95 q 479 94 481 95 q 472 91 476 92 q 463 90 468 90 q 437 79 454 79 q 420 81 427 85 q 399 87 406 85 q 391 91 393 88 l 347 95 q 302 113 320 103 q 286 117 294 113 q 271 121 275 119 q 263 125 266 123 l 263 109 q 267 92 266 98 q 266 80 267 87 q 269 62 269 66 q 269 53 269 57 q 271 38 271 45 q 269 25 269 27 q 269 20 269 23 l 269 4 q 270 -5 270 0 q 271 -18 270 -11 l 267 -38 q 275 -64 270 -50 q 278 -75 278 -69 q 278 -85 278 -80 l 278 -106 q 279 -117 278 -113 q 279 -125 279 -122 q 281 -130 279 -129 l 281 -141 q 280 -149 281 -145 q 279 -153 279 -152 q 279 -159 278 -156 q 281 -168 279 -161 q 279 -183 279 -179 q 279 -191 279 -187 q 270 -210 273 -203 q 264 -221 267 -216 q 261 -234 263 -228 q 252 -247 259 -240 l 236 -255 q 222 -262 225 -260 q 214 -267 220 -263 q 201 -271 205 -270 q 195 -274 198 -273 q 167 -274 180 -278 q 146 -267 160 -273 q 138 -268 142 -264 q 132 -270 134 -271 q 124 -271 129 -271 q 115 -271 119 -271 l 104 -271 l 58 -273 q 50 -269 54 -271 q 38 -263 42 -263 q 13 -248 20 -256 q 3 -229 5 -240 q 1 -201 -3 -214 q 8 -186 7 -190 q 12 -178 9 -182 q 24 -170 16 -174 q 40 -162 31 -165 q 56 -156 49 -159 q 68 -153 64 -153 l 84 -153 q 100 -152 92 -151 q 117 -149 110 -148 q 129 -151 123 -149 q 144 -149 144 -153 q 148 -146 145 -145 q 155 -132 155 -136 q 155 -125 156 -127 q 152 -107 155 -118 q 151 -92 149 -94 q 151 -83 152 -90 q 149 -72 149 -76 q 148 -65 149 -68 l 148 -14 l 149 1 q 144 16 149 4 q 145 35 145 28 q 148 45 145 41 q 140 85 152 64 q 142 102 142 96 q 138 121 142 109 q 140 142 141 136 q 140 153 140 149 q 140 184 138 170 q 141 214 141 199 q 138 228 138 224 q 138 235 138 232 q 140 255 137 241 q 136 277 137 270 q 132 290 134 283 q 128 304 129 297 q 126 321 127 312 q 129 336 126 328 q 128 354 129 347 q 127 368 127 361 q 127 380 127 374 q 129 393 127 387 q 123 420 123 406 l 123 444 q 123 463 123 458 q 125 471 123 468 q 126 484 126 479 q 126 491 126 488 q 129 522 129 514 q 130 532 129 529 q 128 555 127 547 q 129 571 129 564 q 130 584 129 578 q 130 597 130 590 q 127 614 127 609 q 127 621 127 618 q 130 646 130 640 q 130 656 130 652 q 130 670 130 663 q 129 685 129 677 l 123 703 q 127 718 126 715 q 127 722 127 720 q 125 747 126 736 q 125 769 125 758 q 127 782 126 780 q 126 787 127 784 q 126 819 122 810 q 124 837 125 831 q 123 846 123 842 q 100 850 109 850 l 91 850 l 80 853 q 68 856 69 856 q 58 857 62 857 q 46 856 53 856 q 33 861 35 860 q 28 864 30 863 q 23 865 26 864 q 9 865 20 865 l -12 911 q -8 926 -9 921 q -4 937 -7 932 q 3 944 -1 941 q 9 949 7 947 q 33 960 28 958 q 38 962 37 962 q 59 966 50 967 q 76 962 68 964 q 100 963 94 964 q 113 959 107 962 q 132 962 127 962 q 140 962 137 963 q 154 958 151 959 q 159 958 157 958 l 220 959 q 240 944 236 949 q 262 905 266 925 q 258 888 259 892 q 256 875 258 883 l 243 863 q 244 849 244 852 q 244 845 244 846 q 243 825 244 830 q 243 818 243 821 q 245 795 245 803 q 245 783 245 788 q 244 769 244 772 q 243 764 244 766 q 246 754 245 758 q 247 747 247 750 q 252 705 252 727 q 248 663 251 682 q 250 650 251 656 q 247 642 248 644 q 255 620 247 629 q 272 627 267 625 q 279 628 277 628 q 298 635 293 633 q 308 639 304 637 q 328 644 319 644 q 345 647 343 646 q 359 650 355 648 q 365 655 362 651 q 380 656 376 654 q 396 665 385 658 q 407 664 403 663 q 415 665 411 665 l 431 665 q 443 667 438 667 q 450 669 448 667 q 454 670 453 669 q 470 671 465 671 q 477 670 475 670 q 488 669 484 669 q 498 670 492 670 l 515 665 q 532 665 526 666 q 545 665 538 666 q 559 663 552 665 q 574 661 570 661 q 586 665 578 662 q 599 658 595 659 q 605 655 602 656 q 618 650 614 651 q 631 650 621 650 q 637 640 635 642 q 640 637 639 637 q 650 631 648 632 q 655 628 652 629 q 661 626 658 627 q 673 623 663 625 q 681 605 673 613 q 689 600 685 601 l 692 589 q 693 581 693 585 q 694 575 693 576 q 704 560 700 567 q 711 548 708 553 q 718 534 715 541 q 720 515 720 526 q 726 504 723 510 q 727 490 730 498 q 728 475 730 479 q 731 465 731 468 q 731 460 731 463 l 732 450 q 731 435 731 438 q 731 430 731 433 q 733 421 732 425 q 732 412 734 418 m 614 450 q 611 475 612 468 q 610 486 610 483 q 602 508 608 495 q 593 532 597 521 l 581 545 q 563 545 574 548 q 525 556 545 553 q 503 556 515 553 q 494 556 499 556 q 486 559 490 556 q 472 555 475 556 q 467 555 469 555 q 427 547 445 549 q 412 541 415 541 q 397 540 403 537 q 385 538 391 538 q 376 537 380 537 q 366 534 370 534 q 358 533 362 533 q 346 530 345 530 l 343 529 q 323 521 328 525 q 312 510 319 517 q 296 503 298 503 q 285 493 289 496 q 275 487 281 490 q 268 478 273 483 q 259 469 263 473 l 245 456 l 243 435 q 248 414 247 425 q 245 396 248 404 q 245 378 247 381 q 247 355 251 366 q 250 340 250 345 q 248 331 250 335 q 253 314 251 320 q 258 297 255 308 q 258 286 258 289 q 260 277 259 282 l 262 262 q 270 257 267 258 q 278 256 273 256 q 296 245 292 247 q 310 235 307 237 q 316 231 313 232 q 334 221 328 224 q 345 214 340 218 q 362 210 351 213 q 380 203 373 206 l 397 203 q 425 199 419 198 q 439 209 431 201 q 467 209 458 205 q 478 213 473 212 q 488 217 483 214 q 494 224 491 221 q 502 233 496 228 q 511 234 509 233 q 517 236 514 235 q 528 241 526 240 q 530 244 530 243 q 551 258 545 255 q 560 263 557 262 q 585 290 575 285 l 597 301 l 600 320 q 604 340 601 334 q 608 372 608 365 q 610 391 609 380 q 612 410 612 399 q 612 429 613 420 q 612 439 612 433 q 614 450 612 445 z "},"":{"ha":777,"x_min":-35,"x_max":738,"o":"m 738 940 q 728 918 735 929 q 719 905 722 907 q 703 892 708 898 q 697 886 699 887 q 691 877 692 880 q 689 867 690 873 q 675 859 678 863 q 669 844 671 854 q 659 828 662 833 q 652 819 655 823 l 643 802 q 637 792 640 798 q 632 780 632 781 q 616 759 618 765 q 612 741 613 753 q 597 726 601 731 q 591 718 594 722 q 587 707 589 712 q 579 699 585 703 q 572 684 576 692 q 562 670 567 677 q 553 656 555 659 q 549 651 552 654 q 540 634 543 637 q 534 628 537 631 l 522 609 q 514 595 518 602 q 503 585 510 589 q 495 570 496 572 q 483 556 490 560 l 468 536 q 460 520 461 524 q 457 511 460 517 q 442 492 448 496 q 429 473 431 477 q 427 461 427 468 q 414 448 416 452 q 410 442 411 445 q 395 414 400 423 q 381 397 391 406 q 377 390 380 395 q 372 380 374 385 q 365 368 368 374 q 358 362 361 365 l 354 358 q 351 357 353 357 q 343 342 345 346 q 340 338 342 339 q 329 320 332 326 q 321 311 326 315 q 315 300 319 305 q 308 290 312 294 q 302 275 308 282 q 294 262 296 264 q 290 259 292 260 q 281 246 283 248 q 278 243 279 244 q 267 223 270 231 q 259 203 264 216 q 251 195 252 198 q 251 189 250 193 q 239 177 243 180 q 233 171 236 174 q 224 154 228 159 q 217 146 221 149 q 197 117 210 132 q 194 109 195 114 q 190 100 193 104 q 183 90 187 95 l 194 90 q 202 90 198 90 q 209 91 206 91 q 216 91 212 90 q 222 94 220 92 l 231 96 l 240 96 q 254 95 250 96 q 269 98 258 95 l 279 100 q 288 102 283 100 q 294 103 290 103 q 300 104 297 103 q 313 107 307 106 q 326 109 319 109 q 339 108 332 109 q 353 107 346 107 q 360 108 357 107 q 368 109 363 109 q 380 111 374 110 q 392 111 387 111 q 399 113 396 113 q 407 117 401 114 l 423 117 q 431 117 426 117 q 441 115 435 117 q 450 117 445 115 q 461 119 456 118 q 473 122 467 121 q 483 121 477 121 q 490 120 487 121 q 496 119 494 119 q 520 123 507 122 q 544 117 533 123 q 558 118 552 118 q 568 118 564 118 q 579 121 575 121 q 586 123 583 122 q 589 138 586 133 q 587 150 587 148 q 587 153 587 152 q 586 171 583 160 q 585 180 586 175 q 579 199 585 186 q 584 210 583 208 q 585 216 585 213 q 585 226 585 224 q 582 231 585 228 q 582 259 581 250 q 583 282 586 271 q 582 289 582 285 q 582 296 582 293 q 581 304 582 300 l 581 312 q 580 319 581 315 q 581 326 579 323 q 582 335 582 332 q 582 340 582 338 q 583 351 583 347 q 582 358 582 355 q 591 393 581 384 q 614 407 602 401 q 651 401 636 412 q 667 389 665 391 q 670 387 669 388 q 679 380 675 384 q 686 370 682 377 q 691 353 689 359 q 696 339 693 346 q 697 326 697 334 q 694 312 697 319 q 694 302 694 307 q 692 293 693 298 q 694 276 694 282 q 694 264 694 270 l 697 237 q 699 224 697 229 q 700 214 700 218 q 703 209 700 210 q 702 195 701 198 q 703 190 703 191 q 703 180 703 184 q 704 172 704 176 q 704 153 705 163 q 706 127 707 134 q 704 114 705 119 q 707 96 707 99 q 707 92 707 94 q 708 79 708 83 q 707 72 708 76 q 703 49 703 64 l 703 35 q 693 28 699 33 q 681 14 682 20 q 670 11 675 12 q 661 8 665 9 q 650 5 655 7 l 618 5 q 604 1 609 3 q 593 0 600 -1 q 586 -1 589 -3 q 576 -4 583 1 q 563 0 566 0 q 557 0 560 0 q 550 -1 555 0 q 538 -1 545 -1 q 529 -1 532 1 q 521 -1 526 -4 q 507 -2 513 -3 q 496 0 500 -1 q 472 -3 481 -3 q 456 -4 463 -4 q 422 -5 433 -4 q 404 -11 411 -7 q 373 -8 380 -7 q 361 -11 368 -9 q 350 -11 355 -12 q 342 -14 345 -14 q 335 -15 339 -14 q 326 -14 330 -15 q 320 -14 323 -14 l 297 -14 l 278 -15 q 264 -16 267 -16 q 254 -15 260 -16 q 240 -18 244 -18 q 233 -19 236 -19 q 205 -24 212 -26 q 192 -27 194 -27 q 189 -27 190 -27 q 172 -31 178 -31 q 159 -31 161 -31 q 153 -33 156 -31 q 142 -36 146 -35 q 134 -37 137 -37 q 123 -39 127 -38 q 117 -39 119 -39 q 106 -42 114 -39 q 99 -43 102 -43 q 87 -42 92 -43 q 77 -41 81 -41 q 69 -39 72 -41 q 39 -28 53 -37 q 23 -16 24 -19 l 16 0 q 14 8 14 7 q 11 18 14 9 q 11 35 9 27 q 12 45 12 43 q 14 62 11 56 q 19 72 16 68 q 26 80 20 75 l 30 84 l 33 90 q 38 96 35 96 q 48 113 45 107 q 54 121 52 118 q 64 134 61 132 q 69 140 66 137 q 80 156 80 156 q 86 171 83 164 q 96 182 90 178 q 104 195 102 190 q 112 208 107 201 q 121 221 117 214 q 140 259 140 251 q 153 271 151 269 q 157 275 155 274 q 162 289 161 286 q 163 294 163 292 q 178 315 174 309 q 187 327 183 321 q 197 342 191 336 q 210 361 205 354 q 218 373 214 368 q 224 382 221 378 q 229 393 227 387 q 235 399 232 396 q 241 406 237 403 q 251 419 244 414 q 260 434 252 423 q 274 454 264 444 q 294 491 278 475 q 307 507 298 499 q 314 524 309 514 q 326 540 319 534 q 338 555 328 543 q 350 574 349 568 q 359 586 358 585 q 373 608 369 602 q 382 621 377 614 q 399 643 388 632 q 407 659 399 652 q 413 669 410 665 q 419 675 416 673 q 432 698 427 692 q 442 708 437 704 q 449 718 448 715 q 453 724 450 722 q 456 729 456 727 q 457 739 457 731 q 470 750 467 746 q 476 757 473 754 q 486 769 483 768 q 492 785 488 780 q 502 793 495 791 q 510 811 507 802 q 515 818 513 814 q 521 826 517 822 q 526 838 521 830 q 532 845 529 842 q 536 852 533 848 q 539 857 538 854 q 541 863 540 860 q 548 878 548 876 q 540 886 545 887 q 529 883 534 886 q 515 887 518 887 q 510 887 511 887 q 494 886 498 886 q 487 886 490 886 l 471 886 q 449 887 454 890 q 434 884 437 884 q 430 884 431 884 q 418 885 423 884 q 408 886 414 886 l 380 886 q 372 884 376 884 q 366 884 369 884 q 362 883 363 884 l 346 880 q 334 879 331 878 q 315 880 319 879 q 309 880 312 880 q 290 880 298 880 q 270 879 281 880 q 262 877 266 878 q 254 876 259 876 q 239 878 241 879 q 231 875 236 878 q 216 878 220 878 q 210 878 213 879 q 189 880 191 879 q 172 880 178 882 q 164 880 168 880 q 155 879 160 879 q 136 880 140 880 q 126 879 133 879 q 115 882 117 882 q 111 882 113 882 q 88 880 92 882 l 92 864 q 90 849 92 857 q 93 834 91 844 q 96 815 95 825 q 98 798 98 806 q 99 785 99 789 q 100 777 99 783 q 100 766 100 772 q 102 753 100 760 q 95 739 99 745 q 88 728 92 734 q 81 722 84 723 q 43 703 69 703 q 24 709 31 705 q 14 718 18 713 q 3 726 7 724 q -3 731 0 728 q -7 734 -5 732 q -12 746 -9 741 q -18 762 -18 760 q -20 781 -19 776 q -23 793 -20 787 q -22 812 -22 807 q -24 821 -23 817 q -24 847 -23 833 q -33 879 -26 861 q -30 897 -30 891 q -30 907 -30 903 q -33 952 -35 945 q -13 986 -22 978 q 11 1001 -4 994 q 26 997 20 1000 q 43 996 34 1000 q 79 998 58 998 q 113 994 100 997 q 165 990 138 998 q 178 991 175 991 q 183 991 180 991 q 203 997 191 996 q 218 998 214 998 q 224 996 222 997 l 251 996 q 273 996 269 996 q 281 997 278 996 l 343 1000 q 361 1002 350 1002 q 391 1001 382 1002 q 410 1000 399 1000 q 419 1001 416 1001 q 425 1001 422 1001 q 437 1002 433 1002 q 445 1002 442 1002 q 460 1000 454 1002 q 476 1003 471 1002 q 488 1004 481 1004 l 515 1005 q 526 1005 518 1005 q 544 1006 534 1005 q 553 1009 548 1008 q 562 1012 557 1010 q 571 1015 567 1013 l 579 1015 q 590 1012 585 1015 l 609 1013 q 616 1012 612 1012 q 621 1011 618 1012 q 624 1010 623 1010 q 639 1008 636 1009 q 643 1008 642 1008 q 655 1011 651 1010 q 663 1013 659 1012 q 673 1010 669 1010 q 682 1010 678 1010 l 690 1010 q 697 1006 693 1009 q 712 1001 705 1001 q 720 988 719 990 q 724 985 722 986 q 736 964 734 970 q 738 954 738 958 l 738 940 m 509 1267 q 507 1254 507 1257 q 507 1248 507 1251 q 503 1232 507 1240 q 495 1221 498 1223 q 484 1208 488 1210 q 472 1199 479 1206 q 461 1187 468 1194 q 452 1176 454 1179 q 448 1172 449 1173 q 433 1159 437 1161 q 426 1154 429 1157 q 422 1152 425 1153 q 418 1149 420 1152 q 411 1145 414 1146 q 406 1141 408 1142 q 401 1138 403 1139 q 397 1137 400 1137 q 376 1114 382 1116 q 357 1104 366 1105 q 342 1103 349 1103 q 314 1107 323 1105 q 294 1112 305 1108 q 283 1124 286 1122 q 278 1130 281 1127 q 269 1138 274 1133 q 260 1152 263 1143 q 251 1165 255 1157 q 236 1180 241 1172 q 203 1211 217 1194 q 189 1244 189 1229 q 189 1258 190 1248 q 190 1272 187 1268 l 198 1297 q 222 1304 213 1305 q 241 1308 231 1303 q 255 1303 251 1303 q 264 1306 259 1303 q 282 1288 273 1297 q 297 1279 292 1279 q 305 1268 305 1268 q 308 1265 307 1265 q 321 1249 317 1253 q 328 1240 326 1244 q 343 1227 332 1234 q 355 1234 354 1234 q 357 1237 355 1234 q 369 1246 363 1242 q 381 1252 374 1249 q 394 1266 391 1263 q 400 1272 397 1270 q 429 1291 411 1287 l 442 1299 q 457 1302 448 1302 q 473 1301 469 1302 q 480 1297 477 1299 q 494 1290 491 1291 q 498 1287 496 1289 q 503 1279 505 1283 q 509 1267 502 1275 z "},"":{"ha":677,"x_min":18,"x_max":644,"o":"m 642 111 q 643 85 644 94 q 639 72 642 77 q 632 57 637 64 l 627 49 l 613 38 q 605 34 609 35 q 593 30 601 33 q 581 32 585 33 q 572 33 576 31 q 557 41 564 34 q 545 51 547 49 q 543 53 544 53 q 536 63 538 57 q 528 76 533 69 q 525 95 528 84 l 522 106 q 509 106 515 107 q 480 98 494 103 q 462 97 475 98 q 445 99 449 96 q 427 94 434 96 q 414 92 420 92 q 406 93 410 92 q 399 94 403 94 q 379 88 387 90 q 365 87 372 87 q 344 83 350 84 q 334 83 338 83 q 317 81 327 81 q 293 75 301 76 q 279 73 285 73 q 260 71 267 72 q 247 72 254 69 q 231 69 244 72 q 220 66 224 66 q 213 65 216 66 q 204 65 209 65 q 194 64 199 65 q 171 57 179 58 q 159 54 163 56 q 149 52 155 54 q 145 50 146 50 l 127 52 q 112 54 119 53 q 99 60 104 56 q 84 73 92 62 q 77 81 83 73 q 73 88 75 85 q 72 99 72 94 q 72 115 69 110 q 77 133 72 122 l 81 141 l 99 157 q 117 171 107 168 q 125 178 122 176 q 132 180 129 179 q 136 188 134 184 q 141 194 138 191 q 160 210 149 205 q 179 232 170 224 q 194 248 189 244 q 208 259 203 255 q 217 266 212 263 q 232 285 232 283 q 243 297 240 293 q 250 306 250 304 q 251 312 251 308 q 261 321 259 319 q 264 324 263 323 q 271 332 269 330 q 277 338 274 335 q 283 347 281 345 q 288 357 285 350 q 297 363 294 362 q 302 368 300 365 q 313 383 309 378 q 320 391 317 388 q 332 402 330 399 q 336 412 334 406 q 348 422 346 420 q 353 426 350 425 q 363 438 359 434 q 370 446 366 442 q 380 459 377 457 q 385 461 382 461 q 408 492 397 479 q 420 506 414 499 l 401 506 l 380 506 q 363 505 373 506 q 347 506 354 505 q 335 505 338 505 q 330 505 332 505 q 321 505 327 505 q 311 506 316 506 q 305 502 308 503 q 300 500 302 500 q 294 499 297 499 q 288 499 288 499 q 267 497 275 498 q 251 499 259 496 q 228 496 241 496 q 203 498 214 495 q 193 496 197 496 q 186 496 189 496 l 180 496 q 171 498 175 498 q 159 496 161 498 q 161 486 160 492 q 163 476 163 480 q 165 458 165 468 q 161 435 165 448 q 152 419 153 426 q 124 404 141 411 q 91 403 107 396 q 72 420 77 408 q 58 439 61 434 q 52 446 54 444 q 44 475 47 465 q 39 494 41 484 q 38 511 38 502 q 38 528 38 519 q 38 541 38 536 q 35 553 38 547 q 30 575 30 575 q 28 583 30 581 q 24 593 27 585 q 23 614 24 608 q 20 625 22 620 q 18 640 18 632 q 20 654 18 647 q 31 672 23 665 q 42 682 38 680 q 51 686 46 685 q 64 693 56 688 q 80 692 69 692 q 88 693 84 692 q 96 689 92 690 q 102 686 99 686 q 109 684 106 685 l 123 667 l 133 640 q 134 633 134 636 q 136 625 134 627 q 138 610 136 616 q 155 611 146 612 q 172 610 163 610 q 209 610 194 608 q 241 616 224 613 q 274 617 259 618 q 290 618 286 617 q 298 618 294 618 q 318 619 313 618 q 326 621 323 620 q 340 623 331 623 q 354 621 351 621 q 358 620 357 620 q 370 623 365 623 q 380 623 374 623 q 389 622 387 621 q 399 625 392 623 q 410 627 406 628 q 416 629 414 627 q 429 628 420 628 q 435 627 433 628 l 463 631 l 480 631 q 497 631 492 632 q 505 631 502 631 q 517 630 513 629 q 533 636 522 631 q 548 630 544 632 q 555 627 552 628 q 574 616 570 620 q 582 610 579 613 q 590 600 587 602 q 594 594 593 597 q 597 587 595 591 q 598 578 598 583 q 597 555 598 563 q 593 544 595 548 q 589 536 590 540 q 585 525 587 532 l 572 513 q 568 507 570 510 q 566 502 567 505 q 563 496 564 498 l 551 483 q 541 475 547 479 q 529 465 530 467 q 511 440 515 445 q 503 434 506 435 q 494 420 498 429 l 486 404 l 472 384 q 453 363 458 369 q 444 354 448 357 q 427 334 437 339 q 418 319 420 321 q 412 315 415 316 q 391 296 400 305 q 377 275 381 286 q 366 267 369 269 q 361 262 363 264 q 355 252 358 255 q 350 247 353 250 q 338 232 340 235 q 334 227 336 229 q 328 219 331 224 q 320 210 326 214 q 313 199 316 203 q 308 190 311 194 q 319 188 315 187 q 328 187 323 189 q 337 190 332 189 q 346 193 342 191 q 354 194 351 194 l 362 194 q 368 195 365 194 q 374 195 372 195 q 387 197 381 197 q 397 198 392 198 q 412 201 406 201 q 423 202 418 201 q 429 203 425 202 q 441 206 434 205 q 456 209 448 208 q 464 210 458 209 q 473 212 468 212 q 484 214 477 212 q 496 218 491 217 q 507 220 502 218 q 524 220 513 221 q 524 235 525 231 q 524 241 524 239 q 522 260 519 252 q 525 274 524 267 q 531 286 528 283 q 536 296 534 289 q 549 304 545 302 q 555 307 552 305 q 577 313 571 312 q 593 308 583 313 q 613 294 602 304 q 625 285 618 289 l 632 259 q 633 247 632 252 q 634 242 633 244 q 635 237 635 240 l 635 233 q 637 208 637 216 q 637 193 637 199 q 640 170 640 174 q 640 164 640 165 q 640 147 642 152 q 637 138 639 142 q 642 120 642 125 q 642 111 642 115 m 495 906 q 494 893 494 897 q 494 887 494 890 q 489 871 494 879 q 481 860 484 863 q 470 847 475 849 q 458 838 465 845 q 448 826 454 833 q 438 815 441 818 q 434 811 435 812 q 419 798 423 800 q 412 793 415 796 q 409 791 411 792 q 404 788 407 791 q 397 784 400 785 q 392 780 395 781 q 388 777 389 779 q 384 776 387 776 q 362 753 369 755 q 344 743 353 745 q 328 742 335 742 q 300 746 309 745 q 281 751 292 747 q 270 764 273 761 q 264 769 267 766 q 255 777 260 772 q 247 791 250 783 q 237 804 241 796 q 222 819 228 811 q 189 850 203 833 q 175 883 175 868 q 175 897 176 887 q 176 911 174 907 l 184 936 q 208 943 199 944 q 228 947 217 943 q 241 943 237 943 q 251 945 245 943 q 269 927 259 936 q 283 918 278 918 q 292 907 292 907 q 294 905 293 905 q 308 888 304 892 q 315 879 312 883 q 330 867 319 873 q 341 873 340 873 q 343 876 342 873 q 355 885 350 882 q 368 891 361 888 q 380 905 377 902 q 387 911 384 909 q 415 930 397 926 l 429 939 q 444 941 434 941 q 460 940 456 941 q 467 936 464 939 q 480 929 477 930 q 484 926 483 928 q 490 918 491 922 q 495 906 488 914 z "},"":{"ha":661,"x_min":47,"x_max":671,"o":"m 671 216 q 647 168 671 184 q 614 153 631 157 q 581 156 597 149 q 566 155 570 155 q 560 156 563 156 q 515 152 533 153 q 486 153 499 149 q 469 148 477 148 q 458 144 463 145 q 452 141 454 142 q 442 137 448 138 q 426 138 437 136 l 400 164 q 381 195 392 174 q 386 211 384 206 q 391 222 388 216 q 397 231 396 229 q 399 239 397 233 q 408 245 404 243 q 414 250 411 247 q 422 258 420 256 q 425 260 423 260 q 436 281 433 274 q 442 294 439 288 q 447 302 445 298 q 452 311 449 307 l 457 319 l 463 327 q 466 333 465 330 q 468 338 467 336 q 478 352 475 349 q 484 358 481 355 q 492 370 491 369 q 494 373 492 372 q 502 387 499 384 q 500 401 500 397 q 496 407 499 404 q 481 401 486 404 q 473 395 477 397 q 462 382 465 385 q 456 377 458 380 q 445 363 450 369 q 439 359 442 361 q 433 354 435 357 q 425 347 429 350 l 395 345 q 376 355 384 347 l 355 361 l 347 396 q 351 407 349 401 q 357 420 354 418 q 372 435 358 430 q 386 448 381 444 q 393 456 391 453 q 413 475 407 469 q 425 486 419 481 q 438 494 433 491 q 444 498 441 496 q 454 503 448 500 l 480 513 l 496 514 q 514 510 506 515 q 527 508 525 509 q 529 506 529 507 q 543 502 538 505 q 551 498 548 499 q 572 483 564 486 q 578 481 576 481 l 583 473 q 587 468 585 471 l 590 465 q 597 460 594 463 q 606 452 600 458 q 606 442 605 445 q 614 433 608 439 q 611 420 612 423 q 610 416 610 418 q 611 408 612 411 q 610 399 610 404 q 610 389 610 393 q 608 380 609 385 q 607 370 608 373 q 605 365 606 368 q 597 342 600 349 q 593 334 595 336 q 585 319 591 326 q 579 313 582 315 l 563 288 q 553 269 557 273 q 550 260 551 262 q 551 254 549 258 q 570 252 566 252 q 579 255 575 252 q 595 258 591 258 q 601 259 598 258 q 609 260 604 259 q 621 258 614 260 q 638 256 632 256 q 655 254 644 255 q 659 244 658 247 q 667 236 661 241 q 669 223 669 227 q 671 216 670 220 m 179 589 q 178 576 179 582 q 178 566 178 570 q 171 550 172 555 q 167 543 170 545 q 159 530 161 533 q 155 524 157 526 l 151 521 q 133 517 137 517 q 126 517 129 517 q 115 520 119 519 q 102 521 111 521 q 87 537 87 528 q 77 552 87 547 l 71 585 q 68 597 68 591 q 71 606 69 602 q 72 625 72 620 q 72 633 72 631 q 75 646 75 644 q 72 651 75 648 q 72 675 72 665 q 73 697 72 685 q 70 730 71 709 q 68 758 69 751 q 67 768 68 765 q 65 774 66 772 q 60 781 62 779 q 56 791 58 784 q 53 800 53 798 q 52 806 53 803 q 52 821 50 812 q 60 837 53 829 q 66 848 62 844 q 76 854 69 852 q 100 857 85 857 q 119 856 115 857 q 143 848 136 853 q 154 839 151 844 q 159 827 157 834 q 165 814 161 821 q 169 796 170 799 q 171 781 168 793 q 170 755 170 769 q 172 732 171 742 q 176 715 176 720 q 176 704 176 711 q 175 690 175 697 q 176 675 175 680 q 178 667 176 671 q 176 661 176 663 q 176 656 176 658 q 175 652 175 654 q 174 630 174 636 q 174 621 174 624 q 179 589 179 606 m 475 834 l 473 830 q 473 814 473 818 q 471 807 472 810 q 467 800 468 803 q 464 793 467 796 q 458 773 461 779 q 453 765 456 768 q 450 754 450 757 q 450 747 449 751 q 443 734 444 736 q 444 728 442 731 q 430 711 433 718 q 425 690 427 704 q 416 677 418 680 q 414 675 415 675 q 410 666 411 669 q 407 661 408 663 q 401 650 404 655 q 396 637 399 644 q 393 631 393 635 q 389 624 392 627 l 377 591 q 368 576 370 581 q 361 567 365 571 q 351 543 354 552 q 345 522 347 533 q 338 509 342 514 q 330 496 334 503 q 319 468 328 481 q 317 455 319 461 q 309 445 316 449 q 298 420 305 435 q 288 397 292 406 q 286 392 286 395 q 285 387 286 389 l 282 381 q 278 374 279 377 q 277 370 277 373 q 275 368 277 369 q 258 341 263 351 q 250 324 252 331 q 241 307 244 311 q 232 290 236 296 q 224 278 228 285 q 220 262 222 271 q 213 247 217 254 l 206 227 l 203 218 q 202 214 202 216 q 201 212 202 213 q 199 209 199 210 q 191 193 194 199 q 183 183 189 186 q 172 165 172 168 q 165 155 171 161 q 159 140 161 145 q 156 133 157 136 q 154 128 155 130 q 153 118 153 126 q 140 109 142 111 q 137 106 137 107 q 99 95 111 96 q 80 99 87 94 q 71 106 75 102 q 64 114 66 111 l 57 121 q 52 136 54 129 q 48 146 49 141 q 47 152 47 151 q 49 170 49 167 q 50 175 49 174 q 64 193 56 187 q 69 204 68 201 q 72 210 71 208 q 80 224 79 220 q 84 231 81 228 q 94 243 87 239 q 100 256 99 254 q 102 260 102 259 q 109 275 103 270 q 112 289 111 286 q 114 293 113 292 q 124 310 122 307 q 127 313 126 313 q 133 328 132 324 q 136 334 134 331 q 151 361 145 355 q 160 384 157 380 q 168 399 161 387 q 179 412 171 404 q 181 422 180 419 q 183 427 182 425 q 195 450 190 438 q 205 468 202 463 q 210 476 208 473 q 212 484 212 480 q 213 495 213 487 q 222 510 220 505 q 224 525 224 515 q 233 535 231 532 q 237 544 235 538 q 243 557 240 551 q 251 571 245 564 q 257 586 255 582 q 262 593 259 590 q 269 608 269 605 q 271 612 270 610 q 277 626 277 621 q 281 633 278 631 q 284 641 282 636 q 292 648 286 646 q 296 660 294 655 q 300 669 297 665 q 308 686 302 678 q 309 693 308 689 q 312 700 311 697 l 315 708 q 317 713 316 709 q 320 719 319 716 q 324 724 321 722 q 332 746 330 742 q 346 772 339 761 q 353 787 353 784 q 361 803 357 796 q 362 814 361 810 q 366 822 363 818 q 368 828 368 825 q 369 838 369 831 q 376 851 376 849 q 376 859 377 853 q 385 871 382 869 q 388 875 387 873 q 395 882 391 879 q 410 892 399 886 q 434 887 429 891 q 451 877 448 879 q 457 872 454 875 q 465 866 460 869 q 472 857 469 863 q 477 844 477 850 q 475 834 476 838 z "},"":{"ha":682,"x_min":45,"x_max":669,"o":"m 180 618 q 174 589 180 602 q 169 577 171 583 q 161 556 167 571 q 151 553 153 555 q 142 547 148 552 q 129 548 132 549 q 119 543 126 547 q 95 560 104 553 q 75 579 85 567 q 75 592 75 590 q 73 597 75 594 q 73 605 73 601 q 72 616 72 609 q 69 627 69 625 q 69 631 69 629 q 70 648 69 646 q 71 651 71 650 q 72 674 71 667 l 72 690 q 75 722 75 713 q 73 738 76 731 q 71 753 71 747 q 71 764 71 760 q 69 780 71 777 q 67 788 68 784 q 66 799 66 792 q 66 814 66 811 q 65 818 66 817 q 64 836 64 827 q 65 853 65 845 q 57 868 58 860 q 58 890 57 887 q 58 895 58 894 q 77 925 68 918 q 96 932 85 932 q 104 930 102 930 q 109 929 106 929 l 111 929 q 130 919 126 921 q 136 916 133 917 q 164 864 167 890 q 167 842 167 845 q 167 836 167 838 q 170 821 170 827 q 169 808 168 810 q 170 804 170 806 q 174 787 172 793 q 176 769 176 780 l 176 741 q 178 722 178 731 q 179 703 179 712 q 180 670 180 688 q 178 642 180 652 l 180 618 m 566 913 q 562 897 563 901 q 560 891 562 894 q 552 876 557 886 q 540 863 547 865 q 519 829 536 841 q 511 808 514 814 q 506 800 509 803 q 496 786 498 791 q 492 769 494 781 q 486 767 490 769 q 486 755 483 765 q 473 748 476 750 q 469 745 471 746 q 464 730 467 736 q 458 719 461 724 q 454 707 456 712 q 452 693 452 701 q 446 685 448 688 q 442 681 444 682 q 431 665 434 669 q 427 658 429 661 q 418 640 423 647 q 415 628 416 633 q 408 620 414 623 q 400 604 406 612 q 391 583 399 591 q 382 564 384 571 q 374 553 380 557 l 366 540 q 355 522 358 528 q 350 513 353 517 q 340 492 343 499 q 330 483 336 486 q 317 468 321 472 q 310 458 313 463 q 300 442 307 453 q 290 427 293 431 q 283 418 286 423 q 277 401 277 403 q 276 398 277 400 q 275 393 275 396 l 275 387 l 273 381 q 270 376 271 378 q 267 372 269 373 q 258 351 264 358 q 253 335 254 339 q 252 326 252 331 l 236 298 q 231 288 233 290 q 228 285 229 286 l 218 262 q 210 254 212 256 q 205 248 208 251 q 196 222 202 237 q 184 201 190 208 q 180 187 182 193 q 176 178 178 182 q 168 163 171 167 q 167 151 168 157 q 159 140 165 144 q 155 131 156 134 q 152 125 155 127 q 147 111 148 114 q 145 106 146 109 q 128 87 133 91 q 121 81 123 83 q 78 85 91 79 q 53 103 65 91 q 50 114 50 110 q 50 122 50 118 q 48 127 49 125 q 45 137 47 130 q 49 146 47 144 q 52 152 50 149 q 55 161 54 159 q 54 174 56 164 q 64 184 62 182 q 64 194 65 187 q 72 203 71 201 q 76 210 73 206 q 85 228 79 221 q 91 247 90 243 q 95 254 92 251 q 98 271 98 264 q 102 289 99 277 q 113 302 111 300 q 117 305 115 304 q 126 319 123 316 q 132 326 129 323 q 135 338 134 332 q 136 357 136 343 q 149 365 146 362 q 151 370 151 368 q 153 375 152 373 q 153 385 153 377 q 166 398 164 395 q 170 404 168 401 q 173 423 171 414 q 180 442 175 433 q 197 473 182 463 q 203 485 202 483 q 205 488 205 487 q 210 499 209 498 q 213 502 212 500 q 227 519 224 514 q 233 528 231 525 q 244 540 239 536 q 252 553 251 551 q 255 560 254 556 q 263 576 260 571 q 269 583 266 581 q 271 588 270 586 q 273 598 271 590 q 283 608 281 605 q 289 614 286 612 q 294 625 292 621 q 298 632 296 628 q 309 655 307 648 q 315 665 312 662 q 320 678 317 673 q 326 688 323 684 q 329 695 328 693 q 330 704 330 697 q 342 715 338 711 q 349 726 346 720 q 353 736 351 731 q 358 746 355 741 q 365 765 358 757 q 381 792 376 788 q 393 814 388 806 q 404 829 397 822 q 415 848 410 840 q 422 862 420 857 q 426 871 423 867 q 435 886 433 882 q 438 899 437 890 q 450 916 445 910 q 457 924 454 921 q 475 952 467 943 q 498 971 483 962 q 507 968 505 968 q 513 968 510 968 q 529 963 525 964 q 536 959 533 962 q 552 947 549 949 q 556 943 555 945 q 566 929 559 936 l 566 913 m 665 479 q 662 452 665 457 q 662 434 663 439 q 662 404 669 416 q 661 389 662 393 q 662 371 662 374 q 662 365 662 368 q 661 351 661 355 q 661 343 661 346 q 661 338 661 340 q 662 332 662 335 q 663 326 662 328 q 662 319 662 323 l 662 309 q 659 278 661 285 q 656 269 658 271 q 658 256 658 259 q 658 250 658 252 q 660 236 659 240 q 659 229 661 232 q 655 212 659 220 q 656 193 656 198 q 656 186 656 189 q 658 171 658 174 q 658 165 658 168 q 659 152 659 165 l 659 140 q 654 129 656 134 q 648 110 648 115 q 639 100 640 103 q 637 92 637 98 q 618 92 623 92 q 610 91 613 91 q 600 92 605 91 q 586 95 594 92 q 570 104 575 98 q 564 111 568 106 q 556 121 560 115 q 548 131 549 129 q 545 134 547 133 q 543 158 543 152 q 545 168 543 164 q 545 186 547 180 q 547 210 547 205 q 548 217 548 214 l 548 232 q 551 252 548 239 q 536 256 544 256 q 522 256 529 256 q 495 256 510 254 q 486 254 491 254 q 479 254 481 254 q 458 253 465 254 q 445 254 450 252 q 423 248 433 248 q 397 253 404 251 q 387 258 391 255 q 379 267 381 264 q 376 270 377 269 q 370 274 373 273 q 361 281 368 275 q 359 291 359 289 q 357 296 358 293 q 353 307 354 301 q 353 317 353 312 q 357 345 355 338 q 362 358 359 353 q 370 382 368 374 q 374 393 372 389 q 382 412 380 408 q 385 418 384 415 q 385 434 382 429 q 393 444 388 439 q 401 471 396 457 q 407 494 401 483 q 411 524 407 509 q 433 543 415 540 q 452 547 444 547 q 468 544 461 547 q 479 541 476 541 q 494 540 483 540 q 500 526 496 529 q 514 518 503 522 q 513 506 513 507 q 513 503 513 505 q 512 483 513 487 q 510 476 511 479 q 503 455 505 461 q 502 441 502 449 q 496 429 498 433 q 492 422 495 425 q 488 407 491 415 q 483 391 483 395 q 486 377 483 387 q 479 368 479 368 q 479 365 477 366 q 476 361 476 362 q 483 357 476 357 q 498 357 491 358 q 511 355 505 355 q 536 361 530 358 q 548 368 543 363 q 555 377 553 374 q 557 381 556 380 q 558 399 557 392 q 559 414 559 407 q 558 423 559 419 q 551 435 557 427 l 559 453 q 560 469 560 464 q 560 476 560 473 q 561 486 562 481 q 555 496 560 490 q 563 519 559 510 q 576 544 567 529 q 597 545 593 544 q 616 543 612 545 q 631 534 624 541 q 641 526 637 529 q 647 521 644 524 q 651 518 650 518 q 663 492 661 500 q 665 479 665 484 z "},"":{"ha":203,"x_min":31,"x_max":157,"o":"m 43 662 q 43 686 41 675 l 43 701 q 45 719 45 712 q 45 731 45 726 q 45 746 46 741 q 43 761 43 751 q 43 772 41 765 q 43 781 43 779 q 42 785 42 783 q 39 793 41 788 q 38 804 38 799 q 40 819 41 815 q 38 825 39 822 q 38 839 37 831 q 37 854 39 846 q 33 871 33 867 q 31 876 31 872 l 31 898 q 76 937 46 937 q 83 935 81 936 q 88 935 85 935 q 93 935 91 935 q 104 936 95 935 q 108 928 107 930 q 110 925 109 926 q 113 921 111 922 q 136 894 127 907 q 142 865 145 880 q 146 844 145 848 q 146 838 146 840 q 148 823 148 826 q 148 818 148 819 q 149 807 148 810 q 149 802 149 804 q 151 790 151 796 q 152 776 152 784 q 153 748 152 765 q 156 712 155 731 q 156 682 156 697 q 153 655 156 666 l 157 633 q 155 616 157 627 q 151 604 152 608 q 146 591 148 598 q 138 568 144 585 q 125 564 126 564 q 124 563 125 563 q 123 562 123 563 q 117 556 122 562 q 104 559 107 559 q 90 553 100 559 q 66 572 75 564 q 46 593 57 581 q 47 606 46 604 q 45 612 47 609 q 45 620 45 616 q 43 631 45 624 q 42 642 42 639 q 42 646 42 644 q 43 662 42 659 z "},"":{"ha":837,"x_min":35,"x_max":810,"o":"m 808 152 q 800 139 802 144 q 796 127 799 134 q 789 119 791 123 q 787 104 788 115 q 768 100 773 102 q 753 92 764 99 q 738 96 742 95 q 723 96 734 96 q 715 107 716 106 q 712 109 713 109 q 704 115 707 113 q 696 121 701 117 l 689 144 q 690 158 689 153 q 692 170 692 163 q 689 186 689 176 q 691 198 692 197 q 690 201 690 199 q 690 203 690 201 q 692 205 690 205 q 693 213 692 209 q 696 221 696 221 l 696 241 q 681 239 686 241 q 663 236 673 236 q 653 235 655 235 q 648 233 651 235 q 638 234 643 233 q 628 233 633 235 q 608 229 612 229 q 604 227 605 228 q 594 222 600 224 q 570 216 589 221 q 557 214 563 216 q 544 214 551 213 q 536 216 540 214 q 529 218 532 217 q 522 221 526 220 q 507 228 517 222 q 495 245 505 241 q 488 263 490 256 q 481 281 487 270 q 492 302 488 294 q 499 315 496 309 q 507 332 505 330 q 518 357 514 350 q 525 372 522 365 q 532 399 530 380 q 538 413 537 408 q 540 420 538 418 q 544 438 543 434 q 547 445 545 442 q 549 458 549 453 q 551 467 549 463 q 555 477 553 473 q 560 484 557 481 q 591 501 582 499 q 606 502 600 503 q 614 500 610 500 q 629 498 618 499 q 638 488 633 491 q 656 477 643 484 q 654 467 654 469 q 654 463 654 465 q 656 445 656 449 q 655 438 655 441 q 651 422 652 426 q 648 415 650 418 q 644 397 646 403 q 639 388 642 392 q 637 380 637 384 q 636 372 636 377 q 631 358 636 363 l 627 354 l 625 353 q 620 339 624 351 q 637 335 633 336 q 643 332 640 334 q 662 337 656 336 q 671 336 667 338 q 686 341 682 340 q 693 342 690 342 q 694 359 694 346 q 694 377 694 368 q 693 397 693 387 q 694 410 694 404 q 696 420 693 415 q 693 429 694 423 q 694 439 692 434 q 691 450 692 448 q 688 456 690 452 q 691 471 690 467 q 693 477 692 475 l 732 513 q 755 507 746 509 q 784 503 765 506 q 791 490 789 492 q 796 483 793 487 q 800 470 799 475 q 800 461 800 465 q 801 448 802 450 q 799 444 800 445 q 800 419 799 423 q 803 414 802 415 q 800 399 802 404 q 799 381 798 384 q 802 355 802 362 q 800 345 802 347 q 804 331 803 334 q 806 327 804 328 q 807 316 807 326 l 807 307 q 806 288 806 296 q 805 274 806 281 q 804 266 804 267 q 806 247 810 258 q 805 218 807 227 q 802 202 803 210 q 806 195 804 199 q 807 183 807 191 q 804 171 804 176 q 808 152 803 165 m 652 875 q 654 861 655 867 q 650 852 652 854 q 648 833 650 840 q 644 825 646 827 q 637 802 639 806 q 635 798 636 799 q 631 783 632 789 q 624 773 629 777 q 617 757 618 758 q 614 747 616 751 q 609 736 612 742 q 604 727 606 731 q 602 713 602 723 q 593 704 595 708 q 590 689 590 700 q 580 677 583 682 q 574 665 576 671 q 568 651 571 658 q 560 639 566 644 q 552 620 557 628 q 545 606 549 610 q 544 598 545 602 q 541 591 543 594 q 539 586 540 589 q 538 576 538 583 l 526 553 q 521 536 524 541 q 515 529 518 532 q 509 513 510 518 q 505 505 507 509 q 501 493 502 495 q 500 490 500 491 q 484 465 487 477 q 480 446 480 453 l 469 430 q 458 401 465 416 q 446 378 452 387 q 439 365 445 373 q 435 355 437 358 q 435 346 434 353 q 427 333 429 338 q 426 321 426 328 q 418 311 419 316 q 416 292 416 307 q 408 283 410 286 q 403 277 406 279 q 397 260 397 267 l 397 255 q 392 248 395 251 q 387 239 387 240 q 383 230 384 232 q 381 225 382 228 l 380 222 q 374 210 377 214 q 368 201 370 205 q 363 186 368 191 q 359 179 361 182 q 354 172 357 176 q 347 161 349 164 q 342 156 345 159 q 334 146 335 148 q 330 142 332 144 q 320 127 327 133 q 313 115 315 118 q 309 111 311 113 q 298 95 301 98 q 293 91 296 92 q 288 86 290 88 q 281 80 286 84 q 269 79 270 79 q 266 79 267 79 q 231 91 245 80 q 209 113 217 102 q 208 127 209 123 q 208 134 208 132 q 210 146 208 140 q 220 159 213 153 q 227 172 222 165 q 231 180 228 178 q 235 186 233 183 q 246 205 241 197 q 252 217 251 213 q 262 232 258 225 q 270 244 266 239 q 271 253 270 250 q 274 259 273 256 q 277 266 275 262 q 281 273 278 270 l 286 281 q 290 288 288 283 q 294 293 293 290 q 297 298 294 296 q 301 310 300 308 q 304 313 302 312 q 310 327 309 324 q 312 331 311 330 q 319 345 317 342 q 321 350 320 349 q 326 370 324 365 q 331 381 328 376 q 339 401 336 396 q 345 410 342 407 q 357 434 354 429 q 363 444 361 439 q 377 473 368 465 q 380 485 378 480 q 384 495 382 490 q 394 515 392 511 q 396 519 396 518 l 400 536 q 408 545 407 543 q 411 549 410 547 q 418 562 416 559 q 420 566 419 564 q 426 579 425 576 q 429 583 427 582 q 434 598 433 594 q 438 605 435 602 q 445 621 439 613 l 453 646 l 453 661 q 460 669 460 667 q 463 673 461 670 q 464 682 463 677 q 471 692 465 688 q 477 707 477 704 q 487 724 483 718 q 494 735 491 730 q 501 747 498 742 q 509 757 505 751 q 515 772 514 768 q 518 779 515 776 q 522 790 521 788 q 522 793 522 792 q 536 822 533 815 q 541 833 538 829 q 543 849 541 844 q 545 860 545 857 q 545 865 545 863 q 549 880 548 876 q 552 888 549 884 q 553 903 552 898 q 559 918 555 907 q 577 922 572 921 q 585 924 582 922 q 597 925 590 925 q 612 921 605 925 q 618 920 617 920 q 627 920 620 920 q 636 906 636 905 q 652 875 652 890 m 366 610 q 366 594 366 601 q 365 581 366 587 q 360 568 362 574 q 351 556 358 563 q 347 543 347 545 q 347 538 347 541 q 341 530 343 532 q 338 526 339 528 q 331 511 338 518 q 313 494 320 499 q 302 486 307 488 q 294 479 297 481 q 285 471 290 476 q 276 465 279 468 q 264 452 273 463 q 245 454 250 454 q 237 452 241 453 q 221 448 231 449 q 205 439 212 441 q 176 441 184 442 q 161 442 168 441 q 146 443 151 444 q 136 437 142 442 q 122 445 123 444 q 103 451 107 450 q 92 452 99 452 q 81 463 85 460 q 75 468 77 465 q 58 481 64 475 q 49 494 53 487 q 42 507 43 505 q 39 513 41 510 q 36 526 37 524 q 35 530 35 529 q 36 554 35 549 q 37 568 37 559 q 52 574 47 572 q 60 579 56 576 q 87 570 71 579 q 110 556 104 560 q 127 549 123 549 q 134 549 132 548 l 174 544 q 194 548 186 545 q 207 555 203 555 q 212 555 210 555 q 231 568 225 567 q 244 578 237 575 q 253 593 251 589 q 256 600 255 597 q 259 618 255 609 q 250 625 254 623 q 241 629 245 627 q 233 629 236 629 q 227 628 229 628 q 212 626 216 627 q 206 624 209 625 l 189 621 q 181 618 186 620 q 174 616 176 617 l 157 610 q 134 616 142 610 q 119 629 125 623 q 109 640 113 635 q 98 652 104 646 q 99 681 95 674 q 101 692 100 688 q 106 704 102 697 q 115 712 110 708 q 126 719 119 716 q 138 730 133 726 q 149 738 142 735 q 168 760 160 753 q 183 770 175 768 q 189 777 186 773 q 194 784 191 781 l 202 792 q 208 799 205 795 q 212 804 210 802 q 216 807 214 806 q 202 808 209 808 q 190 808 195 808 q 178 807 183 808 q 167 806 172 806 l 155 806 q 142 805 146 806 q 136 806 138 804 q 107 807 118 804 q 90 815 96 810 q 83 820 85 818 q 77 825 80 822 q 72 829 75 827 q 61 838 69 831 q 60 849 61 845 q 58 856 60 853 q 75 901 56 875 q 92 905 88 905 q 107 905 103 905 q 118 909 111 906 q 138 906 133 906 q 148 906 144 906 q 156 905 152 906 q 164 905 160 905 q 174 905 172 905 q 179 906 176 905 q 212 909 198 913 q 254 906 232 911 q 267 910 260 910 q 278 909 274 910 q 300 899 294 901 q 313 895 307 897 q 323 886 320 888 q 327 883 326 884 q 347 864 338 879 q 357 845 355 853 q 352 814 355 823 q 343 798 349 804 q 326 777 332 789 q 320 758 320 765 q 310 753 312 754 q 305 750 308 751 q 300 744 302 747 q 292 738 297 741 q 281 730 285 734 q 274 723 277 726 q 287 718 285 719 q 292 715 289 716 q 311 708 305 712 l 343 684 q 353 667 347 674 q 359 656 355 661 q 362 650 362 651 q 368 623 368 631 q 366 610 369 616 z "},"":{"ha":380,"x_min":35,"x_max":349,"o":"m 347 620 q 346 604 346 610 q 345 590 346 597 q 341 578 343 585 q 334 567 339 572 q 329 554 330 556 q 328 549 328 552 q 319 531 321 536 q 313 524 316 526 q 296 507 302 511 q 286 498 290 502 q 279 492 282 495 q 270 484 275 490 q 264 481 267 483 q 258 476 260 479 l 250 471 l 239 468 q 231 467 235 467 q 227 467 228 467 q 218 464 222 465 q 210 463 214 463 q 194 454 201 456 q 168 456 175 457 q 153 457 160 456 q 138 456 141 457 q 133 454 134 454 q 125 456 129 454 l 117 458 q 98 465 102 464 q 90 465 95 465 l 72 483 q 47 507 56 494 q 41 521 42 518 q 39 525 41 524 q 36 538 37 536 q 35 543 35 541 l 35 579 q 50 584 46 582 q 58 590 53 586 q 84 581 68 590 q 106 567 100 571 q 122 559 118 560 q 127 560 126 559 l 165 555 q 176 557 172 557 q 184 559 180 557 q 196 566 193 566 q 201 566 199 567 q 218 579 214 578 q 225 585 222 582 q 232 589 228 587 q 240 603 239 600 q 243 609 241 606 q 245 627 241 617 q 237 633 240 631 q 229 637 233 635 q 212 636 217 636 q 205 637 208 636 l 179 629 l 149 620 q 128 626 137 620 q 114 637 119 632 q 104 648 109 643 q 94 661 99 654 q 95 688 91 681 q 97 699 96 694 q 102 709 98 704 q 121 724 109 720 q 142 742 133 739 q 174 774 163 769 l 184 785 q 193 792 189 789 l 198 800 q 205 810 203 808 q 192 811 198 811 q 180 811 186 811 q 168 810 175 811 l 148 808 q 130 808 134 807 q 102 809 113 806 q 85 818 92 812 q 71 829 75 826 q 58 840 66 833 q 58 850 58 846 q 57 857 57 854 q 58 876 56 867 q 72 899 61 886 q 83 903 79 902 q 90 903 87 903 q 103 904 100 903 q 113 909 106 905 q 132 905 127 906 q 141 905 137 905 q 156 903 152 905 q 172 907 168 906 q 178 909 175 907 q 189 910 183 910 q 201 907 194 910 q 220 909 209 910 q 240 906 232 909 q 253 910 247 910 q 263 907 259 910 q 272 905 269 906 q 281 901 275 905 q 288 899 283 899 q 298 895 292 898 l 297 895 q 306 887 304 888 q 311 884 308 886 q 319 877 315 882 q 330 865 324 872 q 338 846 336 852 q 333 816 336 825 q 324 800 330 807 q 309 781 315 792 q 304 762 304 769 q 294 758 296 760 q 290 754 292 757 q 277 743 282 746 q 267 735 271 739 q 259 728 263 731 q 272 723 270 724 q 277 720 274 722 q 294 713 289 719 l 320 694 q 331 677 326 684 q 343 658 340 661 q 349 631 349 639 q 347 620 349 624 z "},"":{"ha":317,"x_min":3,"x_max":313,"o":"m 313 637 q 289 593 313 608 q 258 578 274 582 q 227 582 241 575 q 208 582 212 581 q 184 578 195 579 q 165 576 174 578 q 151 576 159 576 q 137 578 144 576 q 131 575 134 576 q 122 572 127 574 l 111 562 q 101 564 103 564 q 96 563 99 564 q 90 563 94 563 q 80 564 87 563 q 65 580 71 575 q 56 589 60 585 q 48 601 52 595 q 38 620 45 606 q 47 644 42 635 q 52 652 52 650 q 54 659 53 654 q 69 670 66 669 q 77 680 76 678 q 77 684 77 681 q 90 701 88 694 q 94 713 92 707 q 100 723 96 719 q 109 731 104 727 l 117 739 q 119 749 118 743 q 126 761 121 755 q 136 773 130 770 q 140 785 138 783 q 144 787 142 787 q 152 802 151 800 q 151 813 152 810 q 148 819 149 817 q 126 807 132 814 q 109 791 113 793 q 104 785 106 788 q 99 779 102 781 q 91 768 96 776 q 85 761 88 764 l 50 761 q 40 765 43 762 q 33 770 37 768 q 18 784 19 780 l 3 819 q 10 828 8 826 q 14 831 12 830 q 26 844 22 840 q 34 850 30 848 q 42 861 41 860 q 45 864 43 863 q 58 873 50 869 q 69 886 65 880 q 80 895 73 891 q 96 905 91 902 q 107 911 102 909 l 132 921 l 146 922 q 163 918 155 922 q 166 918 164 918 q 171 917 168 917 l 178 917 l 198 906 q 218 895 212 898 q 222 894 221 894 q 229 884 225 888 q 234 878 232 882 q 237 875 236 875 q 248 863 244 868 q 252 852 248 857 q 256 845 254 848 l 256 829 q 257 820 258 823 q 255 812 256 817 q 254 795 255 800 q 252 783 252 787 q 250 777 251 780 q 239 750 244 755 q 237 743 237 747 q 233 736 236 739 q 229 730 231 732 q 222 722 225 726 q 218 716 220 719 q 216 712 216 713 q 208 696 210 701 q 202 688 205 690 q 199 680 199 682 q 199 674 198 678 l 210 674 q 225 675 217 673 q 240 678 236 678 q 247 680 244 678 q 254 680 250 680 q 264 678 259 681 q 281 676 275 677 q 297 674 286 675 q 301 665 300 667 q 309 658 302 663 q 311 645 311 648 q 313 637 312 642 z "},"":{"ha":248,"x_min":66,"x_max":182,"o":"m 180 591 q 177 585 178 586 q 175 581 176 583 l 175 579 l 175 572 q 170 565 171 567 q 167 562 168 563 l 167 559 q 165 551 165 557 q 158 546 160 548 q 153 543 156 544 q 145 537 151 540 q 126 532 138 533 l 95 545 q 81 566 84 559 q 75 586 77 574 l 75 608 q 74 618 75 614 q 73 624 73 621 q 71 636 71 635 q 69 646 69 640 l 69 661 q 68 672 68 669 q 69 678 69 675 q 70 693 69 688 q 71 703 71 699 l 71 716 q 70 728 71 723 q 69 736 69 732 q 71 757 68 746 q 72 777 71 772 q 72 800 71 791 q 71 810 72 808 q 66 830 69 823 l 66 842 q 67 851 66 846 q 68 867 68 856 q 77 880 75 876 q 81 886 81 884 q 84 887 84 887 q 87 892 85 890 q 91 901 88 894 l 107 901 l 111 902 q 135 901 127 903 q 146 895 142 899 q 151 891 149 892 q 156 887 153 890 q 161 883 159 884 q 170 861 168 869 q 171 845 171 853 q 170 838 171 842 q 170 826 170 833 q 170 806 171 815 l 170 791 q 170 772 172 780 q 169 755 167 761 q 174 746 171 750 q 172 736 172 739 q 171 731 172 734 l 171 726 q 174 701 171 712 q 175 692 175 696 q 174 681 174 686 l 174 667 q 174 659 174 663 q 175 651 175 655 q 176 642 175 647 q 176 632 176 637 q 176 609 178 620 l 180 591 m 182 103 q 176 93 178 96 q 172 87 174 90 q 168 81 171 84 l 155 66 l 138 62 l 142 62 q 139 60 140 61 q 136 57 138 58 q 130 55 133 56 q 123 54 127 54 q 99 65 111 53 l 95 69 q 87 79 90 76 q 83 84 85 81 q 81 88 81 87 q 80 92 81 90 q 75 106 77 99 q 73 122 72 114 q 73 142 71 132 l 73 157 l 73 172 q 71 192 72 186 q 71 203 71 198 q 70 215 71 210 q 69 222 69 220 q 68 232 69 229 q 72 254 68 243 l 72 262 l 72 269 q 73 278 72 275 q 74 281 73 279 q 75 285 75 282 q 74 294 75 292 q 73 300 73 297 l 73 298 q 71 309 72 302 q 72 323 71 316 q 73 338 73 330 q 73 361 72 353 q 76 384 73 370 q 81 391 79 389 q 84 396 83 393 q 88 403 87 401 q 94 412 90 408 q 107 419 102 418 q 127 420 117 423 q 134 421 130 420 q 152 425 137 422 q 157 410 156 415 q 160 403 159 406 q 163 393 163 397 q 171 372 171 381 q 172 365 172 369 l 172 359 q 174 342 174 353 q 175 324 175 332 q 174 308 175 311 q 173 304 174 305 q 172 300 172 302 l 172 283 q 170 267 172 275 q 172 254 171 259 q 172 243 172 248 l 172 208 l 172 202 q 176 191 172 201 q 172 172 172 176 q 174 161 172 165 q 182 136 180 144 l 182 122 q 180 113 180 115 q 182 103 180 111 z "},"":{"ha":563,"x_min":16,"x_max":552,"o":"m 552 422 q 522 402 533 407 q 498 397 511 397 q 486 399 488 399 q 481 399 483 399 q 459 395 469 396 q 441 396 449 395 q 428 397 430 397 q 425 397 426 397 q 412 399 415 399 q 408 399 410 399 q 395 399 400 399 q 387 400 389 400 l 382 400 q 350 400 359 401 q 332 399 340 399 l 316 399 l 279 399 l 251 399 q 238 397 243 397 q 229 397 233 397 q 218 399 221 399 q 214 399 216 399 q 199 396 203 396 q 187 396 194 396 q 175 397 182 397 q 168 399 171 399 q 148 397 155 397 q 134 396 141 396 q 117 395 122 396 q 109 395 113 395 q 98 395 106 395 q 84 397 91 396 q 56 401 68 395 l 37 401 l 19 422 q 18 430 18 426 q 16 436 16 433 q 16 441 16 439 q 28 475 18 463 q 53 491 37 484 q 77 488 68 488 q 95 488 85 488 q 115 490 106 490 q 136 488 125 491 q 151 486 142 488 q 164 488 161 488 q 175 490 168 490 q 193 487 182 490 q 221 487 210 488 q 235 488 232 488 q 239 488 237 488 l 263 488 q 275 490 270 490 q 279 491 277 490 l 300 491 q 308 490 305 491 q 315 489 311 490 q 324 488 319 488 l 363 490 q 375 491 372 491 q 381 491 378 491 q 390 491 385 491 q 399 490 395 491 q 414 492 410 491 q 423 494 418 492 q 439 493 435 494 q 446 492 444 492 q 458 494 454 494 q 465 494 463 494 q 469 495 468 494 q 495 493 486 495 q 511 488 505 491 q 526 484 518 487 q 538 475 533 481 q 549 452 547 465 q 552 422 552 438 z "},"":{"ha":465,"x_min":18,"x_max":448,"o":"m 448 625 q 447 605 448 612 q 441 591 446 598 q 435 581 438 586 q 426 572 431 576 q 418 564 419 566 q 415 562 416 562 q 396 538 411 545 q 385 528 393 533 q 371 509 378 518 q 358 490 363 500 q 350 481 353 483 q 345 476 347 479 q 333 462 335 465 q 330 458 331 458 q 321 445 324 449 q 316 437 319 441 q 328 423 326 427 q 342 409 339 412 q 345 404 345 406 l 358 385 q 365 376 362 378 q 370 370 368 373 l 373 368 q 378 365 376 366 q 384 361 381 363 l 389 355 q 393 347 391 351 q 397 341 396 345 q 400 338 399 338 l 412 327 q 420 317 419 320 q 422 311 422 313 q 425 286 426 292 q 419 273 423 279 l 387 240 q 376 239 381 239 q 369 239 372 239 q 362 237 365 239 q 355 240 359 237 q 346 248 349 243 q 334 256 336 254 q 331 259 332 258 q 306 281 313 271 q 292 298 298 292 q 283 309 285 307 q 275 313 281 311 q 263 323 264 320 q 260 327 262 326 q 254 338 256 334 q 250 346 251 343 q 248 350 248 349 q 234 347 237 349 q 228 345 231 346 q 216 328 220 332 q 202 317 205 320 q 198 312 199 315 q 189 300 191 302 q 184 294 186 297 q 174 283 176 285 q 171 279 172 281 q 165 268 167 270 q 163 264 164 266 q 157 255 163 263 q 151 247 155 251 q 149 244 149 245 q 146 241 146 241 q 120 229 133 235 q 102 224 107 224 q 90 228 98 224 q 75 237 83 232 q 62 246 68 241 q 54 254 56 251 q 50 265 52 260 q 47 275 47 270 q 53 309 43 301 q 60 321 58 320 q 64 326 61 324 q 71 334 68 330 q 75 340 73 336 q 77 343 76 343 q 99 369 94 365 q 111 383 107 380 q 117 389 114 387 q 126 403 119 396 q 138 415 133 410 q 146 421 142 418 q 152 427 149 425 q 159 436 157 434 q 161 439 160 438 q 146 446 156 444 q 141 455 142 453 q 138 460 140 457 q 125 474 127 471 q 119 480 122 477 q 107 491 110 490 q 103 494 104 492 l 98 502 q 92 510 92 510 q 80 524 83 521 q 76 530 77 528 q 71 544 72 541 q 62 549 69 547 q 56 564 56 564 q 45 570 47 567 q 39 574 42 571 q 34 581 37 576 q 30 590 30 586 q 27 594 28 593 q 24 598 26 595 q 22 602 23 601 q 20 608 20 605 q 20 614 20 614 q 18 634 18 625 q 24 655 19 643 l 38 662 q 42 665 41 663 q 62 669 54 669 q 91 665 77 669 q 115 652 104 662 q 120 648 118 650 q 125 646 122 647 q 129 644 127 644 q 133 636 130 640 q 138 628 138 628 q 153 610 149 616 q 159 597 157 604 q 168 583 163 594 q 173 579 171 581 q 183 574 175 578 q 189 559 187 563 q 194 553 191 556 q 209 541 201 547 q 214 537 213 538 q 221 529 218 533 q 228 519 227 521 q 250 539 244 534 q 258 548 255 544 q 266 556 264 555 q 270 559 267 557 q 285 582 279 578 q 288 587 286 585 q 293 593 290 590 q 297 600 296 597 l 301 604 q 306 609 304 606 q 311 616 308 612 q 327 630 323 627 q 334 636 331 633 q 338 640 336 639 q 343 644 340 642 q 347 650 346 647 q 354 652 350 651 q 362 656 362 655 q 391 665 381 663 q 408 665 400 667 q 420 659 416 661 q 431 655 425 658 q 439 637 438 642 l 448 625 z "},"!":{"ha":256,"x_min":61,"x_max":214,"o":"m 194 290 l 194 282 q 191 270 194 273 q 191 264 191 267 q 190 251 190 262 q 180 237 183 240 q 174 231 178 235 q 155 225 168 225 q 123 226 130 225 q 114 228 117 227 q 108 229 111 228 q 94 232 104 229 q 80 256 84 252 q 78 267 79 262 q 77 278 77 271 q 73 301 71 289 q 75 317 76 313 q 75 321 75 320 q 74 335 73 332 q 75 339 75 338 q 73 359 73 354 q 73 368 73 363 q 73 383 73 376 q 72 403 72 391 q 71 412 72 410 q 71 419 71 415 q 73 433 73 425 q 72 452 72 441 q 71 471 72 463 q 71 483 71 479 q 73 507 71 496 q 73 542 72 530 q 75 563 73 553 l 75 593 q 73 606 73 601 q 73 616 72 612 q 73 629 73 625 q 71 635 72 632 q 71 656 68 654 q 72 666 72 663 q 72 671 72 669 q 73 683 73 681 q 73 688 73 685 q 72 698 72 694 q 72 704 72 701 q 71 728 71 720 q 72 742 72 736 q 73 756 73 753 q 73 761 73 760 q 72 773 72 768 q 72 781 72 779 l 72 804 q 73 822 73 818 q 72 829 72 826 q 69 838 71 833 q 68 849 68 842 q 66 865 66 860 q 65 872 65 869 q 66 897 62 883 q 80 916 75 911 q 87 922 85 920 q 94 926 90 924 q 114 929 110 929 q 122 933 118 929 q 149 926 138 933 q 164 916 160 920 l 176 905 q 182 888 180 892 q 184 878 183 883 q 182 867 184 872 l 182 848 q 182 842 182 845 q 183 834 183 838 l 183 825 l 183 806 l 183 787 q 180 774 180 776 q 180 770 180 772 q 182 758 182 764 q 182 747 182 753 l 186 726 l 186 703 q 187 693 186 697 q 189 685 187 689 l 183 658 q 184 647 183 652 q 185 638 184 643 q 183 629 186 633 q 186 615 186 621 q 189 604 187 609 q 189 578 190 590 q 186 564 186 567 q 189 559 187 562 q 190 547 190 552 q 190 537 190 541 q 189 529 190 533 q 189 521 189 525 q 188 515 187 518 q 189 507 189 511 q 190 498 189 502 q 189 491 189 495 l 189 481 q 189 469 189 471 q 187 464 189 467 q 189 451 189 457 q 189 438 189 445 q 187 419 187 433 q 190 388 191 403 q 191 378 191 381 q 191 373 191 376 q 190 361 190 363 q 190 357 190 359 q 191 340 190 346 q 191 328 191 334 q 191 307 195 319 l 194 290 m 214 110 q 212 99 212 103 q 212 90 212 95 q 212 79 212 85 q 209 68 212 73 q 201 50 206 57 q 189 38 195 42 q 178 32 183 35 q 163 22 172 28 q 140 27 149 24 q 123 34 132 30 q 104 39 113 34 q 90 50 96 43 q 77 61 81 58 q 73 68 76 65 q 61 79 71 72 q 62 96 62 91 q 62 106 62 102 q 62 119 62 113 q 65 133 62 126 q 70 142 68 138 q 75 148 72 145 q 91 162 87 159 q 100 171 95 165 q 117 172 114 172 q 123 171 121 171 q 150 165 142 167 q 164 160 157 163 q 182 153 176 155 q 197 145 187 152 q 208 123 205 130 q 214 110 212 117 z "},"\"":{"ha":330,"x_min":33,"x_max":300,"o":"m 297 779 q 296 763 300 765 q 293 749 293 761 q 294 737 293 742 q 296 727 294 732 q 293 709 296 720 q 292 684 292 690 q 290 673 292 677 q 296 636 296 646 l 296 614 q 285 605 288 608 q 279 600 282 602 q 277 597 278 598 q 273 594 275 597 q 267 590 270 591 l 259 590 q 256 589 256 590 q 254 589 255 589 l 251 589 q 227 588 235 586 q 216 593 220 590 q 209 597 212 595 q 199 601 206 598 q 193 620 194 613 q 191 633 191 627 q 192 642 191 637 q 193 652 193 647 q 193 660 193 658 q 194 665 194 662 l 194 667 q 193 682 194 674 q 193 697 193 689 q 195 712 195 708 q 191 719 194 716 q 194 741 193 739 q 193 752 193 746 q 193 762 193 758 q 191 772 193 768 l 191 784 q 191 795 191 789 q 190 804 190 800 q 187 823 189 814 q 189 842 186 831 l 189 873 q 197 880 195 878 q 202 888 199 882 l 216 897 q 236 902 222 901 q 248 901 244 902 q 255 899 252 901 l 271 894 q 286 876 281 883 q 290 857 290 868 l 290 838 q 293 823 293 826 q 294 819 293 821 q 295 808 294 812 q 296 802 296 804 l 296 798 q 297 784 297 787 q 297 779 297 781 m 141 614 q 131 604 133 608 q 126 594 129 601 q 107 587 114 589 q 94 585 100 585 l 79 585 l 57 593 q 39 628 39 618 l 39 647 q 37 662 37 659 q 35 667 37 665 q 34 682 34 680 q 34 686 34 685 q 33 700 33 697 q 33 705 33 703 q 35 728 35 723 q 35 736 35 734 q 35 749 35 743 q 34 760 35 754 q 37 776 34 768 l 38 791 q 39 814 38 807 q 34 849 34 840 l 34 871 q 45 881 42 879 q 50 886 47 883 q 53 887 52 886 l 57 891 q 62 895 60 894 l 71 895 q 79 897 77 895 q 102 898 96 899 q 111 894 109 897 q 123 888 121 890 q 132 882 126 886 q 138 852 138 864 q 138 844 138 848 q 137 834 137 840 q 136 825 136 827 q 136 821 136 823 l 136 818 q 136 804 134 811 q 137 788 137 796 q 135 773 134 777 q 138 766 136 769 q 137 751 137 754 q 136 745 137 747 q 138 724 136 735 q 140 715 140 719 l 140 701 q 139 690 140 696 q 140 681 138 685 q 142 663 141 671 q 141 646 142 655 l 141 614 z "},"#":{"ha":582,"x_min":-39,"x_max":647,"o":"m 647 537 q 646 518 647 525 q 642 506 644 511 q 636 496 637 499 q 632 486 635 492 q 602 475 614 479 q 574 467 589 472 q 551 470 556 469 q 541 472 545 471 q 522 472 526 471 q 476 472 492 465 l 463 458 q 458 445 461 453 q 456 439 457 441 q 453 433 454 437 l 450 425 q 446 406 448 411 q 444 387 444 399 q 450 382 446 382 q 458 382 454 382 q 470 383 468 382 q 473 384 472 384 q 488 385 480 387 q 503 390 495 388 q 522 389 511 392 q 552 381 540 389 q 569 370 564 374 q 583 359 574 366 q 585 346 583 350 q 586 336 586 342 q 584 324 586 330 q 579 316 582 319 q 575 301 576 312 q 562 296 566 298 q 551 285 557 294 q 525 288 534 288 q 505 288 515 289 q 494 287 499 288 q 483 286 490 286 q 463 288 469 286 q 443 284 448 283 q 435 285 438 285 q 419 283 425 283 q 411 283 414 283 q 400 248 403 277 q 393 231 396 237 q 388 221 391 225 q 378 197 387 202 q 372 182 377 189 q 355 151 372 163 q 344 143 346 144 q 342 141 342 142 q 288 145 311 136 q 273 154 277 152 q 266 160 270 156 q 263 186 260 174 q 263 193 263 189 q 264 201 263 198 q 266 209 264 205 q 270 216 267 212 q 273 221 271 218 q 274 225 274 224 q 281 243 279 236 q 283 256 282 250 q 288 268 286 262 q 293 279 290 274 q 283 283 286 283 q 274 283 279 283 q 256 283 262 283 q 247 282 250 282 q 232 280 236 281 q 224 279 228 279 q 215 280 218 279 q 209 281 212 281 q 201 280 205 281 q 193 279 198 279 q 180 266 183 273 q 179 260 179 263 q 178 254 179 258 q 175 244 176 248 q 170 239 172 243 q 165 224 165 232 l 152 198 q 149 186 149 187 q 146 183 148 184 q 133 170 136 172 q 129 168 130 168 q 115 163 121 165 q 103 164 110 161 q 74 167 88 163 q 53 184 60 171 q 50 189 50 187 q 47 194 49 191 q 46 198 46 197 l 46 205 q 46 213 46 213 q 54 235 49 229 q 58 246 57 243 q 58 254 58 250 q 66 267 65 263 q 69 274 68 271 q 54 275 66 282 q 47 276 49 275 q 42 277 45 277 l 39 277 q 28 275 31 275 q 23 275 26 275 q 5 277 16 278 q -7 287 -4 285 q -12 292 -9 289 q -25 299 -19 294 q -39 316 -31 304 q -35 334 -35 332 q -16 361 -23 354 q 1 376 -9 369 q 14 375 8 374 q 24 373 19 376 q 43 370 39 370 q 47 370 46 370 q 64 372 54 372 l 83 372 q 90 370 88 370 q 95 369 92 369 l 98 369 q 100 379 100 376 q 102 385 100 382 l 110 401 q 110 410 110 407 q 111 419 110 412 q 116 428 115 426 q 117 434 117 430 q 121 446 119 442 q 123 452 123 449 q 130 467 129 464 q 132 471 132 469 q 123 473 127 473 q 114 472 119 472 q 98 474 102 475 q 92 473 95 473 q 68 469 77 469 q 45 473 58 469 q 34 478 38 476 q 27 483 30 480 q 21 486 23 486 q 14 490 19 487 q 5 504 7 498 q 4 514 4 510 l 4 534 q 22 552 15 541 q 49 559 41 559 q 64 562 60 562 q 73 563 68 563 q 85 564 80 563 q 95 564 90 564 q 104 564 100 564 q 113 563 109 563 q 123 564 119 563 q 133 571 126 564 q 151 570 144 570 q 164 570 159 570 q 168 587 167 581 q 175 597 170 593 q 177 609 176 604 q 179 618 178 614 q 189 642 182 631 q 193 656 190 648 q 203 682 199 675 q 214 696 208 688 q 227 697 224 696 q 232 701 229 699 q 255 701 247 707 q 291 663 283 688 q 288 621 298 639 q 285 611 286 616 q 282 602 283 606 q 275 580 277 587 q 270 567 274 572 q 291 566 282 567 q 307 567 300 566 q 321 568 319 568 q 327 567 324 568 q 336 566 334 566 q 342 567 339 567 q 356 568 353 568 q 362 566 359 567 q 377 567 368 567 q 388 572 387 570 q 388 581 389 575 q 395 589 393 587 q 397 593 396 591 q 400 608 400 604 q 401 618 400 613 q 406 642 401 631 q 415 661 410 652 q 427 677 420 670 q 438 681 433 678 q 452 686 449 686 q 482 688 471 692 q 500 678 494 684 q 514 663 511 671 q 517 647 517 654 q 514 633 517 642 q 513 627 513 629 q 511 618 511 623 q 511 614 511 616 q 510 612 510 613 l 510 609 q 506 588 509 595 q 500 575 503 581 q 519 572 514 572 q 528 568 525 571 q 547 570 543 568 q 553 571 551 570 q 567 570 562 570 q 576 568 572 568 q 582 568 581 568 q 595 570 593 570 q 605 572 598 570 q 631 551 625 562 q 640 543 637 545 q 647 537 643 541 m 357 472 q 336 471 343 472 q 315 464 328 471 q 297 467 301 467 q 289 467 293 467 q 277 467 283 467 q 264 468 271 468 q 247 466 251 465 q 240 468 243 467 q 237 455 239 461 q 232 444 236 449 q 229 433 231 438 q 225 422 227 429 q 220 408 221 411 q 220 404 220 406 q 216 393 217 397 q 214 387 216 389 q 213 380 213 382 l 222 377 q 231 376 227 376 q 243 377 239 376 q 267 376 254 372 q 285 381 279 380 q 293 381 290 382 q 306 383 302 382 q 313 384 309 384 q 326 384 324 382 q 328 388 327 385 q 337 412 334 406 q 343 425 340 419 q 345 443 343 439 q 347 449 346 446 q 349 453 347 450 l 353 461 q 357 472 355 467 z "},"$":{"ha":673,"x_min":3,"x_max":652,"o":"m 652 768 q 652 758 652 761 q 650 751 651 754 q 648 738 650 743 q 646 730 647 732 q 643 719 643 724 q 642 713 642 715 q 637 709 639 712 q 635 705 636 707 q 633 703 633 704 q 629 693 631 697 q 625 685 628 689 q 612 654 621 670 q 607 644 609 648 q 602 635 605 639 q 593 614 595 620 q 589 606 590 609 q 575 576 581 585 q 566 563 570 568 q 559 558 563 560 q 553 555 556 556 q 548 552 549 553 q 538 549 544 551 q 531 548 534 548 q 526 548 528 548 q 517 546 522 547 q 503 545 513 545 q 492 555 495 552 q 487 559 488 557 q 474 578 477 572 q 469 589 471 585 q 471 621 465 602 q 478 633 475 628 q 484 643 481 637 q 488 650 487 646 q 488 674 488 655 q 491 682 494 678 q 486 693 488 686 q 469 699 477 696 q 453 708 461 703 q 427 716 434 711 l 411 724 q 404 727 407 726 q 397 731 397 730 l 381 731 q 380 715 380 720 q 378 705 381 709 q 380 688 380 692 q 381 684 380 685 q 387 665 387 669 q 388 658 388 661 q 392 618 391 628 q 392 597 393 608 q 389 579 389 585 q 388 571 389 574 l 388 536 q 400 525 399 526 q 403 524 401 524 q 421 523 416 525 q 430 518 426 521 q 444 511 441 511 q 456 507 448 510 q 466 494 461 496 q 477 487 471 491 q 492 473 488 476 q 506 468 496 471 q 513 455 510 458 q 518 449 515 452 q 533 437 528 445 q 542 427 540 429 q 551 422 544 425 q 555 410 553 412 q 559 406 556 408 q 570 384 570 388 q 572 375 571 380 q 572 366 574 370 q 575 350 576 358 q 579 330 578 335 q 582 321 581 324 q 585 309 582 317 q 586 301 586 305 q 583 294 585 298 q 581 283 581 286 q 575 262 578 270 q 567 244 572 255 q 563 235 564 240 q 560 225 562 229 q 559 216 559 220 q 551 209 555 213 q 544 197 544 202 q 530 188 533 190 q 524 184 526 186 q 517 178 519 180 q 511 174 514 176 l 507 170 l 499 167 q 487 164 491 164 q 484 163 486 164 q 480 160 483 161 l 476 156 q 471 155 473 155 q 464 155 464 155 q 446 146 453 149 q 433 142 439 142 q 404 133 414 134 q 406 127 406 130 q 407 121 406 123 q 408 113 407 117 q 406 106 407 110 q 404 100 404 103 q 404 95 404 96 q 408 83 407 88 q 410 71 408 77 q 410 60 411 65 q 410 52 410 56 q 412 41 411 45 q 412 34 412 37 l 412 28 q 410 22 411 26 q 408 12 408 18 l 404 -18 q 391 -30 396 -26 q 382 -37 387 -34 q 365 -43 377 -39 q 351 -47 354 -46 q 346 -50 347 -49 q 339 -47 343 -49 l 331 -45 q 320 -42 324 -43 q 307 -37 316 -41 q 299 -18 301 -23 q 294 -7 297 -14 l 294 9 l 294 26 q 290 45 290 41 q 290 52 289 49 q 288 83 288 71 q 289 104 289 95 q 289 115 289 111 q 288 126 289 119 l 259 126 q 252 127 254 126 q 237 130 244 127 q 224 134 231 132 q 213 138 218 136 q 200 147 203 145 q 194 152 197 149 l 170 160 q 165 164 168 163 q 160 168 160 167 q 153 176 155 174 q 149 179 152 178 q 133 189 138 184 q 105 178 110 180 q 94 168 100 175 q 56 165 71 165 q 33 176 42 165 q 13 199 18 191 q 5 213 8 206 q 3 231 3 221 q 11 251 4 240 l 18 271 q 19 277 18 274 q 22 283 22 282 q 32 304 28 298 q 39 315 35 311 q 45 327 43 326 q 46 330 46 328 q 54 345 52 340 q 60 351 57 349 q 63 358 61 354 q 68 368 65 362 q 75 380 71 373 q 87 396 77 382 q 100 416 98 410 q 114 423 111 422 q 118 425 117 425 q 123 428 121 426 q 132 437 125 430 q 153 436 144 435 q 167 429 161 437 q 179 421 176 422 q 189 420 182 420 q 203 405 197 412 q 208 388 209 397 q 201 366 205 373 q 195 355 198 359 q 184 340 184 342 q 177 332 180 338 q 171 323 174 327 q 176 306 175 311 q 178 298 178 301 q 191 277 186 285 q 198 266 195 270 q 203 260 202 260 l 220 252 q 231 245 227 250 q 236 240 235 241 q 252 229 248 236 q 279 228 274 229 q 284 248 283 240 q 285 258 285 255 q 284 269 283 264 q 286 277 285 273 q 286 288 286 283 q 286 297 285 292 q 288 310 288 308 q 288 313 288 312 q 289 333 289 328 q 288 339 289 338 q 286 357 286 354 q 286 362 286 361 q 284 374 283 370 q 286 382 285 378 q 285 401 285 393 q 283 415 285 408 q 283 422 283 418 q 282 429 282 426 l 282 435 l 282 442 q 281 448 282 445 q 281 452 281 450 q 266 460 270 458 q 256 463 262 461 q 243 465 250 464 q 231 469 237 465 q 212 473 216 472 q 205 475 208 473 q 179 481 183 480 q 156 488 164 486 q 144 495 148 490 q 134 499 140 495 q 127 503 130 500 q 123 510 126 507 q 118 517 118 515 q 108 526 115 521 q 98 538 100 532 q 90 555 91 548 q 80 568 88 562 q 79 585 80 579 q 79 597 79 591 q 77 608 77 602 q 73 625 76 614 q 78 637 77 635 q 77 642 79 639 q 75 648 76 644 q 73 658 75 651 l 77 681 l 83 705 q 88 713 87 711 q 92 719 90 716 q 103 736 95 728 q 108 746 106 743 q 111 751 110 749 q 121 765 119 762 q 125 773 122 768 q 135 777 133 776 q 140 781 137 779 l 151 792 q 167 802 157 799 q 175 804 171 803 q 183 807 179 806 q 208 815 195 815 q 227 821 222 821 q 235 823 232 822 q 247 826 244 826 q 252 826 250 826 l 256 826 l 260 826 l 271 830 q 268 847 269 842 q 266 856 267 852 q 266 872 263 863 q 263 881 264 876 q 263 891 262 886 l 260 906 l 260 929 q 260 939 259 935 q 260 945 260 943 q 262 951 262 948 q 264 962 263 955 q 277 970 275 968 q 281 971 279 971 q 295 979 292 978 q 301 979 298 979 q 322 982 319 982 q 328 981 326 982 q 345 978 334 978 q 352 970 350 972 q 357 964 354 967 q 361 962 358 963 q 370 955 363 960 l 370 913 l 370 898 q 375 880 374 883 q 376 876 376 878 q 377 857 380 865 q 380 847 380 852 q 382 838 381 842 q 401 829 393 831 q 414 825 408 827 q 430 815 427 817 q 449 808 446 811 q 458 807 454 808 q 465 804 463 806 q 481 800 475 800 q 494 792 491 793 l 495 791 q 509 787 506 788 q 513 785 511 787 q 526 780 524 781 q 529 777 528 779 q 545 792 541 787 q 551 800 549 798 q 560 812 555 807 q 570 822 566 818 q 581 831 575 827 q 586 834 582 833 q 592 837 589 836 q 601 841 595 838 q 629 820 618 829 q 646 804 639 811 q 650 789 647 798 q 652 772 652 774 q 652 768 652 769 m 281 612 q 277 652 275 642 q 268 676 270 663 q 269 699 266 689 q 264 720 264 704 q 251 720 258 720 q 237 718 244 719 q 225 712 227 713 q 222 709 224 711 q 205 686 212 696 q 190 663 199 677 q 186 650 187 654 q 186 644 186 647 q 185 637 184 642 q 187 627 186 632 q 189 614 189 621 q 194 600 191 605 q 198 589 197 594 q 201 585 199 585 q 225 567 214 571 q 240 563 232 567 q 250 562 245 563 q 256 559 254 560 q 267 556 264 556 q 271 556 270 556 q 275 578 274 570 q 278 594 275 586 l 281 612 m 468 331 q 461 355 467 346 q 454 369 457 366 q 450 372 452 372 q 446 378 449 374 q 439 388 441 387 q 418 404 423 399 q 410 412 412 408 q 406 416 408 415 q 395 420 404 418 q 400 397 397 406 q 402 383 401 387 q 404 378 403 380 q 399 361 400 365 q 399 338 397 343 q 400 321 400 332 q 402 314 401 317 q 403 307 403 311 q 401 298 403 301 q 399 292 400 294 q 400 279 400 283 q 400 269 400 274 q 398 250 399 258 q 397 237 397 243 q 426 250 420 247 q 433 255 431 252 q 449 270 445 267 l 452 275 q 456 283 452 279 l 461 289 q 463 293 461 290 q 464 297 464 296 q 465 300 464 298 q 469 322 468 316 q 468 331 469 328 z "},"%":{"ha":750,"x_min":16,"x_max":746,"o":"m 381 760 q 380 735 381 739 l 380 716 q 377 692 378 699 q 373 681 376 685 q 367 661 369 667 q 362 648 365 654 q 355 628 362 637 q 353 613 353 623 q 338 602 342 605 q 328 593 334 600 l 320 593 q 300 575 308 579 q 279 567 285 568 q 269 566 273 566 q 262 562 266 564 q 251 552 258 560 l 232 552 q 214 548 225 549 q 192 547 203 547 q 170 547 180 547 q 155 551 160 548 q 138 553 144 553 q 127 556 133 553 q 113 562 119 560 q 102 567 107 564 q 77 578 83 574 q 68 586 72 582 q 62 593 65 590 q 45 602 60 595 q 42 610 43 609 q 33 613 41 610 q 31 627 33 624 q 23 637 28 631 q 16 669 31 654 q 19 686 19 680 q 19 696 19 692 q 18 715 19 709 q 18 730 18 722 q 24 746 19 739 l 26 761 q 35 777 33 774 q 38 781 37 780 q 43 795 42 792 q 47 799 45 798 q 53 806 49 802 q 60 815 57 810 q 68 827 64 821 q 79 833 73 829 q 87 838 83 836 q 91 844 91 841 l 106 844 q 125 854 121 853 q 146 865 141 863 q 155 869 151 867 q 161 868 160 869 q 164 871 163 871 q 167 873 165 872 q 182 875 172 875 q 200 874 197 873 q 206 882 203 875 q 226 881 220 882 q 237 880 232 880 q 259 880 244 879 q 270 872 266 873 q 281 871 274 871 q 292 864 289 864 q 298 864 296 864 q 310 853 308 854 q 319 849 312 852 q 330 833 327 838 q 336 826 334 829 q 349 810 347 818 q 368 796 351 807 q 368 787 366 789 q 374 781 370 784 q 376 770 374 773 q 381 760 377 766 m 264 739 q 255 760 259 753 q 244 773 250 769 l 233 784 q 210 781 216 781 q 202 780 205 780 q 192 777 195 777 q 187 776 189 776 q 178 771 180 773 q 172 768 175 769 q 153 754 161 761 q 137 745 144 747 q 124 720 126 726 q 122 711 122 715 q 123 691 123 696 q 122 684 122 686 q 123 672 122 675 q 123 666 123 669 q 133 656 130 658 q 137 655 136 655 q 146 654 144 654 q 152 654 149 654 q 170 651 165 651 q 176 651 174 651 q 186 656 184 655 q 191 658 189 656 q 200 660 195 659 q 209 662 205 661 q 224 667 220 665 q 232 671 228 670 q 243 680 240 678 q 250 684 247 681 l 254 693 q 258 713 256 707 q 262 724 260 720 q 264 734 264 732 q 264 739 264 736 m 666 822 q 659 803 665 811 q 653 795 655 798 q 650 791 651 792 l 648 789 q 643 780 646 784 q 635 773 640 776 q 628 760 632 766 q 616 747 624 753 l 606 728 q 595 715 598 718 q 590 712 593 713 q 586 704 587 708 q 582 696 585 700 q 578 686 579 690 q 574 675 576 681 q 566 658 570 665 q 551 638 555 644 q 545 621 547 632 l 530 610 q 525 598 528 604 q 518 589 522 593 q 510 568 514 574 q 503 560 506 563 q 494 546 498 552 q 486 536 491 540 q 481 526 483 530 q 472 518 479 521 q 467 507 468 510 q 465 502 467 505 q 455 484 458 491 q 445 472 452 477 q 434 456 441 460 q 423 439 426 444 q 418 433 420 435 q 410 420 411 422 q 407 415 408 418 q 395 399 400 404 q 388 388 391 393 q 371 358 376 365 q 363 349 366 351 q 346 323 359 331 q 330 298 339 309 q 315 273 321 286 q 309 259 311 264 q 304 251 307 254 q 294 230 297 236 q 288 220 290 224 l 271 197 q 267 183 270 189 q 262 175 264 178 q 250 159 252 163 q 247 146 248 155 q 231 134 233 136 q 227 130 228 132 q 222 120 222 123 q 222 113 221 117 q 209 104 212 106 q 205 102 206 103 q 196 89 198 91 q 193 85 194 87 q 186 78 189 80 q 183 75 184 76 q 180 73 182 73 q 145 72 159 65 q 121 77 130 73 q 96 88 111 80 q 95 106 96 100 q 94 119 94 113 q 96 130 95 126 q 100 137 98 133 q 119 165 113 153 q 127 179 126 176 q 140 195 137 193 q 152 208 148 205 q 159 214 156 212 q 169 230 167 225 q 172 245 171 235 q 180 252 179 250 q 184 256 182 254 q 188 266 187 263 q 189 278 189 269 q 198 284 197 282 q 201 289 199 286 q 205 302 203 300 q 208 305 206 304 q 213 320 209 315 q 231 343 222 334 q 240 359 237 354 q 244 366 243 363 q 255 382 255 382 q 264 397 260 393 q 270 403 267 400 l 275 423 q 289 434 285 433 q 304 454 294 448 q 310 465 308 461 q 315 471 312 468 q 338 505 331 494 q 347 528 345 517 q 356 536 354 533 q 358 549 358 540 q 368 558 366 556 q 373 562 370 560 q 383 582 376 570 q 399 600 391 594 q 407 613 404 610 q 412 629 410 624 q 419 646 415 635 q 428 653 426 651 q 431 656 430 655 q 443 673 441 669 q 448 681 445 678 q 454 692 450 686 q 461 701 457 697 l 469 718 q 477 732 471 723 q 486 751 483 746 q 492 760 488 755 q 513 799 505 791 q 516 806 514 802 q 522 814 518 811 q 528 823 526 821 q 532 827 529 825 q 545 844 540 840 q 555 850 551 849 q 569 868 564 863 q 578 876 574 873 q 605 879 597 876 q 610 883 609 880 l 648 865 q 665 839 663 849 q 666 822 667 829 m 746 345 q 745 338 745 342 q 744 334 745 335 q 743 332 743 334 l 743 330 q 744 304 745 311 q 743 294 743 298 q 743 286 743 290 q 742 277 743 281 q 742 263 743 270 q 734 251 741 256 q 727 235 732 240 q 715 212 718 218 q 711 195 713 206 q 699 186 701 189 q 693 182 696 184 q 680 172 682 174 q 675 170 677 171 q 654 155 662 159 q 637 148 646 151 q 631 143 635 145 q 621 138 628 141 q 600 132 610 137 q 585 123 589 127 q 559 125 568 123 q 544 126 551 126 q 511 133 530 123 q 484 149 492 142 q 472 156 483 148 q 463 163 467 160 l 456 170 q 449 176 453 172 q 442 184 445 180 q 426 201 434 193 q 411 218 418 210 q 406 232 408 228 q 400 245 404 236 q 403 260 403 256 q 403 266 403 263 q 404 276 403 270 q 407 289 404 282 q 415 316 408 305 q 422 328 420 324 q 425 339 423 332 q 433 348 431 346 q 435 351 435 350 q 440 359 438 355 q 448 366 442 363 q 461 384 458 382 q 472 395 469 392 q 477 406 475 399 q 492 410 488 407 q 502 420 495 412 q 519 423 515 422 q 526 431 522 425 q 538 431 536 430 q 541 431 540 431 q 562 431 557 431 q 568 430 567 430 q 578 431 575 431 q 585 430 582 430 q 594 435 590 433 q 606 439 598 438 q 626 433 617 435 q 643 429 635 431 q 658 423 655 423 q 673 420 667 423 q 680 415 677 418 q 688 410 684 412 q 703 397 701 399 q 708 393 705 396 q 723 377 722 381 q 727 373 724 376 q 732 368 730 370 q 738 361 735 363 l 746 345 m 642 302 q 633 316 636 312 q 629 323 631 320 l 627 326 q 617 330 623 327 q 610 333 613 332 q 605 335 606 334 q 592 340 594 339 q 589 340 590 340 q 563 334 571 334 q 550 321 552 323 q 545 317 548 319 q 531 301 536 307 q 521 292 526 296 l 514 270 q 509 260 510 263 q 506 254 507 256 q 519 240 515 245 q 526 232 524 235 q 551 228 541 227 q 568 232 560 229 q 585 239 574 233 q 605 250 601 247 q 627 269 613 262 q 637 286 631 279 q 642 302 637 296 z "},"&":{"ha":841,"x_min":30,"x_max":865,"o":"m 864 429 q 862 422 863 426 q 859 415 861 419 q 853 406 856 410 l 837 396 q 819 387 829 388 q 800 385 808 384 q 787 389 792 387 q 776 392 779 392 q 766 392 773 392 q 753 401 753 400 q 738 396 741 397 q 732 393 735 395 q 723 374 727 380 q 715 361 718 366 q 706 345 708 350 q 700 338 704 340 q 692 330 694 332 q 686 324 689 327 l 674 312 q 670 303 671 305 q 666 298 669 301 q 651 278 658 285 q 639 267 644 271 q 635 257 636 260 q 632 251 633 254 q 634 241 633 244 q 636 236 635 239 q 645 224 643 228 q 654 214 647 221 q 668 189 662 199 q 674 164 674 178 q 686 141 682 155 q 696 130 693 133 q 703 119 699 126 q 701 96 703 107 q 692 66 700 85 q 677 62 684 66 q 666 54 670 58 q 652 47 658 49 q 643 43 647 46 q 610 51 620 45 q 600 69 601 57 q 590 85 593 80 q 587 98 587 91 q 578 114 581 103 q 571 129 572 121 q 560 142 564 136 q 552 156 556 149 q 544 148 545 149 q 541 145 543 146 l 518 125 q 509 113 515 117 q 499 107 503 109 q 486 96 490 98 q 480 96 483 95 q 455 81 463 85 q 442 75 448 77 q 435 73 439 73 q 429 69 431 72 l 420 65 q 411 62 416 64 q 404 61 407 61 q 397 61 400 61 q 382 52 387 54 q 370 46 377 50 q 354 45 361 46 q 340 39 345 41 q 334 37 336 38 q 311 32 315 33 q 305 31 308 31 q 290 27 302 31 q 279 28 288 27 q 260 28 271 28 q 240 29 250 28 q 227 30 231 30 q 212 38 214 37 q 190 43 195 42 q 180 50 183 49 q 174 50 178 50 q 157 63 163 58 q 145 71 151 68 q 138 75 142 73 q 123 80 134 77 q 111 94 117 90 q 103 106 106 99 l 77 127 l 73 142 q 67 149 69 146 q 62 153 65 151 q 59 163 60 160 q 57 170 58 167 q 47 198 50 193 q 42 206 45 203 q 40 220 41 217 q 37 225 39 222 q 35 240 35 232 q 34 255 35 252 q 33 263 34 259 q 34 274 33 267 q 35 287 35 283 q 35 292 35 290 q 33 297 34 294 q 30 307 33 300 q 32 323 33 319 q 31 331 31 328 q 37 355 33 342 q 46 377 42 368 q 46 388 45 384 q 49 395 47 392 q 54 414 53 410 q 57 420 56 418 l 64 434 q 68 444 66 439 q 72 449 69 446 q 76 454 75 452 q 80 458 77 456 q 88 475 81 468 q 92 482 91 480 q 96 491 94 484 q 109 503 104 498 q 118 510 113 507 q 134 529 126 521 q 148 547 141 537 q 156 551 153 549 q 161 555 159 552 q 175 564 170 560 q 184 572 182 571 q 189 575 186 574 q 202 590 197 586 q 211 600 209 598 q 214 602 213 602 l 217 605 q 224 609 218 606 q 233 614 228 612 q 240 617 236 616 q 246 620 243 618 q 252 623 250 621 q 251 637 251 633 q 251 643 251 642 q 248 656 248 650 q 247 669 247 662 q 241 687 243 684 q 237 696 240 690 q 236 719 237 703 q 235 739 235 735 q 236 751 236 749 q 236 754 236 753 q 237 764 236 760 q 240 773 237 768 q 242 789 241 784 q 243 803 243 793 l 252 841 q 260 857 256 849 q 267 870 263 864 q 270 879 270 876 q 284 894 279 890 q 292 901 289 898 q 302 913 297 907 q 309 921 307 918 l 315 926 l 324 936 q 332 943 328 940 q 336 947 335 945 q 351 955 342 952 q 375 968 366 963 q 395 975 384 974 q 412 977 406 978 q 422 979 418 979 q 431 979 426 978 q 448 982 445 982 q 453 981 452 982 q 467 982 463 982 q 475 982 471 982 q 490 976 483 979 q 503 967 496 972 q 511 962 505 966 q 515 959 514 960 l 524 954 q 529 949 526 951 q 533 947 532 947 q 538 941 536 944 q 544 935 541 939 q 561 918 556 924 q 568 909 566 911 q 580 890 576 895 q 590 876 583 886 q 591 861 590 865 q 591 854 591 857 l 597 836 q 595 827 595 831 q 593 819 593 819 l 593 784 q 588 764 590 769 q 583 755 586 758 q 575 743 578 746 q 571 739 572 741 q 560 726 563 728 q 555 722 557 724 q 543 711 548 715 q 536 704 538 707 q 529 696 532 700 q 521 688 526 693 q 505 674 510 678 q 498 667 500 670 q 487 657 492 662 q 476 650 481 652 q 469 640 471 643 q 464 633 467 636 q 451 626 453 628 q 446 617 449 624 q 432 610 435 613 q 425 604 429 606 q 415 600 418 601 q 410 597 412 598 q 411 566 404 579 q 416 557 414 560 q 426 547 419 553 q 429 537 426 544 q 437 523 433 530 q 447 509 442 515 q 456 502 452 503 q 463 486 456 492 q 469 477 465 481 q 473 468 472 473 q 477 457 476 457 q 509 419 496 419 q 514 404 513 407 q 518 399 515 400 q 528 389 525 392 q 533 382 530 385 q 544 364 543 369 q 547 357 545 359 l 557 343 l 570 358 q 578 363 575 361 q 583 368 581 365 q 587 373 586 370 l 600 392 q 605 399 602 395 q 608 404 608 401 q 610 408 609 407 q 614 414 613 411 q 616 423 614 416 q 629 437 627 433 q 635 448 632 441 q 642 454 642 452 q 646 461 643 457 q 636 466 639 465 q 631 468 633 467 q 619 475 623 473 q 613 477 616 476 q 603 482 606 480 q 597 486 600 484 q 584 496 586 494 q 581 499 582 498 q 574 505 578 502 q 566 518 571 509 q 570 539 568 530 q 578 559 572 548 q 595 572 590 567 q 603 577 598 575 q 612 581 608 579 q 625 585 616 585 l 635 585 q 644 583 640 583 q 650 583 647 583 q 654 582 652 582 q 679 571 673 574 q 688 566 685 568 q 709 553 704 556 q 716 549 713 551 q 736 539 731 541 q 750 534 742 537 q 768 530 757 533 q 783 526 779 528 q 785 524 785 525 q 796 517 791 521 q 804 511 800 514 q 810 507 808 509 q 817 499 814 500 q 826 495 819 498 q 837 480 833 484 q 844 472 841 476 q 852 466 849 469 q 863 456 856 463 q 865 439 865 445 q 864 429 864 434 m 479 827 q 472 839 473 837 q 469 842 471 841 q 457 853 461 849 q 450 861 453 857 q 427 872 434 871 q 414 873 419 873 q 397 861 408 865 q 385 849 388 852 q 378 844 381 846 q 369 827 374 833 q 363 813 365 817 q 359 808 362 810 q 357 797 357 800 q 355 789 357 793 q 354 775 354 779 q 355 769 354 772 q 355 756 355 758 q 354 751 355 754 q 351 730 353 735 q 349 724 350 726 q 353 701 353 709 q 366 699 362 699 q 373 701 370 700 q 397 716 387 713 q 414 732 403 731 q 430 745 422 741 q 449 766 437 757 l 465 779 q 471 791 468 785 q 477 803 475 796 q 479 811 479 806 q 479 827 480 817 m 491 243 q 484 252 487 248 q 479 259 481 255 q 467 269 472 264 q 458 283 463 274 q 442 312 444 300 q 431 326 435 317 q 422 335 425 334 q 419 338 420 336 q 416 341 418 339 q 410 350 415 343 q 404 359 407 357 q 399 365 401 362 q 395 368 396 366 q 392 372 395 369 q 388 377 389 374 q 384 385 385 381 q 381 391 382 388 q 380 396 380 393 l 368 412 l 362 420 q 358 431 358 426 q 353 438 354 434 q 349 446 351 442 q 342 457 343 456 q 340 461 342 458 q 335 468 338 465 q 331 473 332 471 q 319 492 321 484 q 316 506 317 499 q 309 515 311 510 q 304 528 307 521 q 291 518 294 521 q 285 513 288 515 q 264 503 274 505 q 259 498 262 500 q 252 494 256 496 l 233 473 q 222 461 229 468 q 216 453 218 456 q 210 448 213 450 q 201 438 203 441 q 195 429 199 435 q 184 419 186 422 q 183 414 183 416 q 176 398 179 403 q 170 389 172 393 q 163 380 164 382 q 160 374 161 377 q 159 365 159 368 q 159 359 159 362 q 156 347 156 349 q 156 343 156 345 q 155 330 156 336 q 151 319 155 324 q 149 293 152 300 q 153 271 152 278 q 153 259 153 263 q 165 227 163 239 q 177 214 175 218 q 182 205 179 210 q 193 193 189 197 q 203 182 197 189 q 215 172 210 175 q 224 164 220 168 q 240 153 235 159 q 255 151 250 153 q 264 146 262 146 q 270 144 267 145 q 283 141 278 141 q 294 141 289 141 q 313 144 308 144 q 320 142 317 144 q 332 146 327 145 q 345 148 338 146 q 367 153 353 151 q 389 157 381 156 q 408 170 403 167 q 415 176 412 174 q 432 190 426 186 q 446 201 438 194 q 473 224 460 218 q 484 235 479 232 l 491 243 z "},"'":{"ha":152,"x_min":22,"x_max":130,"o":"m 130 719 q 123 700 123 705 l 123 686 q 125 670 125 681 q 125 661 126 665 q 125 652 125 656 l 125 623 q 119 614 121 617 q 117 610 118 612 l 117 606 q 114 600 115 605 q 102 595 106 597 q 95 591 98 593 q 79 589 87 589 l 46 597 q 38 612 41 606 q 34 621 35 617 q 30 636 30 629 l 30 654 l 30 662 q 28 666 30 665 q 28 671 28 670 q 27 675 27 673 q 26 685 26 678 q 25 695 26 692 q 24 701 24 699 q 23 709 24 708 q 22 718 23 713 q 27 732 26 730 l 27 739 l 27 760 q 27 769 26 765 q 28 773 27 772 q 28 777 28 774 l 28 789 q 29 801 28 796 q 30 810 30 806 q 26 845 26 838 q 26 853 26 849 q 27 867 27 857 q 32 874 30 872 q 37 879 34 876 q 37 880 37 880 q 38 882 38 880 l 39 882 q 42 886 39 883 q 45 890 43 887 q 50 901 46 894 q 64 898 61 898 q 68 898 66 898 l 71 898 q 76 902 71 898 q 92 896 88 898 q 99 892 96 894 q 110 886 107 887 q 117 878 114 882 q 123 848 123 859 q 123 840 123 844 q 122 831 122 836 q 121 818 122 819 l 121 815 q 121 802 121 808 q 122 787 122 795 q 122 770 119 776 q 123 766 122 769 q 122 752 122 755 q 122 746 122 749 q 130 719 122 727 z "},"(":{"ha":431,"x_min":33,"x_max":361,"o":"m 357 19 q 359 8 361 12 q 355 1 357 4 q 347 -14 350 -8 q 336 -26 343 -19 q 293 -33 305 -33 q 278 -33 285 -34 q 259 -20 267 -26 q 245 -11 252 -15 q 237 -4 239 -7 q 230 2 232 0 q 225 7 228 4 q 210 20 213 18 q 206 24 208 23 q 192 43 195 39 q 186 50 189 47 q 179 60 180 58 q 176 65 178 62 q 165 74 167 72 q 161 77 163 76 q 148 98 152 92 q 134 113 144 104 q 130 125 134 121 l 125 130 q 121 140 122 134 q 117 152 117 148 q 104 178 111 167 q 98 194 99 189 l 88 209 q 84 218 85 213 q 81 229 79 227 q 68 251 72 241 l 68 273 q 58 292 60 283 q 56 303 56 298 q 56 312 56 308 l 52 336 q 47 347 49 343 q 43 358 46 351 q 44 367 43 363 q 45 374 45 370 q 42 385 43 381 q 42 392 41 388 q 41 401 41 397 q 42 411 42 406 q 39 433 39 426 q 38 446 39 439 q 35 458 38 450 q 34 467 34 463 l 34 473 q 35 479 34 476 q 35 484 35 481 q 34 496 34 492 q 34 505 34 500 q 33 523 34 517 q 35 536 33 529 q 35 569 34 555 q 37 594 37 583 q 38 613 38 600 q 40 623 39 617 q 43 635 41 629 q 47 646 46 642 q 47 654 47 651 q 48 669 47 665 q 49 677 49 673 q 54 690 53 688 q 56 693 56 692 q 54 699 54 696 q 53 708 54 701 q 58 724 56 719 q 61 731 60 728 q 63 749 62 746 q 65 754 64 753 q 72 774 71 770 q 73 781 73 779 q 76 790 75 785 q 80 799 77 795 q 83 817 79 810 q 94 831 87 825 q 103 846 100 842 q 109 853 106 850 q 114 867 113 863 q 118 878 115 871 l 127 905 q 140 914 137 910 q 145 921 142 918 q 149 930 148 928 q 152 937 151 932 q 166 956 164 952 q 170 968 168 960 q 180 981 176 978 q 190 993 187 989 q 197 1001 193 997 q 204 1006 202 1004 q 210 1017 206 1008 q 220 1023 216 1019 l 222 1025 q 229 1031 225 1028 q 239 1036 237 1036 q 253 1041 250 1039 q 259 1044 256 1043 q 268 1046 263 1046 q 279 1048 273 1047 q 305 1034 296 1043 q 326 1012 324 1020 q 327 1000 328 1004 q 323 970 328 979 q 314 959 317 962 q 309 956 311 956 q 307 955 308 955 q 304 951 305 955 q 288 940 292 948 q 283 930 285 932 q 275 920 278 924 q 269 911 271 916 q 251 879 262 894 q 241 857 244 863 q 235 848 237 850 q 222 831 224 836 q 218 822 220 827 l 209 799 q 203 791 206 795 q 195 783 199 787 q 188 762 190 769 q 183 750 186 755 q 181 736 182 739 q 179 730 180 732 q 176 721 176 723 q 175 709 175 719 q 168 688 170 694 q 163 678 165 682 q 163 663 164 667 q 161 655 163 658 q 157 643 159 648 q 155 635 156 637 q 152 628 153 631 q 151 614 152 620 q 148 597 148 601 q 146 583 146 586 q 146 578 146 581 q 149 561 149 571 q 145 543 148 551 q 145 514 151 528 q 146 503 146 507 q 145 492 145 498 q 144 484 145 488 q 144 476 144 480 q 146 465 145 471 q 146 454 148 460 q 149 441 149 448 q 149 429 149 434 q 150 414 149 418 q 153 404 151 411 q 152 395 152 397 q 152 389 152 392 l 152 387 q 155 366 155 372 q 156 355 155 359 q 161 337 159 347 q 165 317 163 327 q 169 299 167 307 q 175 289 171 292 q 184 262 182 271 q 189 247 186 254 q 202 218 199 228 q 212 197 212 209 q 227 172 218 183 q 232 165 231 167 l 240 155 q 245 146 243 151 q 248 141 247 142 q 260 127 258 134 q 271 113 267 117 q 278 106 275 109 q 292 92 288 96 q 301 80 297 87 q 313 70 311 72 q 316 66 315 68 l 345 37 l 357 19 z "},")":{"ha":431,"x_min":73,"x_max":397,"o":"m 397 480 q 396 452 397 458 q 395 431 396 439 q 395 414 395 422 q 394 402 395 407 q 393 392 393 397 q 392 372 393 385 q 388 353 391 359 q 385 338 385 343 q 384 331 384 334 q 383 315 384 320 q 381 308 382 311 q 376 294 377 297 q 374 290 376 292 q 372 263 373 270 q 370 254 372 256 q 370 238 370 241 q 368 233 369 235 q 359 210 361 214 q 357 203 358 206 q 353 187 357 195 q 347 166 353 175 q 338 153 342 157 q 328 138 331 142 q 323 132 326 134 q 317 118 317 122 q 313 109 316 114 q 306 99 307 100 q 304 96 305 98 q 301 90 304 95 q 298 83 300 87 l 294 79 q 289 72 289 73 q 283 60 283 62 q 281 50 282 57 q 272 40 274 43 q 267 34 270 37 q 262 25 263 27 q 260 16 262 23 l 251 3 q 244 -4 247 -1 q 239 -14 241 -7 q 227 -21 229 -18 q 221 -33 224 -24 q 210 -37 213 -35 q 205 -41 208 -38 q 195 -50 199 -46 q 182 -54 190 -54 q 174 -58 176 -57 q 168 -61 171 -60 q 159 -63 164 -62 q 146 -64 155 -64 q 122 -46 129 -56 q 111 -38 117 -43 q 103 -24 106 -33 q 104 0 103 -8 q 107 15 104 8 q 122 36 118 31 q 132 47 126 41 q 143 52 141 50 q 146 54 145 53 q 157 68 153 65 q 163 75 160 72 q 171 91 165 81 q 180 107 176 100 q 190 128 187 122 q 195 137 193 134 q 209 153 206 149 q 213 163 212 157 l 222 186 q 231 199 229 197 q 236 203 233 201 q 243 222 241 216 q 248 233 245 229 q 250 252 250 248 q 254 258 251 255 q 255 263 254 259 q 258 271 256 267 l 260 282 q 262 289 260 285 q 263 294 263 292 q 264 300 263 297 q 267 309 267 307 q 266 317 267 311 q 269 330 269 327 q 269 339 269 334 q 272 347 271 342 q 274 354 273 351 q 275 362 275 358 l 278 377 q 282 404 282 401 q 284 414 283 410 q 285 422 285 418 q 285 442 283 437 q 285 471 281 456 l 285 487 q 288 503 285 492 q 285 517 286 513 q 283 526 283 522 q 281 543 281 536 q 281 556 281 549 q 280 568 281 563 q 275 581 279 572 q 278 590 277 587 q 279 595 279 593 l 279 600 q 277 619 277 613 q 275 628 277 625 q 269 649 271 637 q 263 671 266 661 q 258 690 260 682 q 255 700 256 699 q 250 715 252 709 q 245 727 247 722 q 239 743 241 739 q 231 759 232 754 q 229 768 229 764 q 220 787 220 776 q 203 812 209 804 q 184 830 198 819 q 183 842 183 837 q 182 845 183 844 q 175 851 178 848 q 170 857 172 854 q 155 876 160 871 q 148 887 151 882 q 130 905 136 895 q 120 913 122 911 q 117 916 118 916 l 75 948 l 75 966 q 74 972 75 968 q 76 981 73 977 q 87 1000 80 991 q 106 1013 94 1008 q 145 1017 127 1019 q 182 1008 163 1015 q 189 998 186 1004 q 195 987 193 991 q 208 976 205 978 q 217 971 210 974 q 227 962 224 963 q 235 960 229 960 q 239 942 237 947 q 244 935 241 937 q 255 920 254 921 q 267 911 264 913 q 270 907 269 909 q 283 886 279 892 q 297 872 288 880 q 302 860 296 867 q 309 854 305 857 q 312 845 311 850 q 313 838 313 841 q 313 833 313 834 q 321 819 317 825 q 327 807 324 812 q 334 791 331 799 l 347 777 q 351 770 350 774 q 353 761 354 762 q 358 743 357 747 q 362 732 359 738 l 362 713 q 373 693 369 705 q 376 682 376 686 q 376 673 376 677 l 376 656 q 381 643 380 646 q 384 637 382 640 q 387 620 387 624 q 385 613 387 616 q 389 599 388 602 q 389 593 389 595 q 389 579 389 582 q 388 574 389 576 q 391 551 391 559 q 393 538 392 544 q 395 528 393 532 l 397 519 q 396 513 396 515 l 396 506 q 397 488 397 494 q 397 480 397 483 z "},"*":{"ha":530,"x_min":30,"x_max":500,"o":"m 500 819 q 498 806 498 810 q 496 800 498 803 q 496 795 496 798 q 495 785 495 792 q 483 772 487 777 q 472 755 479 766 q 453 751 461 753 q 438 747 445 750 q 422 743 430 745 q 408 742 415 742 q 398 740 401 741 q 393 739 395 739 q 367 732 376 734 q 351 730 358 731 q 339 728 345 728 q 327 726 334 728 q 323 711 324 715 q 323 704 323 707 q 324 689 324 693 q 323 682 324 685 q 328 668 326 675 q 328 651 330 661 q 332 635 331 640 q 332 624 332 631 q 336 608 335 612 q 336 601 336 604 q 334 586 336 593 q 328 574 331 579 q 323 565 326 570 q 315 551 320 560 q 293 545 301 547 q 278 543 285 544 q 235 549 262 540 l 216 583 q 214 595 214 593 q 213 600 213 598 q 210 612 210 606 q 209 625 210 618 q 208 635 209 631 q 206 647 208 640 q 205 657 203 654 q 208 663 206 661 q 205 684 205 678 q 203 693 205 689 q 191 688 198 690 q 178 684 184 686 q 171 680 174 681 q 165 677 168 680 q 160 673 163 674 q 152 669 156 670 q 145 667 149 667 q 142 666 144 667 q 127 656 140 663 q 116 659 119 659 q 109 656 113 659 q 94 652 100 654 q 77 650 87 650 q 56 655 66 650 q 47 657 53 656 q 35 665 42 658 q 36 704 30 686 q 57 730 42 722 q 83 746 72 745 q 102 754 91 751 q 117 758 111 755 q 130 763 127 761 q 134 768 132 765 q 151 772 144 770 q 163 777 157 774 q 153 785 156 783 q 148 791 151 788 q 138 802 141 799 q 132 807 134 804 q 126 812 129 810 q 121 818 123 815 q 107 837 113 829 q 96 852 104 841 q 84 865 88 861 q 72 875 80 868 q 68 890 69 886 q 68 901 68 895 q 73 924 68 909 q 92 947 77 940 q 119 959 110 959 q 148 957 137 960 q 172 941 159 954 q 184 934 178 939 q 193 921 190 929 l 203 910 q 214 899 213 902 q 216 892 216 895 l 236 873 l 245 897 l 248 905 l 252 917 q 257 934 255 928 q 259 949 259 940 q 267 958 266 955 q 269 964 267 962 q 270 972 269 967 q 277 986 271 977 q 288 989 285 989 q 293 991 290 990 q 323 999 311 1000 q 358 987 336 998 q 363 968 361 974 q 366 955 366 962 q 363 935 366 944 q 357 920 359 926 q 353 907 354 910 q 353 901 353 905 q 347 883 349 887 q 342 873 345 879 q 336 865 338 869 q 331 852 334 860 q 319 823 327 837 q 334 829 330 826 q 345 834 339 831 q 359 836 354 836 q 366 837 363 837 q 386 840 380 840 q 396 842 392 841 q 427 852 419 849 q 441 854 434 854 q 450 853 446 853 q 457 853 454 853 q 461 854 460 853 q 468 849 464 852 q 476 844 476 844 q 489 833 484 837 q 500 819 494 830 z "},"+":{"ha":540,"x_min":18,"x_max":521,"o":"m 521 444 q 517 435 518 438 q 517 429 517 431 l 517 422 l 500 404 q 491 399 496 401 q 479 395 483 395 l 449 395 q 441 393 445 393 q 431 392 437 393 q 414 390 425 391 q 393 392 404 389 q 376 391 387 391 q 366 391 370 391 q 358 392 362 392 q 342 391 346 392 q 332 382 335 384 q 328 378 330 380 q 329 363 330 366 q 328 358 328 361 l 328 339 q 327 324 328 330 q 328 309 330 316 q 332 296 331 304 q 327 282 332 289 q 324 262 327 269 q 300 216 324 231 q 282 210 290 212 q 269 209 274 209 q 243 216 248 214 q 236 220 239 218 q 229 226 233 222 q 216 237 224 229 q 216 249 216 247 q 214 254 216 251 q 205 273 208 262 q 210 294 203 283 q 209 307 209 305 q 209 311 209 309 q 208 327 208 323 q 208 334 208 331 q 207 351 208 345 q 208 362 206 357 q 210 376 210 370 q 208 388 209 381 q 188 389 194 389 q 176 387 182 388 q 163 387 170 387 q 151 391 157 388 q 140 389 145 389 q 132 389 136 389 q 115 382 125 389 q 105 385 107 385 q 100 385 103 385 q 79 382 88 382 q 58 387 69 382 l 42 397 l 20 420 q 20 446 18 435 q 33 479 23 457 q 64 486 53 484 q 85 487 75 488 q 105 491 99 490 q 117 494 111 492 q 134 495 132 495 q 137 496 136 495 q 163 498 156 498 q 179 495 171 498 q 191 492 186 492 q 201 492 197 492 q 208 507 210 500 q 207 513 208 510 q 205 522 206 515 q 207 536 206 533 q 208 541 208 538 q 207 550 208 544 q 209 562 206 556 q 212 576 209 568 q 214 611 212 600 q 217 640 217 623 q 224 652 224 648 q 225 661 225 656 q 229 671 227 667 q 232 678 231 675 q 237 684 235 681 q 247 699 240 688 q 265 698 260 697 q 273 699 270 699 l 323 693 q 330 679 328 682 q 339 669 332 675 q 342 652 342 656 q 343 643 343 647 q 342 633 343 637 q 339 625 340 629 l 328 602 q 328 594 328 598 q 326 585 327 590 l 326 566 q 321 551 326 556 q 327 533 323 540 q 326 523 326 526 q 324 517 326 519 q 326 496 327 503 l 336 496 q 343 498 340 496 l 351 498 q 357 497 354 498 q 361 496 359 496 q 369 497 365 496 q 377 498 373 498 q 389 500 384 499 q 399 503 393 502 q 423 502 412 506 q 437 505 433 505 q 444 505 441 505 q 454 506 450 506 q 460 506 457 506 q 501 484 488 496 q 521 456 514 472 l 521 444 z "},",":{"ha":269,"x_min":43,"x_max":202,"o":"m 197 76 l 194 45 q 185 24 190 34 q 176 4 180 14 q 167 -16 171 -7 q 138 -53 152 -38 q 117 -75 127 -66 q 103 -77 107 -84 q 92 -75 95 -80 q 87 -64 88 -71 q 87 -47 85 -57 q 100 -4 91 -30 q 109 41 110 22 q 92 47 99 43 q 80 53 85 50 q 73 57 75 56 q 58 77 62 68 q 43 94 53 85 q 47 107 46 103 q 49 114 47 111 l 49 137 q 60 165 56 156 q 72 183 64 174 q 96 185 87 184 q 115 186 106 186 q 137 184 126 186 q 159 174 148 182 q 191 131 180 159 q 197 76 202 103 z "},"-":{"ha":563,"x_min":16,"x_max":552,"o":"m 552 422 q 522 402 533 407 q 498 397 511 397 q 486 399 488 399 q 481 399 483 399 q 459 395 469 396 q 441 396 449 395 q 428 397 430 397 q 425 397 426 397 q 412 399 415 399 q 408 399 410 399 q 395 399 400 399 q 387 400 389 400 l 382 400 q 350 400 359 401 q 332 399 340 399 l 316 399 l 279 399 l 251 399 q 238 397 243 397 q 229 397 233 397 q 218 399 221 399 q 214 399 216 399 q 199 396 203 396 q 187 396 194 396 q 175 397 182 397 q 168 399 171 399 q 148 397 155 397 q 134 396 141 396 q 117 395 122 396 q 109 395 113 395 q 98 395 106 395 q 84 397 91 396 q 56 401 68 395 l 35 401 l 19 422 q 18 430 18 426 q 16 436 16 433 q 16 441 16 439 q 28 475 18 463 q 53 491 37 484 q 77 488 68 488 q 95 488 85 488 q 115 490 106 490 q 136 488 125 491 q 151 486 142 488 q 164 488 161 488 q 175 490 168 490 q 193 487 182 490 q 221 487 210 488 q 235 488 232 488 q 239 488 237 488 l 263 488 q 275 490 270 490 q 279 491 277 490 l 300 491 q 308 490 305 491 q 315 489 311 490 q 324 488 319 488 l 363 490 q 375 491 372 491 q 381 491 378 491 q 390 491 385 491 q 399 490 395 491 q 414 492 410 491 q 423 494 418 492 q 439 493 435 494 q 446 492 444 492 q 458 494 454 494 q 465 494 463 494 q 469 495 468 494 q 495 493 486 495 q 511 488 505 491 q 526 484 518 487 q 538 475 533 481 q 549 452 547 465 q 552 422 552 438 z "},".":{"ha":243,"x_min":38,"x_max":191,"o":"m 191 129 q 189 118 189 122 q 189 110 189 114 q 189 99 189 104 q 186 87 189 94 q 177 69 183 76 q 164 57 171 62 q 154 51 160 54 q 140 41 148 47 q 117 46 125 43 q 100 54 109 49 q 66 69 79 54 q 60 75 62 72 q 54 81 57 79 q 50 87 53 84 q 38 98 47 91 q 39 115 39 110 q 39 126 39 121 q 39 139 39 132 q 42 153 39 146 q 47 161 45 157 q 52 167 49 164 q 68 182 64 178 q 76 190 72 186 q 94 191 91 191 q 100 190 98 190 q 127 184 119 187 q 141 179 134 182 q 159 173 153 175 q 174 164 164 171 q 185 143 182 149 q 191 129 189 137 z "},"/":{"ha":594,"x_min":31,"x_max":567,"o":"m 567 852 l 557 837 q 551 824 557 833 q 540 811 544 815 q 535 802 537 807 q 530 793 533 798 q 525 784 528 788 l 513 753 q 506 742 510 747 q 500 733 503 738 q 496 727 498 728 q 480 705 486 711 l 475 681 q 465 660 468 666 q 458 651 461 654 q 448 633 450 636 q 444 627 445 629 q 435 617 438 620 q 430 612 433 614 q 427 603 427 608 q 426 595 427 598 q 425 589 425 591 q 418 582 420 586 q 410 564 411 575 l 396 551 q 393 547 393 548 q 389 541 391 544 q 387 529 387 536 l 372 519 q 370 513 372 517 q 368 507 369 510 l 365 499 q 362 495 363 498 q 359 490 361 492 q 358 484 358 487 q 343 477 343 477 q 338 465 339 467 q 338 461 338 463 q 326 444 328 446 q 320 438 323 441 q 316 423 317 427 q 312 414 315 419 q 306 401 307 403 q 305 397 305 399 q 290 374 302 380 q 283 359 285 363 q 279 349 282 355 q 275 336 277 340 q 269 327 273 332 q 264 317 267 326 q 262 311 263 313 l 259 305 q 256 300 258 302 q 254 296 255 297 q 252 290 252 293 q 250 283 251 286 q 245 278 248 279 q 244 269 245 273 q 239 260 241 259 q 228 244 232 250 q 221 233 224 239 q 209 220 213 225 q 203 206 206 213 q 195 190 201 199 q 189 184 191 186 q 184 180 186 182 l 183 179 q 181 174 182 178 q 179 165 180 170 l 176 155 l 167 141 l 163 125 q 157 111 160 118 q 146 98 153 103 q 135 84 138 88 q 126 73 132 80 l 98 65 q 80 66 87 65 q 69 71 73 68 q 50 79 57 73 q 39 92 43 85 q 33 109 34 106 q 33 115 33 113 q 32 122 33 118 q 34 133 31 126 q 42 144 41 142 q 45 149 43 146 q 52 159 49 155 q 57 165 54 164 q 64 176 64 175 q 66 183 65 176 q 78 199 77 198 q 81 213 79 201 q 94 229 88 220 q 100 239 99 239 q 104 248 102 243 q 107 255 106 252 l 110 263 q 113 267 111 264 q 115 271 114 270 q 118 274 117 271 l 125 288 q 128 302 126 296 q 133 312 130 308 q 140 327 134 316 q 144 336 142 332 l 149 345 q 155 353 155 353 q 163 368 160 362 q 170 377 165 373 q 173 391 171 384 q 182 404 175 397 q 188 421 186 418 q 191 425 190 425 q 202 450 193 444 q 204 455 203 453 q 208 460 205 457 q 212 465 209 463 q 214 469 213 467 q 217 475 217 475 q 227 494 224 487 q 233 507 231 502 q 245 525 239 518 q 258 548 254 543 q 264 556 262 553 q 270 568 267 563 q 277 578 273 572 q 280 587 279 585 q 281 593 281 590 q 290 604 288 601 q 296 609 293 606 q 301 617 298 612 l 304 623 l 311 631 q 318 646 313 640 q 328 658 323 652 q 336 674 332 667 q 345 689 339 681 q 359 711 355 707 q 369 736 362 722 q 385 758 376 750 q 393 777 389 773 q 397 785 396 783 q 400 791 399 788 q 410 810 407 806 q 414 817 412 814 q 421 829 419 826 q 426 836 423 833 q 433 845 426 837 q 441 863 441 853 q 451 876 449 872 q 456 887 453 880 l 469 898 q 490 911 479 906 q 515 915 506 916 q 529 911 524 914 q 552 901 536 909 q 561 880 559 887 q 563 865 563 872 l 567 852 z "},":":{"ha":243,"x_min":39,"x_max":190,"o":"m 190 400 q 190 385 190 392 q 187 366 190 377 q 180 351 180 355 q 179 343 179 347 q 165 335 168 336 q 160 332 163 334 q 140 325 145 326 q 132 324 136 324 q 101 334 109 331 q 90 339 94 336 q 76 344 83 342 q 58 353 69 346 q 53 369 57 368 q 47 380 50 374 q 41 396 43 385 q 43 408 43 403 q 43 418 43 412 q 43 431 43 425 q 45 444 43 437 q 65 477 50 467 q 77 486 71 481 q 91 498 83 490 q 115 491 106 495 q 130 483 123 487 q 165 463 153 479 q 170 456 168 460 q 174 449 171 452 q 179 441 176 445 q 189 431 182 438 q 189 412 189 419 q 190 400 190 406 m 189 125 q 189 109 189 117 q 186 91 189 102 q 178 76 179 80 q 178 68 178 72 q 164 60 167 61 q 159 57 161 58 q 139 50 144 50 q 130 49 134 49 q 100 58 107 56 q 88 64 92 61 q 75 68 81 66 q 57 77 68 71 q 54 90 56 87 q 52 94 53 92 q 45 104 49 99 q 39 121 42 110 q 42 132 42 127 q 42 142 42 137 q 42 155 42 149 q 43 168 42 161 q 64 202 49 190 q 75 210 69 206 q 90 222 80 214 q 113 216 104 220 q 129 208 122 212 q 164 187 152 203 q 168 180 167 184 q 172 174 170 176 q 178 166 175 170 q 187 156 180 163 q 188 137 187 144 q 189 125 189 130 z "}}}
